<?xml version="1.0" standalone="no"?>
<!DOCTYPE svg PUBLIC "-//W3C//DTD SVG 20010904//EN"
 "http://www.w3.org/TR/2001/REC-SVG-20010904/DTD/svg10.dtd">
<svg version="1.0" xmlns="http://www.w3.org/2000/svg"
 width="1024.000000pt" height="1024.000000pt" viewBox="0 0 1024.000000 1024.000000"
 preserveAspectRatio="xMidYMid meet">

<g transform="translate(0.000000,1024.000000) scale(0.100000,-0.100000)"
fill="#000000" stroke="none">
<path d="M5178 8953 c7 -3 16 -2 19 1 4 3 -2 6 -13 5 -11 0 -14 -3 -6 -6z"/>
<path d="M4898 8943 c12 -2 30 -2 40 0 9 3 -1 5 -23 4 -22 0 -30 -2 -17 -4z"/>
<path d="M4688 8923 c12 -2 30 -2 40 0 9 3 -1 5 -23 4 -22 0 -30 -2 -17 -4z"/>
<path d="M5608 8923 c7 -3 16 -2 19 1 4 3 -2 6 -13 5 -11 0 -14 -3 -6 -6z"/>
<path d="M4608 8913 c6 -2 18 -2 25 0 6 3 1 5 -13 5 -14 0 -19 -2 -12 -5z"/>
<path d="M4638 8853 c12 -2 32 -2 45 0 12 2 2 4 -23 4 -25 0 -35 -2 -22 -4z"/>
<path d="M5088 8853 c12 -2 30 -2 40 0 9 3 -1 5 -23 4 -22 0 -30 -2 -17 -4z"/>
<path d="M4203 8842 c-13 -2 -23 -8 -23 -14 0 -6 7 -7 18 -3 9 4 32 7 50 6 17
-1 32 0 32 3 0 6 -52 12 -77 8z"/>
<path d="M4403 8843 c9 -2 23 -2 30 0 6 3 -1 5 -18 5 -16 0 -22 -2 -12 -5z"/>
<path d="M5228 8843 c7 -3 16 -2 19 1 4 3 -2 6 -13 5 -11 0 -14 -3 -6 -6z"/>
<path d="M5338 8833 c7 -3 16 -2 19 1 4 3 -2 6 -13 5 -11 0 -14 -3 -6 -6z"/>
<path d="M5578 8793 c7 -3 16 -2 19 1 4 3 -2 6 -13 5 -11 0 -14 -3 -6 -6z"/>
<path d="M4277 8673 c18 -2 50 -2 70 0 21 2 7 4 -32 4 -38 0 -55 -2 -38 -4z"/>
<path d="M4593 8673 c31 -2 83 -2 115 0 31 2 5 3 -58 3 -63 0 -89 -1 -57 -3z"/>
<path d="M4068 8663 c7 -3 16 -2 19 1 4 3 -2 6 -13 5 -11 0 -14 -3 -6 -6z"/>
<path d="M3938 8653 c6 -2 18 -2 25 0 6 3 1 5 -13 5 -14 0 -19 -2 -12 -5z"/>
<path d="M4998 8653 c7 -3 16 -2 19 1 4 3 -2 6 -13 5 -11 0 -14 -3 -6 -6z"/>
<path d="M3848 8643 c7 -3 16 -2 19 1 4 3 -2 6 -13 5 -11 0 -14 -3 -6 -6z"/>
<path d="M5128 8633 c7 -3 16 -2 19 1 4 3 -2 6 -13 5 -11 0 -14 -3 -6 -6z"/>
<path d="M6658 8473 c7 -3 16 -2 19 1 4 3 -2 6 -13 5 -11 0 -14 -3 -6 -6z"/>
<path d="M4597 8419 c7 -7 15 -10 18 -7 3 3 -2 9 -12 12 -14 6 -15 5 -6 -5z"/>
<path d="M2925 8410 c-19 -8 -19 -9 3 -9 12 -1 22 4 22 9 0 6 -1 10 -2 9 -2 0
-12 -4 -23 -9z"/>
<path d="M3078 8403 c50 -2 134 -2 185 0 50 1 9 3 -93 3 -102 0 -143 -2 -92
-3z"/>
<path d="M3598 8403 c7 -3 16 -2 19 1 4 3 -2 6 -13 5 -11 0 -14 -3 -6 -6z"/>
<path d="M3658 8403 c18 -2 45 -2 60 0 15 2 0 4 -33 4 -33 0 -45 -2 -27 -4z"/>
<path d="M3863 8393 c15 -2 39 -2 55 0 15 2 2 4 -28 4 -30 0 -43 -2 -27 -4z"/>
<path d="M4008 8383 c6 -2 18 -2 25 0 6 3 1 5 -13 5 -14 0 -19 -2 -12 -5z"/>
<path d="M4098 8373 c6 -2 18 -2 25 0 6 3 1 5 -13 5 -14 0 -19 -2 -12 -5z"/>
<path d="M7572 8300 c0 -14 2 -19 5 -12 2 6 2 18 0 25 -3 6 -5 1 -5 -13z"/>
<path d="M2698 8243 c6 -2 18 -2 25 0 6 3 1 5 -13 5 -14 0 -19 -2 -12 -5z"/>
<path d="M2674 8140 c0 -58 1 -81 3 -52 2 28 2 76 0 105 -2 28 -3 5 -3 -53z"/>
<path d="M6749 8207 c26 -28 31 -32 31 -19 0 4 -13 16 -28 26 l-27 19 24 -26z"/>
<path d="M6970 8196 c0 -2 8 -10 18 -17 15 -13 16 -12 3 4 -13 16 -21 21 -21
13z"/>
<path d="M3200 8180 c-10 -7 8 -9 60 -9 66 1 70 2 35 10 -54 11 -77 11 -95 -1z"/>
<path d="M3463 8183 c15 -2 39 -2 55 0 15 2 2 4 -28 4 -30 0 -43 -2 -27 -4z"/>
<path d="M3603 8183 c9 -2 25 -2 35 0 9 3 1 5 -18 5 -19 0 -27 -2 -17 -5z"/>
<path d="M3673 8183 c9 -2 23 -2 30 0 6 3 -1 5 -18 5 -16 0 -22 -2 -12 -5z"/>
<path d="M3738 8183 c12 -2 32 -2 45 0 12 2 2 4 -23 4 -25 0 -35 -2 -22 -4z"/>
<path d="M3998 8183 c12 -2 32 -2 45 0 12 2 2 4 -23 4 -25 0 -35 -2 -22 -4z"/>
<path d="M6845 8120 c10 -11 20 -20 23 -20 3 0 -3 9 -13 20 -10 11 -20 20 -23
20 -3 0 3 -9 13 -20z"/>
<path d="M5443 8085 c0 -8 4 -12 9 -9 5 3 6 10 3 15 -9 13 -12 11 -12 -6z"/>
<path d="M5464 8068 c-4 -7 -3 -8 4 -4 7 4 12 3 12 -2 0 -6 8 -13 17 -16 15
-6 15 -4 -2 14 -21 23 -22 24 -31 8z"/>
<path d="M2674 7880 c0 -58 1 -81 3 -52 2 28 2 76 0 105 -2 28 -3 5 -3 -53z"/>
<path d="M7000 7977 c0 -2 15 -16 33 -33 l32 -29 -29 33 c-28 30 -36 37 -36
29z"/>
<path d="M7403 7935 c0 -27 2 -38 4 -22 2 15 2 37 0 50 -2 12 -4 0 -4 -28z"/>
<path d="M7722 7885 c0 -16 2 -22 5 -12 2 9 2 23 0 30 -3 6 -5 -1 -5 -18z"/>
<path d="M6465 7880 c10 -11 20 -20 23 -20 3 0 -3 9 -13 20 -10 11 -20 20 -23
20 -3 0 3 -9 13 -20z"/>
<path d="M6526 7821 c-3 -5 1 -14 9 -21 8 -7 15 -9 15 -5 0 5 10 0 23 -11 l22
-19 -19 22 c-10 12 -23 21 -30 20 -6 -1 -10 4 -8 11 2 14 -4 16 -12 3z"/>
<path d="M7200 7785 c19 -19 36 -35 39 -35 3 0 -10 16 -29 35 -19 19 -36 35
-39 35 -3 0 10 -16 29 -35z"/>
<path d="M6995 7790 c10 -11 20 -20 23 -20 3 0 -3 9 -13 20 -10 11 -20 20 -23
20 -3 0 3 -9 13 -20z"/>
<path d="M7722 7770 c0 -19 2 -27 5 -17 2 9 2 25 0 35 -3 9 -5 1 -5 -18z"/>
<path d="M3873 7763 c9 -2 23 -2 30 0 6 3 -1 5 -18 5 -16 0 -22 -2 -12 -5z"/>
<path d="M6645 7710 c27 -27 51 -50 54 -50 3 0 -17 23 -44 50 -27 28 -51 50
-54 50 -3 0 17 -22 44 -50z"/>
<path d="M3390 7746 c0 -2 9 -6 20 -9 11 -3 20 -1 20 4 0 5 -9 9 -20 9 -11 0
-20 -2 -20 -4z"/>
<path d="M6120 7722 c12 -18 25 -31 28 -27 3 3 -7 18 -23 33 l-28 27 23 -33z"/>
<path d="M2960 7723 c0 -10 4 -14 8 -8 4 6 11 13 16 18 5 4 2 7 -7 7 -10 0
-17 -8 -17 -17z"/>
<path d="M3273 7733 c9 -2 23 -2 30 0 6 3 -1 5 -18 5 -16 0 -22 -2 -12 -5z"/>
<path d="M5775 7670 c10 -11 20 -20 23 -20 3 0 -3 9 -13 20 -10 11 -20 20 -23
20 -3 0 3 -9 13 -20z"/>
<path d="M3259 7653 c-13 -16 -12 -17 4 -4 9 7 17 15 17 17 0 8 -8 3 -21 -13z"/>
<path d="M4438 7623 c6 -2 18 -2 25 0 6 3 1 5 -13 5 -14 0 -19 -2 -12 -5z"/>
<path d="M4500 7620 c-9 -6 -10 -10 -3 -10 6 0 15 5 18 10 8 12 4 12 -15 0z"/>
<path d="M7926 7605 c8 -35 10 -39 17 -28 3 5 -1 19 -9 33 l-14 25 6 -30z"/>
<path d="M4023 7613 c9 -2 25 -2 35 0 9 3 1 5 -18 5 -19 0 -27 -2 -17 -5z"/>
<path d="M6250 7585 c19 -19 36 -35 39 -35 3 0 -10 16 -29 35 -19 19 -36 35
-39 35 -3 0 10 -16 29 -35z"/>
<path d="M6745 7600 c10 -11 20 -20 23 -20 3 0 -3 9 -13 20 -10 11 -20 20 -23
20 -3 0 3 -9 13 -20z"/>
<path d="M3918 7603 c7 -3 16 -2 19 1 4 3 -2 6 -13 5 -11 0 -14 -3 -6 -6z"/>
<path d="M5850 7607 c0 -2 15 -16 33 -33 l32 -29 -29 33 c-28 30 -36 37 -36
29z"/>
<path d="M7022 7560 c7 -11 17 -20 22 -20 5 0 1 9 -9 20 -10 11 -20 20 -22 20
-2 0 2 -9 9 -20z"/>
<path d="M2963 7480 c0 -36 2 -50 4 -32 2 17 2 47 0 65 -2 17 -4 3 -4 -33z"/>
<path d="M4700 7483 c19 -9 38 -16 43 -15 6 2 11 -12 9 -29 -1 -3 6 -6 13 -6
10 0 12 4 5 12 -5 7 -7 15 -3 18 6 6 -4 9 -23 6 -4 0 -10 4 -13 9 -3 6 -20 13
-36 16 -29 6 -29 6 5 -11z"/>
<path d="M7952 7475 c0 -16 2 -22 5 -12 2 9 2 23 0 30 -3 6 -5 -1 -5 -18z"/>
<path d="M6340 7486 c0 -2 8 -10 18 -17 15 -13 16 -12 3 4 -13 16 -21 21 -21
13z"/>
<path d="M7752 7460 c0 -19 2 -27 5 -17 2 9 2 25 0 35 -3 9 -5 1 -5 -18z"/>
<path d="M4580 7478 c11 -11 70 -26 74 -19 3 4 0 8 -7 8 -7 0 -25 4 -42 8 -16
4 -28 6 -25 3z"/>
<path d="M5990 7456 c0 -2 8 -10 18 -17 15 -13 16 -12 3 4 -13 16 -21 21 -21
13z"/>
<path d="M4558 7443 c6 -2 18 -2 25 0 6 3 1 5 -13 5 -14 0 -19 -2 -12 -5z"/>
<path d="M2674 7275 c0 -93 2 -133 3 -88 2 45 2 122 0 170 -1 48 -3 12 -3 -82z"/>
<path d="M6380 7436 c0 -2 8 -10 18 -17 15 -13 16 -12 3 4 -13 16 -21 21 -21
13z"/>
<path d="M4256 7419 c-132 -14 -109 -19 54 -12 85 4 171 6 190 5 26 -1 31 1
20 8 -18 11 -151 11 -264 -1z"/>
<path d="M4726 7415 c-2 -7 4 -15 17 -19 27 -7 28 -5 6 16 -14 13 -19 14 -23
3z"/>
<path d="M4784 7418 c-4 -7 -4 -10 1 -6 4 4 14 0 21 -10 7 -9 14 -15 17 -12 2
3 -4 13 -13 23 -14 15 -20 16 -26 5z"/>
<path d="M7962 7405 c0 -16 2 -22 5 -12 2 9 2 23 0 30 -3 6 -5 -1 -5 -18z"/>
<path d="M4600 7410 c8 -5 20 -10 25 -10 6 0 3 5 -5 10 -8 5 -19 10 -25 10 -5
0 -3 -5 5 -10z"/>
<path d="M4318 7393 c7 -3 16 -2 19 1 4 3 -2 6 -13 5 -11 0 -14 -3 -6 -6z"/>
<path d="M4360 7394 c34 -7 108 -8 103 -1 -2 4 -30 6 -61 6 -31 -1 -50 -3 -42
-5z"/>
<path d="M4651 7384 c12 -15 10 -16 -21 -10 l-35 6 35 -14 c19 -7 37 -12 38
-10 8 6 -10 44 -20 44 -6 0 -5 -7 3 -16z"/>
<path d="M4269 7386 c-2 -2 -48 -6 -101 -10 -53 -3 -137 -12 -185 -20 -164
-28 -163 -28 -164 -8 -1 11 -4 9 -9 -8 -4 -14 -8 -19 -9 -12 -1 6 -6 12 -12
12 -5 0 -7 -4 -4 -10 3 -5 -3 -10 -14 -10 -10 0 -22 6 -24 13 -3 7 -6 5 -6 -5
-1 -10 -5 -18 -11 -18 -5 0 -10 8 -11 18 0 16 -1 16 -8 -1 -4 -10 -11 -19 -16
-19 -6 -1 -24 -4 -40 -8 -21 -5 -35 -2 -44 8 -11 11 -15 11 -21 2 -4 -7 -13
-9 -19 -6 -6 4 -11 2 -11 -4 0 -6 -4 -8 -10 -5 -5 3 -10 1 -10 -5 0 -7 8 -9
23 -4 12 3 19 4 16 0 -4 -4 -20 -11 -37 -15 -25 -8 -30 -6 -25 5 3 8 0 14 -6
14 -6 0 -11 -8 -11 -18 0 -11 -8 -18 -20 -19 -11 -1 -20 2 -20 8 0 5 8 9 17 9
9 0 14 3 11 6 -11 10 -87 -16 -97 -34 -8 -13 -10 -13 -11 -3 0 11 -4 10 -16
-5 -8 -10 -13 -14 -10 -7 4 6 2 14 -4 18 -5 3 -10 1 -10 -5 0 -6 -4 -9 -9 -5
-5 3 -12 1 -16 -5 -3 -5 -14 -10 -24 -10 -19 0 -122 -40 -131 -50 -3 -4 -14
-10 -24 -13 -10 -4 -17 -9 -15 -12 5 -4 130 26 294 70 91 24 326 78 400 91 17
3 80 14 140 24 91 16 274 40 323 43 6 0 12 4 12 9 0 8 -13 11 -21 4z m-659
-90 c0 -3 -4 -8 -10 -11 -5 -3 -10 -1 -10 4 0 6 5 11 10 11 6 0 10 -2 10 -4z"/>
<path d="M4508 7383 c18 -2 45 -2 60 0 15 2 0 4 -33 4 -33 0 -45 -2 -27 -4z"/>
<path d="M3895 7370 c-11 -4 -23 -6 -27 -3 -5 2 -8 -1 -8 -7 0 -11 47 -6 59 6
9 9 -5 11 -24 4z"/>
<path d="M3940 7369 c0 -5 5 -7 10 -4 6 3 10 8 10 11 0 2 -4 4 -10 4 -5 0 -10
-5 -10 -11z"/>
<path d="M7403 7290 c0 -36 2 -50 4 -32 2 17 2 47 0 65 -2 17 -4 3 -4 -33z"/>
<path d="M5070 7320 c0 -5 5 -10 11 -10 5 0 7 5 4 10 -3 6 -8 10 -11 10 -2 0
-4 -4 -4 -10z"/>
<path d="M4238 7313 c7 -3 16 -2 19 1 4 3 -2 6 -13 5 -11 0 -14 -3 -6 -6z"/>
<path d="M4478 7313 c6 -2 18 -2 25 0 6 3 1 5 -13 5 -14 0 -19 -2 -12 -5z"/>
<path d="M5345 7310 c6 -10 3 -12 -14 -7 -18 4 -20 3 -11 -8 7 -8 9 -23 5 -35
-4 -12 -2 -20 5 -20 7 0 10 -6 7 -14 -3 -8 2 -16 15 -19 27 -7 48 2 42 18 -9
22 13 26 51 11 19 -8 35 -14 35 -12 0 2 -25 20 -56 40 -31 21 -53 33 -50 27 4
-7 1 -8 -8 -5 -9 3 -14 10 -11 14 3 5 0 12 -6 16 -8 5 -9 3 -4 -6z"/>
<path d="M4128 7303 c6 -2 18 -2 25 0 6 3 1 5 -13 5 -14 0 -19 -2 -12 -5z"/>
<path d="M4058 7293 c6 -2 18 -2 25 0 6 3 1 5 -13 5 -14 0 -19 -2 -12 -5z"/>
<path d="M4600 7288 c-12 -8 -12 -9 2 -5 9 3 19 1 22 -6 3 -9 5 -9 5 0 1 18
-13 23 -29 11z"/>
<path d="M5185 7280 c3 -5 8 -10 11 -10 2 0 4 5 4 10 0 6 -5 10 -11 10 -5 0
-7 -4 -4 -10z"/>
<path d="M2760 7211 c0 -17 4 -32 8 -35 4 -2 6 11 4 30 -5 42 -12 45 -12 5z"/>
<path d="M4468 7233 c7 -3 16 -2 19 1 4 3 -2 6 -13 5 -11 0 -14 -3 -6 -6z"/>
<path d="M4153 7193 c9 -2 25 -2 35 0 9 3 1 5 -18 5 -19 0 -27 -2 -17 -5z"/>
<path d="M7753 7165 c0 -22 2 -30 4 -17 2 12 2 30 0 40 -3 9 -5 -1 -4 -23z"/>
<path d="M4038 7183 c7 -3 16 -2 19 1 4 3 -2 6 -13 5 -11 0 -14 -3 -6 -6z"/>
<path d="M3888 7163 c7 -3 16 -2 19 1 4 3 -2 6 -13 5 -11 0 -14 -3 -6 -6z"/>
<path d="M4529 7143 c-17 -46 -39 -135 -39 -161 0 -37 26 -10 35 36 4 20 13
49 21 64 8 15 14 36 14 46 0 11 7 22 15 26 20 7 19 -22 0 -48 -8 -11 -15 -25
-15 -30 0 -14 35 44 44 72 7 20 4 22 -29 22 -30 0 -37 -5 -46 -27z"/>
<path d="M8071 7154 c0 -11 3 -14 6 -6 3 7 2 16 -1 19 -3 4 -6 -2 -5 -13z"/>
<path d="M4669 7133 c-13 -16 -12 -17 4 -4 9 7 17 15 17 17 0 8 -8 3 -21 -13z"/>
<path d="M4877 7109 c-38 -20 -84 -70 -98 -107 -5 -14 -12 -55 -15 -91 l-5
-66 24 50 c14 29 54 78 94 117 46 44 65 69 57 72 -8 3 -14 -1 -14 -9 0 -8 -9
-19 -20 -25 -12 -6 -20 -7 -20 -1 0 5 5 11 10 13 6 2 12 13 13 25 0 12 4 21 7
21 17 -1 30 3 30 10 0 14 -25 10 -63 -9z"/>
<path d="M7403 7065 c0 -38 2 -53 4 -32 2 20 2 52 0 70 -2 17 -4 1 -4 -38z"/>
<path d="M4955 7110 c3 -5 12 -10 20 -10 8 0 17 5 20 10 4 6 -5 10 -20 10 -15
0 -24 -4 -20 -10z"/>
<path d="M2672 7070 c0 -14 2 -19 5 -12 2 6 2 18 0 25 -3 6 -5 1 -5 -13z"/>
<path d="M7741 7074 c0 -11 3 -14 6 -6 3 7 2 16 -1 19 -3 4 -6 -2 -5 -13z"/>
<path d="M4427 7051 c-3 -15 -3 -39 1 -52 6 -23 6 -23 13 6 10 45 10 75 0 75
-5 0 -11 -13 -14 -29z"/>
<path d="M4115 7060 c-13 -6 -15 -9 -5 -9 8 0 22 4 30 9 18 12 2 12 -25 0z"/>
<path d="M5023 7031 c-81 -63 -240 -220 -264 -257 -20 -32 -20 -36 -5 -53 9
-10 13 -21 9 -26 -5 -4 2 -5 13 -1 22 7 77 -12 70 -23 -2 -3 10 -7 28 -8 43
-2 209 -81 200 -95 -4 -7 -3 -8 4 -4 7 4 12 2 12 -3 0 -6 11 -10 25 -9 14 1
25 3 25 4 0 14 -279 154 -307 154 -50 0 3 63 191 226 l79 68 41 -23 c76 -43
343 -181 349 -181 24 0 -8 24 -115 88 -68 40 -134 82 -148 93 l-25 19 27 -9
c15 -6 50 -22 78 -36 29 -15 49 -22 46 -17 -7 11 -227 119 -260 128 -16 4 -36
-6 -73 -35z"/>
<path d="M4045 7040 c-7 -12 2 -12 30 0 19 8 19 9 -2 9 -12 1 -25 -3 -28 -9z"/>
<path d="M7952 7030 c0 -14 2 -19 5 -12 2 6 2 18 0 25 -3 6 -5 1 -5 -13z"/>
<path d="M3980 7030 c-24 -8 -24 -8 7 -9 17 -1 35 4 38 9 7 11 -9 11 -45 0z"/>
<path d="M4105 7024 c-44 -8 -100 -16 -125 -19 -54 -7 -108 -23 -115 -34 -2
-5 6 -7 18 -5 99 15 162 22 168 18 4 -2 9 0 11 6 2 6 32 15 68 21 35 5 66 12
68 14 11 11 -23 10 -93 -1z"/>
<path d="M4534 6991 c-5 -22 -15 -36 -30 -42 -31 -11 -31 -19 0 -19 19 0 25 7
34 42 6 23 9 44 7 47 -3 2 -8 -10 -11 -28z"/>
<path d="M3848 6993 c-10 -2 -18 -9 -18 -14 0 -6 -3 -8 -8 -6 -11 8 -116 -13
-127 -25 -10 -9 36 -5 95 9 14 4 29 5 34 4 5 -1 12 2 15 7 3 5 15 14 26 20 20
12 14 13 -17 5z"/>
<path d="M5380 6996 c0 -2 7 -7 16 -10 8 -3 12 -2 9 4 -6 10 -25 14 -25 6z"/>
<path d="M4412 6975 c0 -11 4 -33 8 -50 l8 -30 0 30 c0 17 -3 39 -8 50 l-9 20
1 -20z"/>
<path d="M4140 6970 l-35 -7 32 -2 c17 0 35 4 38 9 3 6 5 9 3 9 -2 -1 -19 -5
-38 -9z"/>
<path d="M7941 6964 c0 -11 3 -14 6 -6 3 7 2 16 -1 19 -3 4 -6 -2 -5 -13z"/>
<path d="M2520 6925 c-24 -25 -42 -45 -39 -45 3 0 25 20 49 45 24 25 42 45 39
45 -3 0 -25 -20 -49 -45z"/>
<path d="M4687 6935 c-4 -22 -9 -110 -12 -195 -3 -106 -2 -140 4 -108 5 26 12
52 16 57 3 6 0 11 -7 12 -9 0 -9 2 2 7 13 6 14 28 10 137 -4 99 -7 121 -13 90z"/>
<path d="M4033 6953 c9 -2 23 -2 30 0 6 3 -1 5 -18 5 -16 0 -22 -2 -12 -5z"/>
<path d="M3645 6940 c3 -5 12 -7 20 -3 21 7 19 13 -6 13 -11 0 -18 -4 -14 -10z"/>
<path d="M3579 6935 c-2 -2 -62 -15 -133 -30 -71 -14 -133 -28 -138 -31 -5 -3
-16 0 -24 7 -12 10 -13 9 -8 -7 4 -10 4 -16 0 -13 -4 4 -32 0 -63 -8 -30 -8
-58 -12 -61 -9 -3 3 2 6 11 6 9 0 17 5 17 10 0 11 -11 13 -34 4 -9 -3 -12 -12
-9 -22 5 -12 2 -14 -11 -9 -9 4 -15 3 -12 -2 3 -5 -1 -12 -10 -15 -22 -8 -26
-8 -19 4 3 5 -7 3 -22 -5 -15 -8 -34 -15 -40 -15 -7 0 -13 -4 -13 -10 0 -12
45 -4 140 25 110 33 185 52 275 70 119 23 181 40 169 48 -6 3 -13 5 -15 2z"/>
<path d="M3610 6929 c0 -5 5 -7 10 -4 6 3 10 8 10 11 0 2 -4 4 -10 4 -5 0 -10
-5 -10 -11z"/>
<path d="M3390 6920 c-9 -6 -10 -10 -3 -10 6 0 15 5 18 10 8 12 4 12 -15 0z"/>
<path d="M4292 6910 c0 -14 2 -19 5 -12 2 6 2 18 0 25 -3 6 -5 1 -5 -13z"/>
<path d="M5065 6869 c-28 -27 -71 -67 -97 -87 -27 -20 -48 -41 -48 -47 0 -12
637 -331 646 -323 3 4 -5 13 -18 21 -12 7 -66 41 -119 75 -95 61 -396 223
-437 236 -12 4 -22 12 -22 17 0 13 33 11 55 -4 11 -8 43 -22 70 -32 28 -10 63
-27 78 -38 16 -10 30 -17 33 -14 3 3 -37 29 -88 58 -51 29 -95 54 -97 56 -3 2
2 10 10 18 13 13 31 7 154 -56 77 -39 155 -82 173 -96 l32 -24 0 75 0 75 -42
29 c-70 47 -194 112 -215 112 -10 0 -41 -23 -68 -51z"/>
<path d="M3328 6903 c7 -3 16 -2 19 1 4 3 -2 6 -13 5 -11 0 -14 -3 -6 -6z"/>
<path d="M4461 6894 c0 -11 3 -14 6 -6 3 7 2 16 -1 19 -3 4 -6 -2 -5 -13z"/>
<path d="M4123 6883 c9 -2 23 -2 30 0 6 3 -1 5 -18 5 -16 0 -22 -2 -12 -5z"/>
<path d="M3578 6873 c7 -3 16 -2 19 1 4 3 -2 6 -13 5 -11 0 -14 -3 -6 -6z"/>
<path d="M3998 6873 c6 -2 18 -2 25 0 6 3 1 5 -13 5 -14 0 -19 -2 -12 -5z"/>
<path d="M4592 6850 c0 -19 2 -27 5 -17 2 9 2 25 0 35 -3 9 -5 1 -5 -18z"/>
<path d="M3828 6853 c7 -3 16 -2 19 1 4 3 -2 6 -13 5 -11 0 -14 -3 -6 -6z"/>
<path d="M4170 6845 c-41 -10 -48 -13 -25 -14 17 0 46 3 64 9 33 9 51 7 39 -5
-3 -3 -72 -17 -154 -30 -82 -14 -158 -28 -169 -32 -35 -12 45 -23 86 -12 20 5
84 10 142 11 100 3 121 8 97 23 -7 4 -7 13 0 26 12 21 5 40 -13 38 -7 -1 -37
-7 -67 -14z"/>
<path d="M4391 6844 c0 -11 3 -14 6 -6 3 7 2 16 -1 19 -3 4 -6 -2 -5 -13z"/>
<path d="M7735 6772 c-22 -48 -55 -109 -72 -136 -18 -26 -33 -50 -33 -53 0 -2
16 8 35 23 44 33 78 90 100 167 27 93 13 93 -30 -1z"/>
<path d="M5900 6843 c8 -3 24 -13 35 -22 20 -16 20 -16 1 7 -11 12 -26 22 -35
21 -14 0 -14 -1 -1 -6z"/>
<path d="M4522 6820 c0 -14 2 -19 5 -12 2 6 2 18 0 25 -3 6 -5 1 -5 -13z"/>
<path d="M5666 6818 c-8 -31 -8 -38 3 -38 12 0 22 43 12 53 -5 5 -11 -2 -15
-15z"/>
<path d="M4073 6823 c9 -2 23 -2 30 0 6 3 -1 5 -18 5 -16 0 -22 -2 -12 -5z"/>
<path d="M4282 6800 c0 -14 2 -19 5 -12 2 6 2 18 0 25 -3 6 -5 1 -5 -13z"/>
<path d="M5623 6785 c0 -22 2 -30 4 -17 2 12 2 30 0 40 -3 9 -5 -1 -4 -23z"/>
<path d="M3248 6803 c7 -3 16 -2 19 1 4 3 -2 6 -13 5 -11 0 -14 -3 -6 -6z"/>
<path d="M4413 6755 c0 -33 2 -45 4 -27 2 18 2 45 0 60 -2 15 -4 0 -4 -33z"/>
<path d="M3208 6793 c7 -3 16 -2 19 1 4 3 -2 6 -13 5 -11 0 -14 -3 -6 -6z"/>
<path d="M3168 6783 c7 -3 16 -2 19 1 4 3 -2 6 -13 5 -11 0 -14 -3 -6 -6z"/>
<path d="M4383 6740 c0 -30 2 -43 4 -27 2 15 2 39 0 55 -2 15 -4 2 -4 -28z"/>
<path d="M6572 6770 c0 -14 2 -19 5 -12 2 6 2 18 0 25 -3 6 -5 1 -5 -13z"/>
<path d="M5698 6763 c7 -3 16 -2 19 1 4 3 -2 6 -13 5 -11 0 -14 -3 -6 -6z"/>
<path d="M7351 6754 c0 -11 3 -14 6 -6 3 7 2 16 -1 19 -3 4 -6 -2 -5 -13z"/>
<path d="M3782 6746 c-83 -17 -51 -25 36 -9 42 8 79 17 81 19 8 8 -64 2 -117
-10z"/>
<path d="M4163 6753 c9 -2 25 -2 35 0 9 3 1 5 -18 5 -19 0 -27 -2 -17 -5z"/>
<path d="M5764 6670 c0 -52 1 -74 3 -47 2 26 2 68 0 95 -2 26 -3 4 -3 -48z"/>
<path d="M4078 6743 c6 -2 18 -2 25 0 6 3 1 5 -13 5 -14 0 -19 -2 -12 -5z"/>
<path d="M5583 6700 c0 -30 2 -43 4 -27 2 15 2 39 0 55 -2 15 -4 2 -4 -28z"/>
<path d="M3688 6723 c6 -2 18 -2 25 0 6 3 1 5 -13 5 -14 0 -19 -2 -12 -5z"/>
<path d="M3898 6723 c7 -3 16 -2 19 1 4 3 -2 6 -13 5 -11 0 -14 -3 -6 -6z"/>
<path d="M3938 6723 c7 -3 16 -2 19 1 4 3 -2 6 -13 5 -11 0 -14 -3 -6 -6z"/>
<path d="M7885 6720 c3 -5 8 -10 11 -10 2 0 4 5 4 10 0 6 -5 10 -11 10 -5 0
-7 -4 -4 -10z"/>
<path d="M3768 6703 c6 -2 18 -2 25 0 6 3 1 5 -13 5 -14 0 -19 -2 -12 -5z"/>
<path d="M5673 6665 c0 -27 2 -38 4 -22 2 15 2 37 0 50 -2 12 -4 0 -4 -28z"/>
<path d="M6582 6690 c0 -14 2 -19 5 -12 2 6 2 18 0 25 -3 6 -5 1 -5 -13z"/>
<path d="M3518 6663 c7 -3 16 -2 19 1 4 3 -2 6 -13 5 -11 0 -14 -3 -6 -6z"/>
<path d="M2644 6638 l-19 -23 23 19 c21 18 27 26 19 26 -2 0 -12 -10 -23 -22z"/>
<path d="M7082 6635 c0 -16 2 -22 5 -12 2 9 2 23 0 30 -3 6 -5 -1 -5 -18z"/>
<path d="M3418 6643 c7 -3 16 -2 19 1 4 3 -2 6 -13 5 -11 0 -14 -3 -6 -6z"/>
<path d="M3358 6633 c7 -3 16 -2 19 1 4 3 -2 6 -13 5 -11 0 -14 -3 -6 -6z"/>
<path d="M6045 6620 c10 -11 20 -20 23 -20 3 0 -3 9 -13 20 -10 11 -20 20 -23
20 -3 0 3 -9 13 -20z"/>
<path d="M6140 6637 c0 -2 15 -16 33 -33 l32 -29 -29 33 c-28 30 -36 37 -36
29z"/>
<path d="M7221 6614 c0 -11 3 -14 6 -6 3 7 2 16 -1 19 -3 4 -6 -2 -5 -13z"/>
<path d="M5967 6428 c-7 -221 -3 -1016 6 -1024 3 -3 70 -32 149 -64 139 -56
143 -57 160 -39 9 11 21 19 27 19 31 0 -2 23 -130 91 -138 72 -174 101 -167
134 2 12 35 0 162 -60 184 -86 200 -93 194 -74 -3 8 -83 55 -179 104 l-174 90
-3 63 c-3 62 -3 64 20 57 13 -4 108 -52 211 -107 184 -98 243 -120 155 -60
-57 39 -365 212 -378 212 -6 0 -10 26 -10 60 0 33 2 60 5 60 3 0 37 -21 77
-46 39 -25 141 -86 227 -136 86 -49 161 -94 168 -100 9 -7 16 1 28 27 19 48
19 47 -10 65 -96 59 -445 301 -472 328 -35 34 -42 52 -20 52 15 0 344 -200
466 -283 24 -17 41 -24 36 -17 -4 7 -107 78 -229 159 -303 200 -278 176 -274
257 l3 67 50 -39 c57 -45 225 -162 210 -146 -15 15 -156 132 -213 177 -50 39
-51 41 -52 94 l0 53 63 -58 c34 -33 98 -88 142 -124 44 -35 85 -71 92 -80 10
-13 12 -10 18 15 3 17 10 40 15 52 9 21 -7 38 -159 173 -139 125 -170 158
-180 191 -6 21 -15 39 -20 39 -4 0 -11 -82 -14 -182z"/>
<path d="M6781 6594 c0 -11 3 -14 6 -6 3 7 2 16 -1 19 -3 4 -6 -2 -5 -13z"/>
<path d="M3945 6591 c24 -6 13 -10 -60 -20 -49 -7 -124 -20 -165 -28 -41 -8
-115 -21 -165 -28 -146 -23 -153 -25 -177 -34 -13 -4 -29 -6 -35 -4 -8 3 -13
-4 -13 -15 0 -15 5 -18 25 -14 14 2 25 7 25 11 0 4 12 6 26 6 14 -1 87 7 162
17 75 10 155 21 177 24 22 3 51 7 65 11 54 12 138 21 194 22 87 1 61 17 -34
21 -38 2 -41 3 -20 10 14 4 52 9 85 10 50 2 55 4 30 10 -16 4 -57 8 -90 8 -44
0 -52 -2 -30 -7z"/>
<path d="M5582 6504 c-1 -73 2 -105 11 -112 10 -8 13 -6 14 11 2 17 0 19 -7 7
-6 -10 -10 21 -13 90 l-3 105 -2 -101z"/>
<path d="M5681 6584 c0 -11 3 -14 6 -6 3 7 2 16 -1 19 -3 4 -6 -2 -5 -13z"/>
<path d="M3788 6583 c6 -2 18 -2 25 0 6 3 1 5 -13 5 -14 0 -19 -2 -12 -5z"/>
<path d="M3718 6573 c7 -3 16 -2 19 1 4 3 -2 6 -13 5 -11 0 -14 -3 -6 -6z"/>
<path d="M5600 6538 c0 -32 3 -39 10 -28 13 20 13 70 0 70 -5 0 -10 -19 -10
-42z"/>
<path d="M3638 6563 c7 -3 16 -2 19 1 4 3 -2 6 -13 5 -11 0 -14 -3 -6 -6z"/>
<path d="M6110 6566 c0 -2 8 -10 18 -17 15 -13 16 -12 3 4 -13 16 -21 21 -21
13z"/>
<path d="M3548 6553 c6 -2 18 -2 25 0 6 3 1 5 -13 5 -14 0 -19 -2 -12 -5z"/>
<path d="M4208 6553 c12 -2 32 -2 45 0 12 2 2 4 -23 4 -25 0 -35 -2 -22 -4z"/>
<path d="M6250 6537 c0 -2 15 -16 33 -33 l32 -29 -29 33 c-28 30 -36 37 -36
29z"/>
<path d="M6185 6500 c10 -11 20 -20 23 -20 3 0 -3 9 -13 20 -10 11 -20 20 -23
20 -3 0 3 -9 13 -20z"/>
<path d="M6581 6504 c0 -11 3 -14 6 -6 3 7 2 16 -1 19 -3 4 -6 -2 -5 -13z"/>
<path d="M3258 6503 c7 -3 16 -2 19 1 4 3 -2 6 -13 5 -11 0 -14 -3 -6 -6z"/>
<path d="M4584 6320 c0 -107 2 -151 3 -97 2 53 2 141 0 195 -1 53 -3 9 -3 -98z"/>
<path d="M3198 6493 c7 -3 16 -2 19 1 4 3 -2 6 -13 5 -11 0 -14 -3 -6 -6z"/>
<path d="M4133 6493 c9 -2 23 -2 30 0 6 3 -1 5 -18 5 -16 0 -22 -2 -12 -5z"/>
<path d="M4028 6483 c7 -3 16 -2 19 1 4 3 -2 6 -13 5 -11 0 -14 -3 -6 -6z"/>
<path d="M3918 6473 c7 -3 16 -2 19 1 4 3 -2 6 -13 5 -11 0 -14 -3 -6 -6z"/>
<path d="M3300 6464 c0 -5 -20 -10 -44 -10 -75 -2 -196 -33 -196 -51 0 -12 7
-14 28 -10 15 4 59 13 97 21 39 9 79 16 90 16 33 1 52 17 37 32 -6 6 -12 8
-12 2z"/>
<path d="M3748 6453 c6 -2 18 -2 25 0 6 3 1 5 -13 5 -14 0 -19 -2 -12 -5z"/>
<path d="M3688 6443 c7 -3 16 -2 19 1 4 3 -2 6 -13 5 -11 0 -14 -3 -6 -6z"/>
<path d="M6270 6425 c13 -14 26 -25 28 -25 3 0 -5 11 -18 25 -13 14 -26 25
-28 25 -3 0 5 -11 18 -25z"/>
<path d="M3618 6433 c7 -3 16 -2 19 1 4 3 -2 6 -13 5 -11 0 -14 -3 -6 -6z"/>
<path d="M5040 6421 c0 -11 4 -22 9 -25 4 -3 6 6 3 19 -5 30 -12 33 -12 6z"/>
<path d="M7384 6418 l-19 -23 23 19 c21 18 27 26 19 26 -2 0 -12 -10 -23 -22z"/>
<path d="M4973 6405 c7 -14 16 -25 20 -25 9 0 -9 36 -22 44 -5 4 -4 -5 2 -19z"/>
<path d="M3000 6402 c-37 -12 -41 -16 -25 -22 11 -4 21 -4 23 1 2 4 9 6 15 4
16 -6 41 10 36 22 -3 6 -22 4 -49 -5z"/>
<path d="M2661 6387 c-13 -21 -12 -21 5 -5 10 10 16 20 13 22 -3 3 -11 -5 -18
-17z"/>
<path d="M3388 6393 c7 -3 16 -2 19 1 4 3 -2 6 -13 5 -11 0 -14 -3 -6 -6z"/>
<path d="M3328 6383 c6 -2 18 -2 25 0 6 3 1 5 -13 5 -14 0 -19 -2 -12 -5z"/>
<path d="M2885 6360 c-3 -5 -1 -10 4 -10 6 0 11 5 11 10 0 6 -2 10 -4 10 -3 0
-8 -4 -11 -10z"/>
<path d="M6562 6350 c0 -14 2 -19 5 -12 2 6 2 18 0 25 -3 6 -5 1 -5 -13z"/>
<path d="M2764 6338 l-19 -23 23 19 c21 18 27 26 19 26 -2 0 -12 -10 -23 -22z"/>
<path d="M4993 6325 c0 -22 2 -30 4 -17 2 12 2 30 0 40 -3 9 -5 -1 -4 -23z"/>
<path d="M7071 6304 c0 -11 3 -14 6 -6 3 7 2 16 -1 19 -3 4 -6 -2 -5 -13z"/>
<path d="M3895 6300 c3 -5 8 -10 11 -10 2 0 4 5 4 10 0 6 -5 10 -11 10 -5 0
-7 -4 -4 -10z"/>
<path d="M3947 6303 c-4 -3 -7 -11 -7 -17 0 -6 5 -5 12 2 6 6 9 14 7 17 -3 3
-9 2 -12 -2z"/>
<path d="M5090 6297 c-9 -10 1 -357 10 -357 6 0 9 36 9 83 -2 116 -13 280 -19
274z"/>
<path d="M3919 6285 c-1 -3 -2 -8 -3 -12 -1 -5 -5 -15 -10 -23 -7 -12 -6 -13
4 -3 13 12 23 43 14 43 -2 0 -5 -2 -5 -5z"/>
<path d="M3728 6273 c6 -2 18 -2 25 0 6 3 1 5 -13 5 -14 0 -19 -2 -12 -5z"/>
<path d="M5154 6115 c0 -93 2 -133 3 -88 2 45 2 122 0 170 -1 48 -3 12 -3 -82z"/>
<path d="M3658 6263 c7 -3 16 -2 19 1 4 3 -2 6 -13 5 -11 0 -14 -3 -6 -6z"/>
<path d="M3839 6250 c-13 -10 -20 -19 -15 -20 5 0 -1 -12 -15 -27 l-24 -28 30
25 c17 14 35 28 40 33 6 4 1 5 -10 2 -16 -6 -16 -3 5 14 14 11 22 21 19 21 -4
0 -17 -9 -30 -20z"/>
<path d="M5034 6108 c0 -93 4 -168 8 -168 9 0 9 165 -1 265 -5 51 -7 24 -7
-97z"/>
<path d="M7061 6254 c0 -11 3 -14 6 -6 3 7 2 16 -1 19 -3 4 -6 -2 -5 -13z"/>
<path d="M2691 6244 c0 -11 3 -14 6 -6 3 7 2 16 -1 19 -3 4 -6 -2 -5 -13z"/>
<path d="M3528 6243 c6 -2 18 -2 25 0 6 3 1 5 -13 5 -14 0 -19 -2 -12 -5z"/>
<path d="M6431 6234 c0 -11 3 -14 6 -6 3 7 2 16 -1 19 -3 4 -6 -2 -5 -13z"/>
<path d="M2719 6223 c-13 -17 -13 -17 6 -3 11 8 22 16 24 17 2 2 0 3 -6 3 -6
0 -17 -8 -24 -17z"/>
<path d="M3358 6223 c7 -3 16 -2 19 1 4 3 -2 6 -13 5 -11 0 -14 -3 -6 -6z"/>
<path d="M7397 6211 c-4 -17 -3 -21 5 -13 5 5 8 16 6 23 -3 8 -7 3 -11 -10z"/>
<path d="M3308 6213 c7 -3 16 -2 19 1 4 3 -2 6 -13 5 -11 0 -14 -3 -6 -6z"/>
<path d="M3178 6193 c7 -3 16 -2 19 1 4 3 -2 6 -13 5 -11 0 -14 -3 -6 -6z"/>
<path d="M3829 6183 c-13 -16 -12 -17 4 -4 16 13 21 21 13 21 -2 0 -10 -8 -17
-17z"/>
<path d="M5258 5888 l2 -313 30 -6 c20 -4 27 -3 23 5 -8 13 -8 10 -18 289 -4
114 -5 207 -3 207 1 0 50 -18 108 -40 58 -22 109 -40 115 -40 5 0 -43 29 -108
64 -123 65 -145 81 -134 92 4 4 58 -16 121 -44 132 -61 166 -67 82 -16 -52 31
-210 114 -218 114 -2 0 -2 -141 0 -312z"/>
<path d="M4991 6174 c0 -11 3 -14 6 -6 3 7 2 16 -1 19 -3 4 -6 -2 -5 -13z"/>
<path d="M3350 6164 c-17 -9 -20 -14 -9 -14 9 0 22 7 29 15 15 18 13 18 -20
-1z"/>
<path d="M7398 5633 c1 -296 3 -608 5 -693 1 -85 4 157 5 538 1 380 -1 692 -5
692 -5 0 -7 -242 -5 -537z"/>
<path d="M2562 6135 c0 -16 2 -22 5 -12 2 9 2 23 0 30 -3 6 -5 -1 -5 -18z"/>
<path d="M2968 6153 c7 -3 16 -2 19 1 4 3 -2 6 -13 5 -11 0 -14 -3 -6 -6z"/>
<path d="M3302 6148 c2 -7 -4 -12 -13 -12 -9 1 -16 -4 -16 -11 0 -8 7 -11 15
-7 11 4 13 1 7 -9 -5 -8 -5 -11 1 -6 5 5 9 12 9 15 0 4 4 12 8 19 4 6 3 15 -3
18 -6 4 -9 1 -8 -7z"/>
<path d="M3461 6144 c0 -11 3 -14 6 -6 3 7 2 16 -1 19 -3 4 -6 -2 -5 -13z"/>
<path d="M3779 6143 c-13 -16 -12 -17 4 -4 9 7 17 15 17 17 0 8 -8 3 -21 -13z"/>
<path d="M6422 6135 c0 -16 2 -22 5 -12 2 9 2 23 0 30 -3 6 -5 -1 -5 -18z"/>
<path d="M3243 6113 c4 -3 1 -13 -6 -22 -11 -14 -10 -14 5 -2 16 12 16 31 1
31 -4 0 -3 -3 0 -7z"/>
<path d="M3451 6084 c0 -11 3 -14 6 -6 3 7 2 16 -1 19 -3 4 -6 -2 -5 -13z"/>
<path d="M2489 6063 l-24 -28 28 24 c25 23 32 31 24 31 -2 0 -14 -12 -28 -27z"/>
<path d="M3249 6073 c-13 -16 -12 -17 4 -4 16 13 21 21 13 21 -2 0 -10 -8 -17
-17z"/>
<path d="M6530 6055 c19 -19 36 -35 39 -35 3 0 -10 16 -29 35 -19 19 -36 35
-39 35 -3 0 10 -16 29 -35z"/>
<path d="M5580 5929 c0 -84 3 -149 6 -146 11 10 13 286 3 292 -5 4 -9 -56 -9
-146z"/>
<path d="M6411 6064 c0 -11 3 -14 6 -6 3 7 2 16 -1 19 -3 4 -6 -2 -5 -13z"/>
<path d="M5613 5803 c0 -150 4 -270 9 -267 10 6 9 335 -1 454 -6 59 -8 2 -8
-187z"/>
<path d="M3441 6034 c0 -11 3 -14 6 -6 3 7 2 16 -1 19 -3 4 -6 -2 -5 -13z"/>
<path d="M5003 5985 c0 -33 2 -45 4 -27 2 18 2 45 0 60 -2 15 -4 0 -4 -33z"/>
<path d="M6400 6014 c0 -8 5 -12 10 -9 6 4 8 11 5 16 -9 14 -15 11 -15 -7z"/>
<path d="M6510 5986 c0 -2 8 -10 18 -17 15 -13 16 -12 3 4 -13 16 -21 21 -21
13z"/>
<path d="M6630 5965 c13 -14 26 -25 28 -25 3 0 -5 11 -18 25 -13 14 -26 25
-28 25 -3 0 5 -11 18 -25z"/>
<path d="M3099 5953 c-13 -16 -12 -17 4 -4 9 7 17 15 17 17 0 8 -8 3 -21 -13z"/>
<path d="M3459 5953 c-13 -16 -12 -17 4 -4 9 7 17 15 17 17 0 8 -8 3 -21 -13z"/>
<path d="M4672 5950 c0 -14 2 -19 5 -12 2 6 2 18 0 25 -3 6 -5 1 -5 -13z"/>
<path d="M5329 5925 c-3 -27 -3 -106 0 -175 l6 -125 5 123 c3 68 3 146 0 175
l-6 52 -5 -50z"/>
<path d="M7209 5953 c-13 -16 -12 -17 4 -4 9 7 17 15 17 17 0 8 -8 3 -21 -13z"/>
<path d="M3421 5944 c0 -11 3 -14 6 -6 3 7 2 16 -1 19 -3 4 -6 -2 -5 -13z"/>
<path d="M4160 5929 c44 -4 79 -4 85 2 5 5 -23 8 -75 8 l-85 -2 75 -8z"/>
<path d="M6570 5936 c0 -2 8 -10 18 -17 15 -13 16 -12 3 4 -13 16 -21 21 -21
13z"/>
<path d="M3938 5923 c12 -2 32 -2 45 0 12 2 2 4 -23 4 -25 0 -35 -2 -22 -4z"/>
<path d="M3808 5913 c6 -2 18 -2 25 0 6 3 1 5 -13 5 -14 0 -19 -2 -12 -5z"/>
<path d="M4108 5913 c6 -2 18 -2 25 0 6 3 1 5 -13 5 -14 0 -19 -2 -12 -5z"/>
<path d="M5696 5825 c-5 -55 -7 -254 -4 -442 3 -207 2 -343 -4 -343 -5 0 -6
-5 -2 -11 3 -6 0 -15 -7 -20 -10 -6 -10 -9 -2 -9 30 0 33 43 31 482 -2 341 -5
420 -12 343z"/>
<path d="M3718 5903 c6 -2 18 -2 25 0 6 3 1 5 -13 5 -14 0 -19 -2 -12 -5z"/>
<path d="M4038 5903 c7 -3 16 -2 19 1 4 3 -2 6 -13 5 -11 0 -14 -3 -6 -6z"/>
<path d="M4560 5900 c-9 -6 -10 -10 -3 -10 6 0 15 5 18 10 8 12 4 12 -15 0z"/>
<path d="M2751 5884 c0 -11 3 -14 6 -6 3 7 2 16 -1 19 -3 4 -6 -2 -5 -13z"/>
<path d="M2931 5886 c-8 -10 -9 -16 -1 -21 5 -3 10 -5 11 -3 4 18 7 38 4 38
-1 0 -8 -6 -14 -14z"/>
<path d="M3448 5893 c-26 -7 -22 -18 6 -19 17 -1 23 2 19 12 -3 8 -6 13 -7 13
0 -1 -9 -3 -18 -6z"/>
<path d="M3618 5893 c6 -2 18 -2 25 0 6 3 1 5 -13 5 -14 0 -19 -2 -12 -5z"/>
<path d="M3948 5893 c6 -2 18 -2 25 0 6 3 1 5 -13 5 -14 0 -19 -2 -12 -5z"/>
<path d="M4358 5893 c7 -3 16 -2 19 1 4 3 -2 6 -13 5 -11 0 -14 -3 -6 -6z"/>
<path d="M5053 5893 c9 -2 23 -2 30 0 6 3 -1 5 -18 5 -16 0 -22 -2 -12 -5z"/>
<path d="M3538 5883 c7 -3 16 -2 19 1 4 3 -2 6 -13 5 -11 0 -14 -3 -6 -6z"/>
<path d="M3868 5883 c7 -3 16 -2 19 1 4 3 -2 6 -13 5 -11 0 -14 -3 -6 -6z"/>
<path d="M2024 5775 c0 -60 1 -84 3 -52 2 32 2 81 0 110 -2 29 -3 3 -3 -58z"/>
<path d="M3388 5863 c7 -3 16 -2 19 1 4 3 -2 6 -13 5 -11 0 -14 -3 -6 -6z"/>
<path d="M3618 5853 c7 -3 16 -2 19 1 4 3 -2 6 -13 5 -11 0 -14 -3 -6 -6z"/>
<path d="M4184 5838 l-19 -23 23 19 c21 18 27 26 19 26 -2 0 -12 -10 -23 -22z"/>
<path d="M4672 5840 c0 -14 2 -19 5 -12 2 6 2 18 0 25 -3 6 -5 1 -5 -13z"/>
<path d="M2869 5823 l-24 -26 27 19 c15 10 28 22 28 27 0 12 -5 8 -31 -20z"/>
<path d="M3258 5843 c7 -3 16 -2 19 1 4 3 -2 6 -13 5 -11 0 -14 -3 -6 -6z"/>
<path d="M3173 5833 c9 -2 23 -2 30 0 6 3 -1 5 -18 5 -16 0 -22 -2 -12 -5z"/>
<path d="M3848 5833 c6 -2 18 -2 25 0 6 3 1 5 -13 5 -14 0 -19 -2 -12 -5z"/>
<path d="M4378 5823 c7 -3 16 -2 19 1 4 3 -2 6 -13 5 -11 0 -14 -3 -6 -6z"/>
<path d="M4691 5801 c0 -16 3 -20 6 -11 3 8 10 20 14 26 5 7 3 11 -6 11 -10 0
-15 -10 -14 -26z"/>
<path d="M2741 5804 c0 -11 3 -14 6 -6 3 7 2 16 -1 19 -3 4 -6 -2 -5 -13z"/>
<path d="M2945 5810 c27 -12 43 -12 25 0 -8 5 -22 9 -30 9 -10 0 -8 -3 5 -9z"/>
<path d="M4318 5813 c7 -3 16 -2 19 1 4 3 -2 6 -13 5 -11 0 -14 -3 -6 -6z"/>
<path d="M3618 5803 c6 -2 18 -2 25 0 6 3 1 5 -13 5 -14 0 -19 -2 -12 -5z"/>
<path d="M4161 5794 c0 -11 3 -14 6 -6 3 7 2 16 -1 19 -3 4 -6 -2 -5 -13z"/>
<path d="M4270 5806 c0 -2 9 -6 20 -9 11 -3 18 -1 14 4 -5 9 -34 13 -34 5z"/>
<path d="M2896 5791 c-4 -5 3 -7 14 -4 23 6 26 13 6 13 -8 0 -17 -4 -20 -9z"/>
<path d="M4522 5775 c0 -16 2 -22 5 -12 2 9 2 23 0 30 -3 6 -5 -1 -5 -18z"/>
<path d="M4810 5790 c8 -5 20 -10 25 -10 6 0 3 5 -5 10 -8 5 -19 10 -25 10 -5
0 -3 -5 5 -10z"/>
<path d="M3488 5783 c6 -2 18 -2 25 0 6 3 1 5 -13 5 -14 0 -19 -2 -12 -5z"/>
<path d="M3770 5761 c-133 -27 -307 -57 -385 -67 -22 -2 -71 -11 -110 -18 -38
-8 -92 -17 -120 -20 -27 -3 -60 -8 -71 -10 -12 -2 -38 -7 -58 -10 -20 -3 -55
-10 -78 -15 -23 -6 -45 -6 -48 -2 -8 14 -84 31 -93 22 -4 -4 -7 -37 -5 -72 l3
-64 35 1 c19 0 112 13 205 28 94 15 202 31 240 36 210 27 387 49 440 54 33 4
79 9 103 12 23 4 42 2 42 -3 0 -5 -48 -18 -107 -30 l-108 -22 80 5 c44 3 99 7
123 11 23 3 42 1 42 -4 0 -15 -297 -70 -725 -132 -256 -38 -260 -38 -281 -20
-22 21 -79 41 -88 31 -3 -3 -6 -43 -6 -89 0 -94 -7 -89 100 -73 36 6 135 19
220 30 85 11 200 27 255 35 105 15 341 40 460 49 90 7 67 -7 -45 -28 -47 -9
-105 -20 -130 -25 -42 -9 -41 -10 20 -6 36 3 99 7 140 11 109 9 79 -11 -50
-35 -112 -21 -365 -61 -415 -66 -75 -7 -430 -57 -434 -61 -3 -2 -16 7 -31 21
-14 13 -40 28 -58 31 l-32 7 0 -88 0 -88 73 6 c39 3 194 19 342 37 259 30 587
60 650 60 40 -1 15 -16 -40 -24 -104 -16 -165 -28 -165 -33 0 -3 17 -2 38 1
73 12 207 17 197 8 -13 -12 -150 -38 -300 -57 -66 -8 -134 -17 -151 -20 -18
-2 -87 -11 -155 -19 -68 -8 -158 -20 -199 -25 -117 -15 -193 -16 -198 -3 -5
15 -55 42 -77 42 -12 0 -15 -15 -15 -90 l0 -90 33 0 c17 0 102 9 187 19 241
30 786 82 858 81 38 0 -14 -20 -70 -26 -85 -10 -71 -21 18 -16 53 3 75 1 70
-6 -4 -6 -13 -9 -21 -5 -8 3 -15 0 -15 -6 0 -6 -12 -11 -27 -11 -16 0 -62 -6
-103 -14 -71 -14 -271 -37 -600 -71 -80 -8 -164 -17 -187 -20 -29 -3 -45 0
-50 9 -11 18 -47 36 -72 36 -19 0 -21 -6 -21 -59 0 -33 5 -72 10 -86 10 -26
12 -26 83 -23 39 3 200 16 357 31 157 14 377 32 489 41 112 8 207 18 212 23 5
5 8 227 6 503 l-2 495 -25 2 c-14 1 -86 -11 -160 -26z"/>
<path d="M4328 5783 c7 -3 16 -2 19 1 4 3 -2 6 -13 5 -11 0 -14 -3 -6 -6z"/>
<path d="M7085 5770 c10 -11 20 -20 23 -20 3 0 -3 9 -13 20 -10 11 -20 20 -23
20 -3 0 3 -9 13 -20z"/>
<path d="M3408 5773 c7 -3 16 -2 19 1 4 3 -2 6 -13 5 -11 0 -14 -3 -6 -6z"/>
<path d="M4672 5730 c0 -19 2 -27 5 -17 2 9 2 25 0 35 -3 9 -5 1 -5 -18z"/>
<path d="M2254 5645 c0 -60 1 -84 3 -52 2 32 2 81 0 110 -2 29 -3 3 -3 -58z"/>
<path d="M6983 5711 c-17 -21 -18 -29 -8 -37 7 -5 56 -44 108 -87 91 -75 117
-86 117 -50 0 16 -151 177 -181 193 -12 7 -21 2 -36 -19z"/>
<path d="M4604 5603 c2 -73 0 -133 -5 -133 -5 0 -8 -64 -8 -142 2 -164 15
-145 19 27 2 89 4 101 11 65 9 -56 0 148 -12 245 -6 56 -7 44 -5 -62z"/>
<path d="M7674 5708 l-19 -23 23 19 c21 18 27 26 19 26 -2 0 -12 -10 -23 -22z"/>
<path d="M4235 5699 c4 -5 25 -9 47 -9 52 0 46 7 -10 14 -26 3 -40 1 -37 -5z"/>
<path d="M4528 5687 c-5 -10 -8 -37 -7 -60 l1 -42 9 34 c12 40 9 97 -3 68z"/>
<path d="M2778 5683 c6 -2 18 -2 25 0 6 3 1 5 -13 5 -14 0 -19 -2 -12 -5z"/>
<path d="M4739 5604 c-1 -104 -2 -83 7 -339 4 -110 10 -191 14 -180 6 17 8 16
14 -9 5 -21 2 -34 -11 -48 -16 -18 -18 -18 -24 -1 -6 13 -8 10 -8 -14 l-1 -31
33 31 c29 29 31 36 25 72 -4 22 -8 94 -8 160 -1 137 -23 432 -33 442 -4 3 -7
-34 -8 -83z"/>
<path d="M4673 5645 c0 -22 2 -30 4 -17 2 12 2 30 0 40 -3 9 -5 -1 -4 -23z"/>
<path d="M4830 5374 c0 -163 -3 -301 -6 -305 -3 -5 12 -9 33 -8 35 1 36 1 13
10 -23 8 -25 13 -22 59 2 27 8 50 14 50 7 0 7 40 2 118 -11 149 -8 224 10 238
12 8 11 12 -5 22 -27 17 -24 30 9 35 l27 4 -27 2 c-18 0 -28 7 -28 16 0 8 1
15 3 15 1 0 34 -6 74 -14 41 -8 77 -10 85 -5 12 8 -9 13 -49 12 -7 -1 -10 3
-7 8 3 5 -4 9 -15 9 -11 0 -32 5 -46 12 -22 10 -28 9 -36 -3 -7 -11 -9 -11 -9
4 0 9 -4 17 -9 17 -6 0 -10 -120 -11 -296z"/>
<path d="M4248 5633 c-10 -2 -18 -9 -18 -14 0 -12 17 -12 25 1 4 6 11 7 17 4
7 -4 8 -2 4 4 -4 7 -8 11 -9 11 -1 -1 -10 -3 -19 -6z"/>
<path d="M4713 5575 c0 -33 2 -45 4 -27 2 18 2 45 0 60 -2 15 -4 0 -4 -33z"/>
<path d="M7243 5590 c0 -25 2 -35 4 -22 2 12 2 32 0 45 -2 12 -4 2 -4 -23z"/>
<path d="M7575 4970 c0 -360 1 -508 2 -327 2 180 2 474 0 655 -1 180 -2 32 -2
-328z"/>
<path d="M4454 5355 c0 -143 2 -200 3 -127 2 73 2 190 0 260 -1 70 -3 10 -3
-133z"/>
<path d="M2032 5570 c0 -14 2 -19 5 -12 2 6 2 18 0 25 -3 6 -5 1 -5 -13z"/>
<path d="M3618 5573 c6 -2 18 -2 25 0 6 3 1 5 -13 5 -14 0 -19 -2 -12 -5z"/>
<path d="M4345 5559 c-4 -6 -5 -12 -2 -15 2 -3 7 2 10 11 7 17 1 20 -8 4z"/>
<path d="M4513 5515 c0 -33 2 -45 4 -27 2 18 2 45 0 60 -2 15 -4 0 -4 -33z"/>
<path d="M5420 5555 c0 -2 17 -16 38 -31 l37 -26 -38 7 c-31 5 -37 4 -31 -7 5
-7 10 -23 12 -36 3 -25 2 -25 -58 -4 -8 3 8 -12 37 -34 28 -21 49 -42 46 -47
-3 -5 5 -7 18 -5 23 3 24 6 24 92 0 68 -3 90 -14 94 -10 3 -12 0 -8 -12 8 -20
-2 -20 -27 -1 -20 15 -36 19 -36 10z"/>
<path d="M6895 5550 c6 -9 193 -146 258 -189 50 -33 -11 19 -126 108 -109 83
-149 108 -132 81z"/>
<path d="M4235 5540 c-8 -13 -1 -24 14 -19 6 3 7 10 2 18 -6 10 -10 10 -16 1z"/>
<path d="M6699 5533 c-13 -16 -12 -17 4 -4 16 13 21 21 13 21 -2 0 -10 -8 -17
-17z"/>
<path d="M7244 5380 c0 -85 2 -120 3 -77 2 42 2 112 0 155 -1 42 -3 7 -3 -78z"/>
<path d="M2042 5500 c0 -14 2 -19 5 -12 2 6 2 18 0 25 -3 6 -5 1 -5 -13z"/>
<path d="M4724 5365 c0 -77 2 -107 3 -67 2 40 2 103 0 140 -2 37 -3 4 -3 -73z"/>
<path d="M6820 5491 c0 -5 -8 -17 -17 -26 -21 -21 -27 -17 206 -166 128 -83
175 -109 181 -99 5 7 6 19 3 25 -9 26 -337 275 -361 275 -7 0 -12 -4 -12 -9z"/>
<path d="M4360 5480 c0 -5 7 -7 15 -4 8 4 15 8 15 10 0 2 -7 4 -15 4 -8 0 -15
-4 -15 -10z"/>
<path d="M6615 5438 l-50 -53 53 50 c48 46 57 55 49 55 -1 0 -25 -24 -52 -52z"/>
<path d="M4260 5461 c0 -5 5 -13 10 -16 6 -3 10 -2 10 4 0 5 -4 13 -10 16 -5
3 -10 2 -10 -4z"/>
<path d="M4955 5461 c-3 -5 -2 -12 3 -15 5 -3 9 1 9 9 0 17 -3 19 -12 6z"/>
<path d="M4313 5443 c9 -2 25 -2 35 0 9 3 1 5 -18 5 -19 0 -27 -2 -17 -5z"/>
<path d="M4663 5375 c0 -44 2 -61 4 -37 2 23 2 59 0 80 -2 20 -4 1 -4 -43z"/>
<path d="M5191 5414 c0 -11 3 -14 6 -6 3 7 2 16 -1 19 -3 4 -6 -2 -5 -13z"/>
<path d="M4902 5295 c2 -57 8 -109 13 -114 6 -6 30 -12 55 -15 l45 -5 -47 10
c-44 10 -47 13 -42 35 9 35 -6 194 -18 194 -7 0 -9 -37 -6 -105z"/>
<path d="M4260 5372 c0 -12 3 -12 15 -2 8 7 15 13 15 15 0 1 -7 2 -15 2 -8 0
-15 -7 -15 -15z"/>
<path d="M4535 5323 c-3 -33 -2 -69 4 -83 8 -20 10 -8 10 58 1 45 -1 82 -3 82
-2 0 -7 -26 -11 -57z"/>
<path d="M4957 5313 c-4 -38 -7 -79 -9 -93 -2 -13 2 -25 7 -25 6 0 16 -4 23
-8 7 -5 12 -3 12 4 0 8 4 8 13 2 17 -15 45 -12 52 4 3 8 2 40 -2 71 l-6 57
-17 -37 c-13 -29 -19 -35 -28 -26 -7 7 -12 26 -12 43 0 38 -10 75 -20 75 -4 0
-10 -30 -13 -67z"/>
<path d="M5020 5366 c0 -8 5 -18 10 -21 6 -3 10 3 10 14 0 12 -4 21 -10 21 -5
0 -10 -6 -10 -14z"/>
<path d="M5972 5307 l3 -72 80 -27 c103 -35 121 -35 129 -3 4 16 13 25 26 25
10 0 22 4 25 10 6 9 -57 44 -193 106 l-73 33 3 -72z"/>
<path d="M5588 5364 c-5 -4 -8 -21 -8 -38 0 -21 3 -27 11 -19 6 6 9 23 7 38
-2 15 -6 23 -10 19z"/>
<path d="M6710 5366 c0 -7 153 -97 255 -151 117 -61 102 -48 -72 64 -121 77
-183 107 -183 87z"/>
<path d="M5080 5310 c-2 -30 -4 -67 -5 -82 -1 -15 4 -29 11 -32 18 -7 29 57
16 92 -6 15 -13 38 -15 52 -2 14 -6 0 -7 -30z"/>
<path d="M5617 5257 c-5 -60 -6 -111 -4 -114 8 -7 19 117 15 172 -2 36 -5 20
-11 -58z"/>
<path d="M2474 5215 c0 -77 2 -107 3 -67 2 40 2 103 0 140 -2 37 -3 4 -3 -73z"/>
<path d="M5376 5342 c-3 -5 1 -9 9 -9 8 0 12 4 9 9 -3 4 -7 8 -9 8 -2 0 -6 -4
-9 -8z"/>
<path d="M6499 5333 c-13 -16 -12 -17 4 -4 9 7 17 15 17 17 0 8 -8 3 -21 -13z"/>
<path d="M5176 5288 c-9 -77 -7 -118 4 -118 6 0 10 35 10 85 0 47 -2 85 -4 85
-2 0 -6 -24 -10 -52z"/>
<path d="M4633 5270 c0 -30 2 -43 4 -27 2 15 2 39 0 55 -2 15 -4 2 -4 -28z"/>
<path d="M4265 5285 c17 -8 41 -14 55 -14 l25 1 -25 7 c-14 4 -38 11 -55 14
l-30 6 30 -14z"/>
<path d="M4386 5267 c3 -10 9 -15 12 -12 3 3 0 11 -7 18 -10 9 -11 8 -5 -6z"/>
<path d="M5140 5270 c0 -5 5 -10 11 -10 5 0 7 5 4 10 -3 6 -8 10 -11 10 -2 0
-4 -4 -4 -10z"/>
<path d="M6620 5268 c17 -17 391 -190 397 -184 9 9 -335 181 -382 192 -27 6
-28 5 -15 -8z"/>
<path d="M4503 5225 c0 -22 2 -30 4 -17 2 12 2 30 0 40 -3 9 -5 -1 -4 -23z"/>
<path d="M5212 5212 l-1 -48 81 -12 c96 -16 115 -10 26 7 -89 17 -98 20 -98
38 0 12 7 14 33 9 17 -4 52 -9 77 -11 l45 -5 -50 14 c-27 8 -63 17 -78 20 -20
5 -27 11 -23 21 3 8 2 15 -3 15 -4 0 -8 -22 -9 -48z"/>
<path d="M5573 5185 c0 -44 2 -61 4 -37 2 23 2 59 0 80 -2 20 -4 1 -4 -43z"/>
<path d="M6340 5225 c-41 -42 -28 -46 20 -7 19 16 29 31 23 35 -5 3 -25 -9
-43 -28z"/>
<path d="M5126 5226 c-14 -23 -15 -30 -5 -37 7 -4 17 -5 22 -2 5 3 4 9 -3 13
-10 6 -10 8 0 12 7 2 11 12 9 23 -4 17 -6 16 -23 -9z"/>
<path d="M4338 5233 c7 -3 16 -2 19 1 4 3 -2 6 -13 5 -11 0 -14 -3 -6 -6z"/>
<path d="M6536 5221 c-3 -5 33 -23 80 -41 47 -17 84 -34 82 -35 -2 -2 -41 10
-88 26 -46 16 -90 27 -99 24 -22 -8 -100 -59 -101 -65 0 -3 19 -10 43 -16 114
-29 659 -202 720 -228 14 -7 17 -3 17 18 0 22 -11 30 -92 68 -51 24 -191 91
-310 150 -213 106 -241 117 -252 99z"/>
<path d="M4265 5210 c3 -5 11 -10 16 -10 6 0 7 5 4 10 -3 6 -11 10 -16 10 -6
0 -7 -4 -4 -10z"/>
<path d="M5964 5206 c-3 -8 -4 -31 -2 -52 l3 -38 95 -28 c52 -16 190 -51 305
-79 116 -28 278 -69 362 -90 83 -21 160 -39 170 -38 64 1 -536 168 -717 198
-36 6 -78 15 -95 20 l-30 9 38 1 c53 1 47 22 -15 57 -88 49 -108 55 -114 40z
m129 -73 c-7 -2 -19 -2 -25 0 -7 3 -2 5 12 5 14 0 19 -2 13 -5z"/>
<path d="M7244 4900 c0 -179 2 -252 3 -162 2 89 2 235 0 325 -1 89 -3 16 -3
-163z"/>
<path d="M4225 5200 c-8 -13 18 -23 47 -17 17 3 15 5 -10 6 -19 0 -31 5 -27
11 3 6 4 10 1 10 -3 0 -8 -5 -11 -10z"/>
<path d="M4368 5193 c7 -3 16 -2 19 1 4 3 -2 6 -13 5 -11 0 -14 -3 -6 -6z"/>
<path d="M4650 5158 c-3 -26 -1 -43 3 -39 5 5 7 26 5 47 l-3 39 -5 -47z"/>
<path d="M4892 5133 c-2 -39 0 -43 21 -42 16 1 17 3 5 6 -11 3 -18 17 -21 41
l-4 37 -1 -42z"/>
<path d="M4333 5151 l-22 -6 23 -11 c20 -9 23 -9 19 2 -6 16 13 19 20 4 3 -6
4 -5 3 2 -3 15 -15 18 -43 9z"/>
<path d="M5038 5153 c7 -3 16 -2 19 1 4 3 -2 6 -13 5 -11 0 -14 -3 -6 -6z"/>
<path d="M5128 5133 c6 -2 18 -2 25 0 6 3 1 5 -13 5 -14 0 -19 -2 -12 -5z"/>
<path d="M5228 5133 c6 -2 18 -2 25 0 6 3 1 5 -13 5 -14 0 -19 -2 -12 -5z"/>
<path d="M5405 5130 c11 -5 27 -9 35 -9 9 0 8 4 -5 9 -11 5 -27 9 -35 9 -9 0
-8 -4 5 -9z"/>
<path d="M4284 5121 c3 -5 15 -7 26 -4 28 7 25 13 -6 13 -14 0 -23 -4 -20 -9z"/>
<path d="M4553 5085 c0 -22 2 -30 4 -17 2 12 2 30 0 40 -3 9 -5 -1 -4 -23z"/>
<path d="M4732 5080 c0 -19 2 -27 5 -17 2 9 2 25 0 35 -3 9 -5 1 -5 -18z"/>
<path d="M4953 5083 c9 -2 23 -2 30 0 6 3 -1 5 -18 5 -16 0 -22 -2 -12 -5z"/>
<path d="M5972 5004 l3 -88 40 -9 c22 -4 105 -19 185 -32 242 -40 538 -93 665
-119 179 -37 241 -41 110 -7 -60 15 -148 40 -195 54 -47 14 -130 35 -185 47
-364 79 -538 122 -558 140 -9 7 221 -37 468 -90 100 -22 219 -46 265 -55 47
-8 96 -18 110 -21 14 -4 22 -4 18 0 -3 4 -55 20 -115 36 -59 15 -160 42 -223
60 -367 104 -468 133 -504 147 -92 34 -87 37 -84 -63z"/>
<path d="M5023 5073 c9 -2 23 -2 30 0 6 3 -1 5 -18 5 -16 0 -22 -2 -12 -5z"/>
<path d="M7037 5069 c7 -7 15 -10 18 -7 3 3 -2 9 -12 12 -14 6 -15 5 -6 -5z"/>
<path d="M4918 5053 c7 -3 16 -2 19 1 4 3 -2 6 -13 5 -11 0 -14 -3 -6 -6z"/>
<path d="M4372 5016 c7 -8 15 -12 17 -11 5 6 -10 25 -20 25 -5 0 -4 -6 3 -14z"/>
<path d="M4583 4975 c0 -33 2 -45 4 -27 2 18 2 45 0 60 -2 15 -4 0 -4 -33z"/>
<path d="M5038 5023 c6 -2 18 -2 25 0 6 3 1 5 -13 5 -14 0 -19 -2 -12 -5z"/>
<path d="M4494 5005 c-3 -8 -4 -20 -2 -27 3 -7 7 -1 10 15 6 29 1 36 -8 12z"/>
<path d="M5115 5008 c17 -6 32 -14 35 -18 6 -9 95 -40 113 -40 7 1 1 7 -13 15
-27 15 -20 21 8 6 9 -5 55 -11 102 -14 102 -7 76 1 -121 38 -148 27 -171 29
-124 13z"/>
<path d="M4873 5003 c9 -2 23 -2 30 0 6 3 -1 5 -18 5 -16 0 -22 -2 -12 -5z"/>
<path d="M4562 4970 c0 -14 2 -19 5 -12 2 6 2 18 0 25 -3 6 -5 1 -5 -13z"/>
<path d="M5488 4983 c7 -3 16 -2 19 1 4 3 -2 6 -13 5 -11 0 -14 -3 -6 -6z"/>
<path d="M4462 4945 c0 -16 2 -22 5 -12 2 9 2 23 0 30 -3 6 -5 -1 -5 -18z"/>
<path d="M3715 4950 c-3 -5 1 -10 10 -10 9 0 13 5 10 10 -3 6 -8 10 -10 10 -2
0 -7 -4 -10 -10z"/>
<path d="M4313 4943 c15 -2 37 -2 50 0 12 2 0 4 -28 4 -27 0 -38 -2 -22 -4z"/>
<path d="M5288 4943 c7 -3 16 -2 19 1 4 3 -2 6 -13 5 -11 0 -14 -3 -6 -6z"/>
<path d="M5463 4943 c9 -2 23 -2 30 0 6 3 -1 5 -18 5 -16 0 -22 -2 -12 -5z"/>
<path d="M5560 4940 c-8 -5 -12 -12 -9 -15 4 -3 12 1 19 10 14 17 11 19 -10 5z"/>
<path d="M4968 4933 c7 -3 16 -2 19 1 4 3 -2 6 -13 5 -11 0 -14 -3 -6 -6z"/>
<path d="M5338 4933 c6 -2 18 -2 25 0 6 3 1 5 -13 5 -14 0 -19 -2 -12 -5z"/>
<path d="M5418 4923 c7 -3 16 -2 19 1 4 3 -2 6 -13 5 -11 0 -14 -3 -6 -6z"/>
<path d="M5070 4916 c0 -2 7 -7 16 -10 8 -3 12 -2 9 4 -6 10 -25 14 -25 6z"/>
<path d="M4988 4903 c7 -3 16 -2 19 1 4 3 -2 6 -13 5 -11 0 -14 -3 -6 -6z"/>
<path d="M5548 4903 c7 -3 16 -2 19 1 4 3 -2 6 -13 5 -11 0 -14 -3 -6 -6z"/>
<path d="M5120 4890 c-12 -7 -10 -9 7 -7 12 0 19 5 17 9 -6 10 -6 10 -24 -2z"/>
<path d="M4854 4868 l-19 -23 23 19 c12 11 22 21 22 23 0 8 -8 2 -26 -19z"/>
<path d="M4825 4829 c-4 -6 -5 -12 -2 -15 2 -3 7 2 10 11 7 17 1 20 -8 4z"/>
<path d="M4935 4826 c-17 -7 -36 -20 -43 -29 -11 -12 -3 -11 30 6 55 28 52 26
47 31 -2 2 -18 -1 -34 -8z"/>
<path d="M6168 4833 c7 -3 16 -2 19 1 4 3 -2 6 -13 5 -11 0 -14 -3 -6 -6z"/>
<path d="M5100 4820 c8 -5 20 -10 25 -10 6 0 3 5 -5 10 -8 5 -19 10 -25 10 -5
0 -3 -5 5 -10z"/>
<path d="M6918 4813 c7 -3 16 -2 19 1 4 3 -2 6 -13 5 -11 0 -14 -3 -6 -6z"/>
<path d="M4288 4783 c6 -2 18 -2 25 0 6 3 1 5 -13 5 -14 0 -19 -2 -12 -5z"/>
<path d="M5330 4781 c0 -5 9 -7 20 -4 11 3 20 7 20 9 0 2 -9 4 -20 4 -11 0
-20 -4 -20 -9z"/>
<path d="M4648 4773 c6 -2 18 -2 25 0 6 3 1 5 -13 5 -14 0 -19 -2 -12 -5z"/>
<path d="M4914 4758 l-19 -23 23 19 c12 11 22 21 22 23 0 8 -8 2 -26 -19z"/>
<path d="M5120 4776 c0 -2 8 -10 18 -17 15 -13 16 -12 3 4 -13 16 -21 21 -21
13z"/>
<path d="M4691 4754 c0 -11 3 -14 6 -6 3 7 2 16 -1 19 -3 4 -6 -2 -5 -13z"/>
<path d="M5498 4763 c7 -3 16 -2 19 1 4 3 -2 6 -13 5 -11 0 -14 -3 -6 -6z"/>
<path d="M4710 4750 c0 -5 5 -10 11 -10 5 0 7 5 4 10 -3 6 -8 10 -11 10 -2 0
-4 -4 -4 -10z"/>
<path d="M5204 4739 c47 -73 74 -270 49 -364 -19 -72 -17 -107 5 -103 34 7 35
234 1 363 -13 48 -44 111 -60 121 -6 3 -4 -4 5 -17z"/>
<path d="M5550 4750 c-8 -5 -10 -10 -5 -10 6 0 17 5 25 10 8 5 11 10 5 10 -5
0 -17 -5 -25 -10z"/>
<path d="M6146 4742 c-2 -4 4 -8 14 -8 10 0 16 4 14 8 -3 4 -9 8 -14 8 -5 0
-11 -4 -14 -8z"/>
<path d="M6039 4703 c-13 -16 -12 -17 4 -4 16 13 21 21 13 21 -2 0 -10 -8 -17
-17z"/>
<path d="M3753 4703 c9 -2 23 -2 30 0 6 3 -1 5 -18 5 -16 0 -22 -2 -12 -5z"/>
<path d="M6390 4700 c0 -5 5 -10 10 -10 6 0 10 5 10 10 0 6 -4 10 -10 10 -5 0
-10 -4 -10 -10z"/>
<path d="M3643 4693 c9 -2 25 -2 35 0 9 3 1 5 -18 5 -19 0 -27 -2 -17 -5z"/>
<path d="M3548 4683 c7 -3 16 -2 19 1 4 3 -2 6 -13 5 -11 0 -14 -3 -6 -6z"/>
<path d="M4485 4680 c4 -6 11 -8 16 -5 14 9 11 15 -7 15 -8 0 -12 -5 -9 -10z"/>
<path d="M5508 4683 c6 -2 18 -2 25 0 6 3 1 5 -13 5 -14 0 -19 -2 -12 -5z"/>
<path d="M3418 4673 c7 -3 16 -2 19 1 4 3 -2 6 -13 5 -11 0 -14 -3 -6 -6z"/>
<path d="M4288 4673 c12 -2 32 -2 45 0 12 2 2 4 -23 4 -25 0 -35 -2 -22 -4z"/>
<path d="M4628 4673 c7 -3 16 -2 19 1 4 3 -2 6 -13 5 -11 0 -14 -3 -6 -6z"/>
<path d="M4670 4670 c-9 -6 -10 -10 -3 -10 6 0 15 5 18 10 8 12 4 12 -15 0z"/>
<path d="M5371 4623 c-1 -54 1 -63 17 -62 10 0 12 3 5 6 -20 8 -16 35 5 29 9
-3 58 -8 107 -11 50 -3 119 -10 155 -15 83 -12 107 -12 95 -1 -11 10 -58 16
-190 27 -44 4 -82 10 -85 15 -4 5 -26 10 -50 13 -40 3 -46 7 -51 32 -5 20 -7
10 -8 -33z"/>
<path d="M5608 4673 c6 -2 18 -2 25 0 6 3 1 5 -13 5 -14 0 -19 -2 -12 -5z"/>
<path d="M6615 4670 c3 -5 15 -10 26 -10 10 0 19 5 19 10 0 6 -12 10 -26 10
-14 0 -23 -4 -19 -10z"/>
<path d="M2538 4663 c6 -2 18 -2 25 0 6 3 1 5 -13 5 -14 0 -19 -2 -12 -5z"/>
<path d="M5743 4663 c9 -2 25 -2 35 0 9 3 1 5 -18 5 -19 0 -27 -2 -17 -5z"/>
<path d="M6715 4660 c-3 -6 1 -7 9 -4 18 7 21 14 7 14 -6 0 -13 -4 -16 -10z"/>
<path d="M3213 4653 c9 -2 25 -2 35 0 9 3 1 5 -18 5 -19 0 -27 -2 -17 -5z"/>
<path d="M5932 4653 c45 -4 48 -6 54 -39 3 -19 8 -33 11 -30 2 2 1 20 -2 40
l-7 36 -52 -2 -51 -2 47 -3z"/>
<path d="M4438 4643 c7 -3 16 -2 19 1 4 3 -2 6 -13 5 -11 0 -14 -3 -6 -6z"/>
<path d="M4533 4643 c9 -2 25 -2 35 0 9 3 1 5 -18 5 -19 0 -27 -2 -17 -5z"/>
<path d="M4801 4598 c-15 -78 -23 -258 -12 -298 7 -29 9 -18 10 60 1 52 6 137
11 189 11 106 7 129 -9 49z"/>
<path d="M6820 4646 c0 -2 7 -7 16 -10 8 -3 12 -2 9 4 -6 10 -25 14 -25 6z"/>
<path d="M2838 4633 c7 -3 16 -2 19 1 4 3 -2 6 -13 5 -11 0 -14 -3 -6 -6z"/>
<path d="M2968 4633 c12 -2 30 -2 40 0 9 3 -1 5 -23 4 -22 0 -30 -2 -17 -4z"/>
<path d="M4278 4633 c12 -2 30 -2 40 0 9 3 -1 5 -23 4 -22 0 -30 -2 -17 -4z"/>
<path d="M7182 4610 c0 -19 2 -27 5 -17 2 9 2 25 0 35 -3 9 -5 1 -5 -18z"/>
<path d="M4178 4623 c7 -3 16 -2 19 1 4 3 -2 6 -13 5 -11 0 -14 -3 -6 -6z"/>
<path d="M3758 4613 c12 -2 30 -2 40 0 9 3 -1 5 -23 4 -22 0 -30 -2 -17 -4z"/>
<path d="M2421 4594 c0 -11 3 -14 6 -6 3 7 2 16 -1 19 -3 4 -6 -2 -5 -13z"/>
<path d="M3598 4603 c12 -2 30 -2 40 0 9 3 -1 5 -23 4 -22 0 -30 -2 -17 -4z"/>
<path d="M3888 4603 c7 -3 16 -2 19 1 4 3 -2 6 -13 5 -11 0 -14 -3 -6 -6z"/>
<path d="M3478 4593 c6 -2 18 -2 25 0 6 3 1 5 -13 5 -14 0 -19 -2 -12 -5z"/>
<path d="M4763 4555 c0 -27 2 -38 4 -22 2 15 2 37 0 50 -2 12 -4 0 -4 -28z"/>
<path d="M4831 4584 c0 -11 3 -14 6 -6 3 7 2 16 -1 19 -3 4 -6 -2 -5 -13z"/>
<path d="M3368 4583 c7 -3 16 -2 19 1 4 3 -2 6 -13 5 -11 0 -14 -3 -6 -6z"/>
<path d="M6830 4586 c0 -2 18 -6 39 -8 22 -2 37 0 35 4 -5 8 -74 11 -74 4z"/>
<path d="M2570 4565 l-55 -12 52 -1 c35 0 53 4 57 14 3 8 4 13 3 13 -1 -1 -27
-7 -57 -14z"/>
<path d="M3263 4573 c9 -2 25 -2 35 0 9 3 1 5 -18 5 -19 0 -27 -2 -17 -5z"/>
<path d="M3618 4573 c7 -3 16 -2 19 1 4 3 -2 6 -13 5 -11 0 -14 -3 -6 -6z"/>
<path d="M4513 4573 c9 -2 25 -2 35 0 9 3 1 5 -18 5 -19 0 -27 -2 -17 -5z"/>
<path d="M5971 4564 c0 -11 3 -14 6 -6 3 7 2 16 -1 19 -3 4 -6 -2 -5 -13z"/>
<path d="M3148 4563 c6 -2 18 -2 25 0 6 3 1 5 -13 5 -14 0 -19 -2 -12 -5z"/>
<path d="M4388 4563 c7 -3 16 -2 19 1 4 3 -2 6 -13 5 -11 0 -14 -3 -6 -6z"/>
<path d="M2438 4553 c7 -3 16 -2 19 1 4 3 -2 6 -13 5 -11 0 -14 -3 -6 -6z"/>
<path d="M3028 4553 c7 -3 16 -2 19 1 4 3 -2 6 -13 5 -11 0 -14 -3 -6 -6z"/>
<path d="M3388 4553 c6 -2 18 -2 25 0 6 3 1 5 -13 5 -14 0 -19 -2 -12 -5z"/>
<path d="M4248 4553 c7 -3 16 -2 19 1 4 3 -2 6 -13 5 -11 0 -14 -3 -6 -6z"/>
<path d="M5468 4553 c7 -3 16 -2 19 1 4 3 -2 6 -13 5 -11 0 -14 -3 -6 -6z"/>
<path d="M2928 4543 c7 -3 16 -2 19 1 4 3 -2 6 -13 5 -11 0 -14 -3 -6 -6z"/>
<path d="M3288 4543 c6 -2 18 -2 25 0 6 3 1 5 -13 5 -14 0 -19 -2 -12 -5z"/>
<path d="M4185 4536 c-18 -13 -18 -14 8 -9 15 3 24 9 21 14 -7 12 -7 12 -29
-5z"/>
<path d="M5313 4505 c0 -27 2 -38 4 -22 2 15 2 37 0 50 -2 12 -4 0 -4 -28z"/>
<path d="M6119 4548 c-7 -23 -3 -45 8 -41 9 3 13 -4 14 -23 2 -25 2 -26 6 -6
3 13 -2 31 -11 41 -9 10 -13 21 -9 24 3 4 3 7 0 7 -4 0 -7 -1 -8 -2z"/>
<path d="M6257 4500 c3 -30 12 -66 19 -80 12 -24 13 -23 12 20 -1 33 -3 40 -9
25 -6 -16 -8 -13 -9 15 -1 19 -5 44 -10 55 -5 12 -6 -1 -3 -35z"/>
<path d="M2620 4536 c0 -2 7 -6 15 -10 8 -3 15 -1 15 4 0 6 -7 10 -15 10 -8 0
-15 -2 -15 -4z"/>
<path d="M2835 4530 c-8 -13 5 -13 25 0 13 8 13 10 -2 10 -9 0 -20 -4 -23 -10z"/>
<path d="M3188 4533 c7 -3 16 -2 19 1 4 3 -2 6 -13 5 -11 0 -14 -3 -6 -6z"/>
<path d="M4375 4535 c19 -7 155 -12 155 -6 0 4 -37 8 -82 9 -46 0 -78 0 -73
-3z"/>
<path d="M4822 4520 c0 -14 2 -19 5 -12 2 6 2 18 0 25 -3 6 -5 1 -5 -13z"/>
<path d="M5628 4533 c7 -3 16 -2 19 1 4 3 -2 6 -13 5 -11 0 -14 -3 -6 -6z"/>
<path d="M5909 4514 c-1 -29 -1 -29 -9 -4 l-8 25 -1 -25 c0 -14 3 -31 8 -39 7
-11 11 -5 16 23 4 20 5 40 1 43 -3 4 -6 -7 -7 -23z"/>
<path d="M6758 4533 c6 -2 18 -2 25 0 6 3 1 5 -13 5 -14 0 -19 -2 -12 -5z"/>
<path d="M2513 4523 c9 -2 23 -2 30 0 6 3 -1 5 -18 5 -16 0 -22 -2 -12 -5z"/>
<path d="M3048 4523 c12 -2 30 -2 40 0 9 3 -1 5 -23 4 -22 0 -30 -2 -17 -4z"/>
<path d="M5698 4523 c7 -3 16 -2 19 1 4 3 -2 6 -13 5 -11 0 -14 -3 -6 -6z"/>
<path d="M5856 4440 c-6 -52 -9 -99 -8 -104 2 -4 -2 -14 -9 -22 -15 -18 -5
-31 23 -29 21 1 23 7 24 56 l1 54 -6 -50 c-4 -39 -7 -22 -11 70 l-5 120 -9
-95z"/>
<path d="M6031 4514 c0 -11 3 -14 6 -6 3 7 2 16 -1 19 -3 4 -6 -2 -5 -13z"/>
<path d="M6862 4516 c7 -8 17 -12 22 -9 4 3 2 9 -5 14 -22 13 -31 11 -17 -5z"/>
<path d="M3723 4513 c9 -2 25 -2 35 0 9 3 1 5 -18 5 -19 0 -27 -2 -17 -5z"/>
<path d="M3900 4510 c-13 -9 -13 -10 0 -9 8 0 24 4 35 9 l20 9 -20 0 c-11 0
-27 -4 -35 -9z"/>
<path d="M4418 4513 c7 -3 16 -2 19 1 4 3 -2 6 -13 5 -11 0 -14 -3 -6 -6z"/>
<path d="M4684 4355 c0 -93 2 -133 3 -88 2 45 2 122 0 170 -1 48 -3 12 -3 -82z"/>
<path d="M4954 4498 l-19 -23 23 19 c21 18 27 26 19 26 -2 0 -12 -10 -23 -22z"/>
<path d="M5428 4513 c7 -3 16 -2 19 1 4 3 -2 6 -13 5 -11 0 -14 -3 -6 -6z"/>
<path d="M5770 4516 c0 -2 7 -7 16 -10 8 -3 12 -2 9 4 -6 10 -25 14 -25 6z"/>
<path d="M6197 4513 c-4 -3 -7 -13 -7 -22 0 -14 2 -14 10 -1 6 9 10 10 10 3 0
-6 -4 -14 -9 -17 -5 -3 -7 -15 -4 -26 3 -11 9 -17 14 -14 5 3 9 0 9 -7 0 -7 3
-10 6 -7 8 8 -6 98 -15 98 -4 0 -11 -3 -14 -7z"/>
<path d="M6291 4504 c0 -11 3 -14 6 -6 3 7 2 16 -1 19 -3 4 -6 -2 -5 -13z"/>
<path d="M3593 4503 c9 -2 25 -2 35 0 9 3 1 5 -18 5 -19 0 -27 -2 -17 -5z"/>
<path d="M4091 4494 c0 -11 3 -14 6 -6 3 7 2 16 -1 19 -3 4 -6 -2 -5 -13z"/>
<path d="M4612 4475 c-1 -22 -5 -65 -8 -95 -5 -42 -4 -52 5 -44 8 7 11 39 8
95 -1 46 -4 66 -5 44z"/>
<path d="M5065 4483 c23 -48 29 -115 15 -158 -16 -49 -25 -33 -34 60 -4 39
-14 81 -23 94 l-15 23 -24 -24 c-35 -35 -51 -129 -35 -203 22 -99 69 -121 127
-59 31 32 34 41 34 94 0 79 -17 155 -41 182 l-20 23 16 -32z m-81 -94 c3 -17
6 -46 5 -63 l-1 -31 -13 30 c-16 34 -20 95 -6 95 5 0 11 -14 15 -31z"/>
<path d="M5633 4503 c9 -2 23 -2 30 0 6 3 -1 5 -18 5 -16 0 -22 -2 -12 -5z"/>
<path d="M6354 4496 c1 -8 5 -18 8 -22 4 -3 5 1 4 10 -1 8 -5 18 -8 22 -4 3
-5 -1 -4 -10z"/>
<path d="M2412 4480 c0 -14 2 -19 5 -12 2 6 2 18 0 25 -3 6 -5 1 -5 -13z"/>
<path d="M3493 4493 c9 -2 23 -2 30 0 6 3 -1 5 -18 5 -16 0 -22 -2 -12 -5z"/>
<path d="M3828 4493 c7 -3 16 -2 19 1 4 3 -2 6 -13 5 -11 0 -14 -3 -6 -6z"/>
<path d="M5761 4484 c0 -11 3 -14 6 -6 3 7 2 16 -1 19 -3 4 -6 -2 -5 -13z"/>
<path d="M6745 4490 c7 -12 72 -12 100 0 14 6 1 9 -43 9 -40 1 -61 -3 -57 -9z"/>
<path d="M6948 4493 c7 -3 16 -2 19 1 4 3 -2 6 -13 5 -11 0 -14 -3 -6 -6z"/>
<path d="M3298 4483 c12 -2 32 -2 45 0 12 2 2 4 -23 4 -25 0 -35 -2 -22 -4z"/>
<path d="M3748 4483 c6 -2 18 -2 25 0 6 3 1 5 -13 5 -14 0 -19 -2 -12 -5z"/>
<path d="M4200 4480 c0 -5 7 -7 15 -4 8 4 15 8 15 10 0 2 -7 4 -15 4 -8 0 -15
-4 -15 -10z"/>
<path d="M5967 4483 c-10 -9 -9 -143 1 -143 4 0 6 28 5 62 -1 48 0 56 6 33 8
-29 9 -28 10 13 1 39 -7 51 -22 35z"/>
<path d="M7191 4474 c0 -11 3 -14 6 -6 3 7 2 16 -1 19 -3 4 -6 -2 -5 -13z"/>
<path d="M3173 4473 c9 -2 25 -2 35 0 9 3 1 5 -18 5 -19 0 -27 -2 -17 -5z"/>
<path d="M3648 4473 c7 -3 16 -2 19 1 4 3 -2 6 -13 5 -11 0 -14 -3 -6 -6z"/>
<path d="M3038 4463 c6 -2 18 -2 25 0 6 3 1 5 -13 5 -14 0 -19 -2 -12 -5z"/>
<path d="M3568 4463 c7 -3 16 -2 19 1 4 3 -2 6 -13 5 -11 0 -14 -3 -6 -6z"/>
<path d="M4572 4440 c0 -19 2 -27 5 -17 2 9 2 25 0 35 -3 9 -5 1 -5 -18z"/>
<path d="M6491 4454 c0 -11 3 -14 6 -6 3 7 2 16 -1 19 -3 4 -6 -2 -5 -13z"/>
<path d="M2938 4453 c7 -3 16 -2 19 1 4 3 -2 6 -13 5 -11 0 -14 -3 -6 -6z"/>
<path d="M3438 4453 c6 -2 18 -2 25 0 6 3 1 5 -13 5 -14 0 -19 -2 -12 -5z"/>
<path d="M4358 4453 c7 -3 16 -2 19 1 4 3 -2 6 -13 5 -11 0 -14 -3 -6 -6z"/>
<path d="M4642 4360 c0 -58 4 -114 8 -125 11 -27 11 137 1 190 -7 31 -9 16 -9
-65z"/>
<path d="M7024 4446 c-3 -8 -4 -27 -2 -43 3 -23 5 -20 9 15 5 43 2 53 -7 28z"/>
<path d="M2438 4443 c7 -3 16 -2 19 1 4 3 -2 6 -13 5 -11 0 -14 -3 -6 -6z"/>
<path d="M2478 4443 c6 -2 18 -2 25 0 6 3 1 5 -13 5 -14 0 -19 -2 -12 -5z"/>
<path d="M2535 4440 c27 -12 35 -12 35 0 0 6 -12 10 -27 9 -25 0 -26 -1 -8 -9z"/>
<path d="M2868 4443 c7 -3 16 -2 19 1 4 3 -2 6 -13 5 -11 0 -14 -3 -6 -6z"/>
<path d="M3318 4443 c6 -2 18 -2 25 0 6 3 1 5 -13 5 -14 0 -19 -2 -12 -5z"/>
<path d="M3367 4438 c2 -5 -13 -8 -34 -9 -21 0 -33 -2 -28 -5 6 -2 51 0 100 4
l90 8 -67 5 c-36 2 -64 1 -61 -3z"/>
<path d="M3593 4443 c9 -2 23 -2 30 0 6 3 -1 5 -18 5 -16 0 -22 -2 -12 -5z"/>
<path d="M3820 4442 c0 -4 16 -9 36 -10 23 -2 33 1 29 8 -7 12 -65 14 -65 2z"/>
<path d="M4081 4434 c0 -11 3 -14 6 -6 3 7 2 16 -1 19 -3 4 -6 -2 -5 -13z"/>
<path d="M4152 4430 c0 -14 2 -19 5 -12 2 6 2 18 0 25 -3 6 -5 1 -5 -13z"/>
<path d="M4258 4443 c7 -3 16 -2 19 1 4 3 -2 6 -13 5 -11 0 -14 -3 -6 -6z"/>
<path d="M5603 4443 c9 -2 23 -2 30 0 6 3 -1 5 -18 5 -16 0 -22 -2 -12 -5z"/>
<path d="M6882 4425 c0 -16 2 -22 5 -12 2 9 2 23 0 30 -3 6 -5 -1 -5 -18z"/>
<path d="M3188 4433 c6 -2 18 -2 25 0 6 3 1 5 -13 5 -14 0 -19 -2 -12 -5z"/>
<path d="M4190 4425 c0 -8 8 -15 18 -14 10 0 12 3 4 6 -6 2 -10 9 -6 14 3 5 0
9 -5 9 -6 0 -11 -7 -11 -15z"/>
<path d="M4290 4436 c0 -2 18 -6 39 -8 22 -2 37 0 35 4 -5 8 -74 11 -74 4z"/>
<path d="M4813 4385 c0 -33 2 -45 4 -27 2 18 2 45 0 60 -2 15 -4 0 -4 -33z"/>
<path d="M5792 4420 c0 -14 2 -19 5 -12 2 6 2 18 0 25 -3 6 -5 1 -5 -13z"/>
<path d="M6012 4410 c0 -19 2 -27 5 -17 2 9 2 25 0 35 -3 9 -5 1 -5 -18z"/>
<path d="M7152 4420 c0 -14 2 -19 5 -12 2 6 2 18 0 25 -3 6 -5 1 -5 -13z"/>
<path d="M5923 4385 c0 -27 2 -38 4 -22 2 15 2 37 0 50 -2 12 -4 0 -4 -28z"/>
<path d="M2783 4413 c9 -2 25 -2 35 0 9 3 1 5 -18 5 -19 0 -27 -2 -17 -5z"/>
<path d="M2863 4413 c9 -2 25 -2 35 0 9 3 1 5 -18 5 -19 0 -27 -2 -17 -5z"/>
<path d="M3178 4413 c12 -2 30 -2 40 0 9 3 -1 5 -23 4 -22 0 -30 -2 -17 -4z"/>
<path d="M3650 4410 c-11 -7 -2 -10 29 -10 48 0 51 4 11 13 -14 3 -32 2 -40
-3z"/>
<path d="M3088 4403 c6 -2 18 -2 25 0 6 3 1 5 -13 5 -14 0 -19 -2 -12 -5z"/>
<path d="M3818 4403 c6 -2 18 -2 25 0 6 3 1 5 -13 5 -14 0 -19 -2 -12 -5z"/>
<path d="M4383 4403 c15 -2 39 -2 55 0 15 2 2 4 -28 4 -30 0 -43 -2 -27 -4z"/>
<path d="M2978 4393 c12 -2 30 -2 40 0 9 3 -1 5 -23 4 -22 0 -30 -2 -17 -4z"/>
<path d="M4136 4355 c-5 -27 -13 -59 -19 -70 -9 -18 -8 -18 6 -7 16 14 33 90
25 114 -3 7 -8 -9 -12 -37z"/>
<path d="M7110 4391 c0 -10 19 -25 25 -20 1 2 -3 10 -11 17 -8 7 -14 8 -14 3z"/>
<path d="M2898 4383 c6 -2 18 -2 25 0 6 3 1 5 -13 5 -14 0 -19 -2 -12 -5z"/>
<path d="M3813 4383 c9 -2 23 -2 30 0 6 3 -1 5 -18 5 -16 0 -22 -2 -12 -5z"/>
<path d="M4398 4383 c12 -2 32 -2 45 0 12 2 2 4 -23 4 -25 0 -35 -2 -22 -4z"/>
<path d="M4761 4374 c0 -11 3 -14 6 -6 3 7 2 16 -1 19 -3 4 -6 -2 -5 -13z"/>
<path d="M6081 4374 c0 -11 3 -14 6 -6 3 7 2 16 -1 19 -3 4 -6 -2 -5 -13z"/>
<path d="M6101 4374 c0 -11 3 -14 6 -6 3 7 2 16 -1 19 -3 4 -6 -2 -5 -13z"/>
<path d="M4071 4364 c0 -11 3 -14 6 -6 3 7 2 16 -1 19 -3 4 -6 -2 -5 -13z"/>
<path d="M5423 4365 c-3 -9 -3 -18 -1 -21 3 -3 8 4 11 16 6 23 -1 27 -10 5z"/>
<path d="M5538 4373 c46 -2 118 -2 160 0 42 1 5 3 -83 3 -88 0 -123 -2 -77 -3z"/>
<path d="M2838 4363 c7 -3 16 -2 19 1 4 3 -2 6 -13 5 -11 0 -14 -3 -6 -6z"/>
<path d="M3598 4363 c6 -2 18 -2 25 0 6 3 1 5 -13 5 -14 0 -19 -2 -12 -5z"/>
<path d="M4228 4363 c6 -2 18 -2 25 0 6 3 1 5 -13 5 -14 0 -19 -2 -12 -5z"/>
<path d="M4912 4340 c0 -19 2 -27 5 -17 2 9 2 25 0 35 -3 9 -5 1 -5 -18z"/>
<path d="M6505 4350 c-4 -12 -5 -24 -2 -27 3 -2 8 5 12 17 4 12 5 24 2 27 -3
2 -8 -5 -12 -17z"/>
<path d="M2490 4350 c-17 -6 -9 -7 25 -3 28 3 52 7 54 9 8 7 -54 2 -79 -6z"/>
<path d="M2885 4350 l-20 -9 20 0 c11 0 38 4 60 8 l40 9 -40 0 c-22 0 -49 -3
-60 -8z"/>
<path d="M3473 4353 c9 -2 25 -2 35 0 9 3 1 5 -18 5 -19 0 -27 -2 -17 -5z"/>
<path d="M4180 4348 c0 -12 7 -18 23 -17 15 0 17 2 7 6 -8 3 -18 11 -22 17 -5
7 -8 4 -8 -6z"/>
<path d="M3373 4343 c9 -2 23 -2 30 0 6 3 -1 5 -18 5 -16 0 -22 -2 -12 -5z"/>
<path d="M4764 4265 c0 -49 1 -71 3 -48 2 23 2 64 0 90 -2 26 -3 8 -3 -42z"/>
<path d="M2445 4330 c-8 -13 18 -23 47 -17 17 3 15 5 -10 6 -19 0 -31 5 -27
11 3 6 4 10 1 10 -3 0 -8 -5 -11 -10z"/>
<path d="M2818 4333 c7 -3 16 -2 19 1 4 3 -2 6 -13 5 -11 0 -14 -3 -6 -6z"/>
<path d="M3238 4333 c12 -2 30 -2 40 0 9 3 -1 5 -23 4 -22 0 -30 -2 -17 -4z"/>
<path d="M7323 4333 c9 -2 25 -2 35 0 9 3 1 5 -18 5 -19 0 -27 -2 -17 -5z"/>
<path d="M3098 4323 c12 -2 32 -2 45 0 12 2 2 4 -23 4 -25 0 -35 -2 -22 -4z"/>
<path d="M4353 4323 c9 -2 23 -2 30 0 6 3 -1 5 -18 5 -16 0 -22 -2 -12 -5z"/>
<path d="M5997 4323 c-4 -3 -7 -18 -6 -32 1 -26 1 -25 10 3 9 31 7 41 -4 29z"/>
<path d="M7037 4320 c-32 -4 -61 -10 -64 -14 -6 -6 19 -4 142 13 45 7 50 9 20
8 -22 0 -66 -3 -98 -7z"/>
<path d="M7193 4323 c9 -2 23 -2 30 0 6 3 -1 5 -18 5 -16 0 -22 -2 -12 -5z"/>
<path d="M2863 4313 c26 -2 68 -2 95 0 26 2 4 3 -48 3 -52 0 -74 -1 -47 -3z"/>
<path d="M5290 4289 c0 -17 4 -28 10 -24 6 3 10 17 10 31 0 13 -4 24 -10 24
-5 0 -10 -14 -10 -31z"/>
<path d="M5440 4303 c0 -14 13 -15 98 -10 53 4 122 7 152 7 40 0 51 3 40 10
-8 6 -77 10 -152 9 -118 -1 -138 -3 -138 -16z"/>
<path d="M6080 4313 c0 -7 4 -14 10 -18 5 -3 6 -13 3 -23 -5 -16 -5 -16 8 0 8
9 23 18 34 21 16 4 15 5 -5 6 -15 0 -31 6 -38 13 -9 9 -12 9 -12 1z"/>
<path d="M6384 4309 c-3 -6 -15 -9 -25 -6 -11 3 -17 1 -13 -4 8 -14 30 -11 44
6 7 8 10 15 7 15 -3 0 -9 -5 -13 -11z"/>
<path d="M4328 4303 c6 -2 18 -2 25 0 6 3 1 5 -13 5 -14 0 -19 -2 -12 -5z"/>
<path d="M7602 4280 c0 -19 2 -27 5 -17 2 9 2 25 0 35 -3 9 -5 1 -5 -18z"/>
<path d="M7651 4294 c0 -11 3 -14 6 -6 3 7 2 16 -1 19 -3 4 -6 -2 -5 -13z"/>
<path d="M4198 4293 c7 -3 16 -2 19 1 4 3 -2 6 -13 5 -11 0 -14 -3 -6 -6z"/>
<path d="M4611 4284 c0 -11 3 -14 6 -6 3 7 2 16 -1 19 -3 4 -6 -2 -5 -13z"/>
<path d="M2530 4280 l-35 -7 35 -1 c19 0 46 4 60 8 l25 8 -25 0 c-14 0 -41 -4
-60 -8z"/>
<path d="M4160 4278 c0 -5 46 -7 103 -6 106 1 94 6 -31 10 -39 2 -72 0 -72 -4z"/>
<path d="M6339 4277 c6 -6 11 -19 11 -28 0 -27 20 -34 38 -13 16 17 16 17 -1
5 -22 -18 -35 -6 -20 18 10 16 8 20 -13 24 -18 3 -22 1 -15 -6z"/>
<path d="M6828 4283 c6 -2 18 -2 25 0 6 3 1 5 -13 5 -14 0 -19 -2 -12 -5z"/>
<path d="M6121 4271 c-11 -7 -9 -10 10 -14 22 -4 21 -4 -5 -6 -24 -1 -27 -3
-16 -16 16 -19 56 -19 64 0 4 13 2 13 -14 5 -10 -5 -25 -10 -32 -9 -7 0 -2 4
10 10 13 5 22 14 20 21 -6 16 -20 19 -37 9z"/>
<path d="M6720 4270 c-40 -6 -37 -7 29 -8 41 -1 72 0 70 2 -11 9 -58 12 -99 6z"/>
<path d="M6888 4273 c6 -2 18 -2 25 0 6 3 1 5 -13 5 -14 0 -19 -2 -12 -5z"/>
<path d="M2440 4261 c0 -4 11 -6 25 -3 14 2 25 6 25 8 0 2 -11 4 -25 4 -14 0
-25 -4 -25 -9z"/>
<path d="M3798 4263 c12 -2 32 -2 45 0 12 2 2 4 -23 4 -25 0 -35 -2 -22 -4z"/>
<path d="M4398 4263 c6 -2 18 -2 25 0 6 3 1 5 -13 5 -14 0 -19 -2 -12 -5z"/>
<path d="M5643 4263 c37 -2 97 -2 135 0 37 2 6 3 -68 3 -74 0 -105 -1 -67 -3z"/>
<path d="M3653 4253 c9 -2 23 -2 30 0 6 3 -1 5 -18 5 -16 0 -22 -2 -12 -5z"/>
<path d="M4323 4253 c9 -2 25 -2 35 0 9 3 1 5 -18 5 -19 0 -27 -2 -17 -5z"/>
<path d="M4583 4215 c0 -27 2 -38 4 -22 2 15 2 37 0 50 -2 12 -4 0 -4 -28z"/>
<path d="M4800 4222 c0 -23 4 -42 9 -42 6 0 7 17 4 38 -8 51 -13 53 -13 4z"/>
<path d="M2498 4243 c23 -2 61 -2 85 0 23 2 4 4 -43 4 -47 0 -66 -2 -42 -4z"/>
<path d="M3468 4243 c12 -2 30 -2 40 0 9 3 -1 5 -23 4 -22 0 -30 -2 -17 -4z"/>
<path d="M4090 4229 l-95 -17 95 1 c58 1 94 6 92 12 -1 6 24 13 55 16 l58 6
-55 0 c-30 0 -98 -8 -150 -18z"/>
<path d="M5131 4234 c0 -11 3 -14 6 -6 3 7 2 16 -1 19 -3 4 -6 -2 -5 -13z"/>
<path d="M7050 4241 c0 -5 9 -7 20 -4 11 3 20 7 20 9 0 2 -9 4 -20 4 -11 0
-20 -4 -20 -9z"/>
<path d="M2640 4219 c7 -11 14 -19 16 -16 7 7 -7 37 -17 37 -6 0 -5 -9 1 -21z"/>
<path d="M3313 4233 c9 -2 25 -2 35 0 9 3 1 5 -18 5 -19 0 -27 -2 -17 -5z"/>
<path d="M6948 4232 c-30 -6 -20 -23 10 -18 15 2 27 5 27 6 0 1 8 3 18 5 11 2
22 6 25 10 6 6 -47 4 -80 -3z"/>
<path d="M3173 4223 c9 -2 25 -2 35 0 9 3 1 5 -18 5 -19 0 -27 -2 -17 -5z"/>
<path d="M4218 4223 c7 -3 16 -2 19 1 4 3 -2 6 -13 5 -11 0 -14 -3 -6 -6z"/>
<path d="M4380 4210 c-11 -7 2 -10 43 -10 36 0 56 4 52 10 -8 13 -75 13 -95 0z"/>
<path d="M2497 4203 c18 -2 50 -2 70 0 21 2 7 4 -32 4 -38 0 -55 -2 -38 -4z"/>
<path d="M2928 4203 c7 -3 16 -2 19 1 4 3 -2 6 -13 5 -11 0 -14 -3 -6 -6z"/>
<path d="M3863 4203 c26 -2 67 -2 90 0 23 2 2 3 -48 3 -49 0 -68 -1 -42 -3z"/>
<path d="M7458 4198 c5 -5 19 -4 33 1 23 10 22 10 -8 8 -18 0 -29 -5 -25 -9z"/>
<path d="M2451 4189 c13 -8 88 -14 78 -5 -2 2 -24 6 -48 9 -29 4 -40 2 -30 -4z"/>
<path d="M3658 4193 c28 -2 76 -2 105 0 28 2 5 3 -53 3 -58 0 -81 -1 -52 -3z"/>
<path d="M4223 4193 c9 -2 23 -2 30 0 6 3 -1 5 -18 5 -16 0 -22 -2 -12 -5z"/>
<path d="M5091 4188 c-1 -15 -32 -41 -42 -35 -3 1 -1 -2 3 -7 3 -5 4 -16 0
-25 -5 -14 -4 -14 12 -1 11 8 14 16 7 18 -6 2 -2 11 10 21 12 10 19 24 16 32
-4 11 -6 10 -6 -3z"/>
<path d="M6550 4196 c0 -2 9 -6 20 -9 11 -3 18 -1 14 4 -5 9 -34 13 -34 5z"/>
<path d="M6668 4193 c7 -3 16 -2 19 1 4 3 -2 6 -13 5 -11 0 -14 -3 -6 -6z"/>
<path d="M6858 4193 c7 -3 16 -2 19 1 4 3 -2 6 -13 5 -11 0 -14 -3 -6 -6z"/>
<path d="M3490 4180 c-21 -7 -19 -8 17 -9 23 -1 45 4 48 9 7 12 -29 12 -65 0z"/>
<path d="M4043 4183 c15 -2 39 -2 55 0 15 2 2 4 -28 4 -30 0 -43 -2 -27 -4z"/>
<path d="M6466 4179 c-50 -12 -54 -16 -30 -34 22 -17 48 -20 39 -5 -4 6 -10 8
-15 5 -5 -3 -12 0 -16 6 -5 8 1 10 19 7 15 -3 24 -2 22 2 -7 11 22 20 43 14
14 -5 15 -4 2 5 -8 6 -17 10 -20 10 -3 -1 -23 -5 -44 -10z"/>
<path d="M7614 4176 c-3 -8 -4 -23 -2 -33 3 -11 6 -6 9 15 6 34 2 42 -7 18z"/>
<path d="M2665 4170 c3 -5 -26 -11 -72 -13 l-78 -3 90 -2 c50 -1 97 -7 105
-12 11 -7 7 -10 -19 -10 -19 0 -32 -3 -28 -6 3 -3 36 -2 74 2 l68 7 -57 16
c-31 9 -60 19 -64 24 -11 10 -26 9 -19 -3z"/>
<path d="M3353 4168 c-6 -10 45 -8 77 2 19 7 14 8 -23 7 -27 -1 -51 -5 -54 -9z"/>
<path d="M3893 4173 c9 -2 25 -2 35 0 9 3 1 5 -18 5 -19 0 -27 -2 -17 -5z"/>
<path d="M6728 4173 c7 -3 16 -2 19 1 4 3 -2 6 -13 5 -11 0 -14 -3 -6 -6z"/>
<path d="M3260 4161 c0 -5 9 -7 20 -4 11 3 20 7 20 9 0 2 -9 4 -20 4 -11 0
-20 -4 -20 -9z"/>
<path d="M3743 4163 c15 -2 37 -2 50 0 12 2 0 4 -28 4 -27 0 -38 -2 -22 -4z"/>
<path d="M2915 4150 c-14 -6 0 -9 44 -9 35 -1 62 1 60 3 -10 9 -86 13 -104 6z"/>
<path d="M3078 4153 c17 -2 47 -2 65 0 17 2 3 4 -33 4 -36 0 -50 -2 -32 -4z"/>
<path d="M3490 4150 l-85 -6 80 -1 c44 0 94 3 110 7 26 7 27 8 5 7 -14 0 -63
-4 -110 -7z"/>
<path d="M6330 4144 l-55 -13 60 5 c33 3 64 10 70 15 12 12 -6 10 -75 -7z"/>
<path d="M2470 4140 c0 -5 15 -10 33 -9 27 0 29 2 12 9 -28 12 -45 12 -45 0z"/>
<path d="M7148 4143 c7 -3 16 -2 19 1 4 3 -2 6 -13 5 -11 0 -14 -3 -6 -6z"/>
<path d="M3278 4133 c7 -3 16 -2 19 1 4 3 -2 6 -13 5 -11 0 -14 -3 -6 -6z"/>
<path d="M4974 4125 c11 -8 25 -15 30 -15 6 0 5 4 -3 9 -11 7 -7 10 15 14 21
3 16 4 -16 5 -42 1 -44 0 -26 -13z"/>
<path d="M3058 4123 c17 -2 47 -2 65 0 17 2 3 4 -33 4 -36 0 -50 -2 -32 -4z"/>
<path d="M2595 4110 c40 -9 142 -13 134 -6 -2 2 -42 6 -89 9 -61 4 -74 3 -45
-3z"/>
<path d="M2838 4113 c23 -2 61 -2 85 0 23 2 4 4 -43 4 -47 0 -66 -2 -42 -4z"/>
<path d="M6960 4110 c-18 -12 -2 -12 25 0 13 6 15 9 5 9 -8 0 -22 -4 -30 -9z"/>
<path d="M2455 4100 c-4 -6 17 -10 57 -9 47 1 57 3 38 9 -36 12 -88 12 -95 0z"/>
<path d="M5016 4089 c5 -8 -4 -10 -30 -7 -32 4 -35 2 -22 -11 12 -12 20 -12
41 -3 25 12 34 32 14 32 -5 0 -7 -5 -3 -11z"/>
<path d="M6148 4083 c7 -3 16 -2 19 1 4 3 -2 6 -13 5 -11 0 -14 -3 -6 -6z"/>
<path d="M6748 4073 c7 -3 16 -2 19 1 4 3 -2 6 -13 5 -11 0 -14 -3 -6 -6z"/>
<path d="M5998 4063 c7 -3 16 -2 19 1 4 3 -2 6 -13 5 -11 0 -14 -3 -6 -6z"/>
<path d="M5928 4053 c6 -2 18 -2 25 0 6 3 1 5 -13 5 -14 0 -19 -2 -12 -5z"/>
<path d="M7865 4001 c-186 -76 -332 -146 -492 -237 -131 -75 -164 -97 -100
-70 371 158 807 373 740 365 -5 0 -71 -26 -148 -58z"/>
<path d="M6566 4041 c-3 -4 6 -6 19 -3 14 2 25 6 25 8 0 8 -39 4 -44 -5z"/>
<path d="M5808 4033 c7 -3 16 -2 19 1 4 3 -2 6 -13 5 -11 0 -14 -3 -6 -6z"/>
<path d="M5728 4023 c6 -2 18 -2 25 0 6 3 1 5 -13 5 -14 0 -19 -2 -12 -5z"/>
<path d="M5668 4013 c7 -3 16 -2 19 1 4 3 -2 6 -13 5 -11 0 -14 -3 -6 -6z"/>
<path d="M6318 3993 c7 -3 16 -2 19 1 4 3 -2 6 -13 5 -11 0 -14 -3 -6 -6z"/>
<path d="M7336 3914 c-132 -46 -298 -107 -370 -135 -149 -58 -456 -192 -451
-197 4 -5 317 104 535 185 263 99 572 232 535 232 -5 0 -118 -38 -249 -85z"/>
<path d="M5448 3983 c7 -3 16 -2 19 1 4 3 -2 6 -13 5 -11 0 -14 -3 -6 -6z"/>
<path d="M6218 3973 c7 -3 16 -2 19 1 4 3 -2 6 -13 5 -11 0 -14 -3 -6 -6z"/>
<path d="M5248 3953 c7 -3 16 -2 19 1 4 3 -2 6 -13 5 -11 0 -14 -3 -6 -6z"/>
<path d="M5108 3933 c7 -3 16 -2 19 1 4 3 -2 6 -13 5 -11 0 -14 -3 -6 -6z"/>
<path d="M5038 3923 c7 -3 16 -2 19 1 4 3 -2 6 -13 5 -11 0 -14 -3 -6 -6z"/>
<path d="M4978 3913 c7 -3 16 -2 19 1 4 3 -2 6 -13 5 -11 0 -14 -3 -6 -6z"/>
<path d="M4918 3903 c7 -3 16 -2 19 1 4 3 -2 6 -13 5 -11 0 -14 -3 -6 -6z"/>
<path d="M4848 3893 c6 -2 18 -2 25 0 6 3 1 5 -13 5 -14 0 -19 -2 -12 -5z"/>
<path d="M4778 3883 c6 -2 18 -2 25 0 6 3 1 5 -13 5 -14 0 -19 -2 -12 -5z"/>
<path d="M2571 3854 c0 -11 3 -14 6 -6 3 7 2 16 -1 19 -3 4 -6 -2 -5 -13z"/>
<path d="M4638 3863 c7 -3 16 -2 19 1 4 3 -2 6 -13 5 -11 0 -14 -3 -6 -6z"/>
<path d="M4863 3848 c-35 -5 -63 -14 -63 -19 0 -12 0 -12 105 10 93 20 67 26
-42 9z"/>
<path d="M4508 3843 c7 -3 16 -2 19 1 4 3 -2 6 -13 5 -11 0 -14 -3 -6 -6z"/>
<path d="M4418 3833 c7 -3 16 -2 19 1 4 3 -2 6 -13 5 -11 0 -14 -3 -6 -6z"/>
<path d="M2528 3813 c7 -3 16 -2 19 1 4 3 -2 6 -13 5 -11 0 -14 -3 -6 -6z"/>
<path d="M4658 3813 c7 -3 16 -2 19 1 4 3 -2 6 -13 5 -11 0 -14 -3 -6 -6z"/>
<path d="M4768 3813 c7 -3 16 -2 19 1 4 3 -2 6 -13 5 -11 0 -14 -3 -6 -6z"/>
<path d="M4566 3798 c3 -4 11 -5 19 -1 21 7 19 12 -4 10 -11 0 -18 -5 -15 -9z"/>
<path d="M4708 3803 c7 -3 16 -2 19 1 4 3 -2 6 -13 5 -11 0 -14 -3 -6 -6z"/>
<path d="M4480 3796 c0 -2 7 -7 16 -10 8 -3 12 -2 9 4 -6 10 -25 14 -25 6z"/>
<path d="M4625 3790 c-16 -7 -17 -9 -3 -9 9 -1 20 4 23 9 7 11 7 11 -20 0z"/>
<path d="M4078 3783 c7 -3 16 -2 19 1 4 3 -2 6 -13 5 -11 0 -14 -3 -6 -6z"/>
<path d="M4401 3773 c0 -11 3 -13 6 -5 2 6 10 9 15 6 7 -4 8 -2 4 4 -11 18
-26 14 -25 -5z"/>
<path d="M4008 3773 c7 -3 16 -2 19 1 4 3 -2 6 -13 5 -11 0 -14 -3 -6 -6z"/>
<path d="M4274 3755 c16 -17 51 -21 41 -5 -4 6 -10 8 -15 5 -5 -3 -11 -1 -15
5 -3 5 -11 10 -16 10 -6 0 -4 -7 5 -15z"/>
<path d="M4498 3763 c7 -3 16 -2 19 1 4 3 -2 6 -13 5 -11 0 -14 -3 -6 -6z"/>
<path d="M3848 3753 c7 -3 16 -2 19 1 4 3 -2 6 -13 5 -11 0 -14 -3 -6 -6z"/>
<path d="M6005 3750 c3 -5 12 -7 20 -3 21 7 19 13 -6 13 -11 0 -18 -4 -14 -10z"/>
<path d="M3768 3743 c7 -3 16 -2 19 1 4 3 -2 6 -13 5 -11 0 -14 -3 -6 -6z"/>
<path d="M5098 3743 c7 -3 16 -2 19 1 4 3 -2 6 -13 5 -11 0 -14 -3 -6 -6z"/>
<path d="M4018 3733 c7 -3 16 -2 19 1 4 3 -2 6 -13 5 -11 0 -14 -3 -6 -6z"/>
<path d="M3638 3723 c7 -3 16 -2 19 1 4 3 -2 6 -13 5 -11 0 -14 -3 -6 -6z"/>
<path d="M3956 3718 c3 -5 10 -6 15 -3 13 9 11 12 -6 12 -8 0 -12 -4 -9 -9z"/>
<path d="M5868 3723 c6 -2 18 -2 25 0 6 3 1 5 -13 5 -14 0 -19 -2 -12 -5z"/>
<path d="M2494 3630 c0 -52 1 -74 3 -47 2 26 2 68 0 95 -2 26 -3 4 -3 -48z"/>
<path d="M3558 3713 c7 -3 16 -2 19 1 4 3 -2 6 -13 5 -11 0 -14 -3 -6 -6z"/>
<path d="M3858 3713 c7 -3 16 -2 19 1 4 3 -2 6 -13 5 -11 0 -14 -3 -6 -6z"/>
<path d="M4208 3713 c7 -3 16 -2 19 1 4 3 -2 6 -13 5 -11 0 -14 -3 -6 -6z"/>
<path d="M4500 3704 c-47 -8 -121 -21 -165 -29 -44 -8 -101 -17 -127 -20 -154
-17 -642 -106 -656 -120 -11 -10 125 -5 223 10 156 23 413 72 585 110 58 13
140 31 183 40 42 9 77 19 77 21 0 6 -23 3 -120 -12z"/>
<path d="M4958 3713 c7 -3 16 -2 19 1 4 3 -2 6 -13 5 -11 0 -14 -3 -6 -6z"/>
<path d="M5828 3713 c7 -3 16 -2 19 1 4 3 -2 6 -13 5 -11 0 -14 -3 -6 -6z"/>
<path d="M3768 3703 c7 -3 16 -2 19 1 4 3 -2 6 -13 5 -11 0 -14 -3 -6 -6z"/>
<path d="M3338 3683 c7 -3 16 -2 19 1 4 3 -2 6 -13 5 -11 0 -14 -3 -6 -6z"/>
<path d="M3608 3683 c7 -3 16 -2 19 1 4 3 -2 6 -13 5 -11 0 -14 -3 -6 -6z"/>
<path d="M5688 3683 c7 -3 16 -2 19 1 4 3 -2 6 -13 5 -11 0 -14 -3 -6 -6z"/>
<path d="M6486 3668 c3 -5 10 -6 15 -3 13 9 11 12 -6 12 -8 0 -12 -4 -9 -9z"/>
<path d="M3198 3663 c7 -3 16 -2 19 1 4 3 -2 6 -13 5 -11 0 -14 -3 -6 -6z"/>
<path d="M5588 3663 c7 -3 16 -2 19 1 4 3 -2 6 -13 5 -11 0 -14 -3 -6 -6z"/>
<path d="M3008 3633 c7 -3 16 -2 19 1 4 3 -2 6 -13 5 -11 0 -14 -3 -6 -6z"/>
<path d="M2866 3611 c-13 -5 0 -8 35 -8 40 0 47 2 29 7 -32 10 -41 10 -64 1z"/>
<path d="M7714 3520 c0 -58 1 -81 3 -52 2 28 2 76 0 105 -2 28 -3 5 -3 -53z"/>
<path d="M3488 3593 c7 -3 16 -2 19 1 4 3 -2 6 -13 5 -11 0 -14 -3 -6 -6z"/>
<path d="M4791 3539 c-43 -13 -37 -17 16 -11 24 2 40 8 37 13 -6 10 -8 10 -53
-2z"/>
<path d="M3970 3486 c0 -2 7 -7 16 -10 8 -3 12 -2 9 4 -6 10 -25 14 -25 6z"/>
<path d="M3940 3346 c0 -2 11 -11 25 -20 14 -9 25 -13 25 -8 0 5 -11 14 -25
20 -14 6 -25 10 -25 8z"/>
<path d="M4115 3249 c-4 -6 -5 -12 -2 -15 2 -3 7 2 10 11 7 17 1 20 -8 4z"/>
<path d="M4156 3232 c-5 -9 8 -34 18 -33 19 3 27 0 22 -7 -2 -4 5 -9 17 -9 17
-2 14 3 -15 21 -21 12 -35 26 -31 29 3 4 4 7 0 7 -3 0 -8 -4 -11 -8z"/>
<path d="M4240 3159 c0 -5 5 -7 10 -4 6 3 10 8 10 11 0 2 -4 4 -10 4 -5 0 -10
-5 -10 -11z"/>
<path d="M4440 3039 c0 -5 5 -7 10 -4 6 3 10 8 10 11 0 2 -4 4 -10 4 -5 0 -10
-5 -10 -11z"/>
<path d="M5107 2859 c7 -7 15 -10 18 -7 3 3 -2 9 -12 12 -14 6 -15 5 -6 -5z"/>
<path d="M2304 2106 c-3 -8 -4 -29 -2 -48 3 -29 4 -27 8 15 5 48 3 58 -6 33z"/>
<path d="M2813 2113 c153 -2 401 -2 550 0 150 1 25 2 -278 2 -302 0 -425 -1
-272 -2z"/>
<path d="M3648 2113 c7 -3 16 -2 19 1 4 3 -2 6 -13 5 -11 0 -14 -3 -6 -6z"/>
<path d="M3773 2113 c48 -2 126 -2 175 0 48 1 8 3 -88 3 -96 0 -136 -2 -87 -3z"/>
<path d="M6728 2113 c222 -2 582 -2 800 0 218 1 37 2 -403 2 -440 0 -619 -1
-397 -2z"/>
<path d="M4120 1960 l-315 -5 323 -3 c214 -1 321 1 317 8 -3 6 -7 9 -8 8 -1
-2 -144 -5 -317 -8z"/>
<path d="M5837 1958 c-7 -4 461 -7 1038 -5 578 1 884 3 680 4 -951 7 -1708 7
-1718 1z"/>
<path d="M2698 1953 c195 -2 510 -2 700 0 191 1 32 2 -353 2 -385 0 -541 -1
-347 -2z"/>
</g>
</svg>
