<?xml version="1.0" standalone="no"?>
<!DOCTYPE svg PUBLIC "-//W3C//DTD SVG 20010904//EN"
 "http://www.w3.org/TR/2001/REC-SVG-20010904/DTD/svg10.dtd">
<svg version="1.0" xmlns="http://www.w3.org/2000/svg"
 width="1024.000000pt" height="1024.000000pt" viewBox="0 0 1024.000000 1024.000000"
 preserveAspectRatio="xMidYMid meet">

<g transform="translate(0.000000,1024.000000) scale(0.100000,-0.100000)"
fill="#000000" stroke="none">
<path d="M5000 8949 c-268 -10 -550 -48 -770 -104 -8 -2 -23 -4 -32 -4 -10 -1
-18 -6 -18 -11 0 -6 10 -8 23 -6 91 20 615 40 817 32 254 -10 363 -22 585 -68
201 -40 425 -105 598 -173 78 -31 193 -72 256 -90 115 -35 279 -70 287 -62 6
6 -109 91 -196 145 -180 112 -502 235 -751 286 -235 48 -493 66 -799 55z"/>
<path d="M4115 8669 c-278 -16 -550 -62 -830 -139 -133 -37 -363 -115 -375
-128 -3 -2 134 -2 303 1 314 6 648 -4 837 -24 997 -106 1865 -625 2214 -1325
116 -233 176 -458 176 -664 0 -96 -19 -291 -35 -365 l-7 -30 20 25 c23 28 11
34 131 -67 41 -35 77 -63 80 -63 4 0 12 13 18 30 10 27 9 32 -20 56 -18 15
-58 51 -91 81 l-58 54 30 62 c61 127 89 300 79 492 -17 300 -170 671 -410 990
-48 64 150 -149 227 -244 200 -247 329 -524 377 -805 18 -103 20 -149 16 -306
-4 -159 -9 -198 -31 -278 -79 -285 -244 -602 -400 -769 -63 -68 -63 -83 0 -30
21 17 59 47 84 66 306 235 553 622 621 976 15 77 19 365 6 458 -13 94 -62 278
-102 378 -83 209 -241 468 -413 674 -67 81 -70 85 -23 40 355 -338 533 -628
658 -1068 3 -11 6 -29 8 -40 2 -12 8 -48 15 -80 7 -35 10 -123 8 -213 -2 -85
0 -154 4 -154 3 0 56 53 118 117 220 231 323 398 381 618 18 66 22 116 24 290
3 156 1 196 -6 155 -33 -192 -188 -519 -338 -715 -46 -60 -46 -60 -49 -30 -20
239 -122 525 -271 763 -28 45 -49 82 -47 82 6 0 160 -209 201 -274 20 -32 65
-116 99 -186 l63 -129 -3 517 c-2 284 -4 577 -4 650 l0 132 -257 0 -256 0 40
-27 c22 -16 101 -73 177 -128 l136 -100 0 -41 c0 -22 -2 -43 -5 -46 -3 -3 -82
45 -175 106 -93 61 -207 135 -252 164 l-83 52 70 -62 c39 -35 154 -143 258
-242 l187 -178 0 -89 c0 -49 -3 -89 -7 -89 -5 0 -73 64 -153 143 -152 148
-341 296 -537 420 -110 69 -391 212 -518 262 -275 110 -633 203 -970 254 -195
30 -620 39 -940 20z m710 -299 c177 -48 293 -92 435 -167 95 -50 220 -130 220
-140 0 -3 -25 9 -56 27 -86 48 -377 169 -589 245 -104 37 -192 69 -194 71 -14
12 53 -1 184 -36z"/>
<path d="M7570 7848 c0 -302 3 -548 6 -548 10 0 92 187 113 257 71 239 43 499
-82 763 l-36 75 -1 -547z"/>
<path d="M2678 8243 c0 -5 -2 -275 -3 -602 -1 -474 -4 -596 -14 -599 -27 -9
-160 -134 -228 -214 -231 -272 -367 -584 -404 -923 -10 -89 -10 -146 -1 -257
22 -276 75 -445 213 -674 l49 -82 0 -439 0 -439 138 -69 c75 -37 138 -69 138
-69 1 -1 5 -16 9 -34 l7 -33 -40 7 -40 6 -7 -103 c-4 -57 -3 -146 2 -197 l8
-93 140 -86 c77 -47 183 -111 235 -143 52 -32 226 -138 385 -235 160 -98 369
-226 465 -285 698 -426 1012 -620 1298 -802 51 -32 99 -61 107 -64 7 -3 209
116 452 268 241 151 602 377 803 503 587 366 860 538 1103 692 l227 145 0 149
c0 95 -4 149 -10 149 -6 0 -41 -14 -78 -31 -103 -47 -509 -223 -682 -296 -468
-195 -721 -312 -940 -433 -158 -86 -565 -325 -736 -430 l-142 -88 -43 28
c-286 181 -1259 764 -1469 880 -279 154 -349 195 -350 201 0 9 113 29 245 45
33 3 67 8 75 9 8 1 35 6 60 10 25 4 54 9 65 11 11 2 126 22 255 44 129 22 278
48 330 59 52 11 118 22 145 26 125 15 567 103 525 104 -14 0 -81 -8 -150 -18
-69 -11 -147 -22 -175 -25 -115 -14 -218 -28 -345 -46 -74 -10 -162 -21 -195
-25 -33 -3 -73 -8 -90 -10 -16 -2 -50 -7 -75 -10 -46 -5 -201 -24 -630 -76
-261 -31 -408 -45 -400 -37 7 8 394 68 665 103 61 8 160 22 220 30 61 8 130
17 155 20 25 3 155 21 290 40 135 20 353 51 485 70 132 19 393 57 580 84 187
28 453 67 590 87 138 20 318 46 400 60 83 13 242 37 355 54 113 16 226 35 251
41 26 6 55 12 65 14 11 2 19 4 19 5 0 1 8 3 18 5 11 2 22 7 25 10 6 7 -51 2
-118 -9 -31 -5 -99 -14 -165 -21 -27 -3 -63 -8 -80 -10 -16 -2 -52 -7 -80 -10
-27 -4 -59 -9 -70 -12 -11 -3 -17 -2 -13 1 7 8 70 21 288 61 220 40 233 45
100 41 -128 -5 -102 2 105 27 118 14 274 27 366 29 l36 1 6 345 c4 190 7 618
7 951 -1 600 -1 606 -19 559 -39 -99 -140 -214 -242 -276 -19 -12 -49 -41 -66
-65 l-32 -44 67 -61 c37 -34 68 -62 70 -62 1 0 2 15 2 33 1 34 19 67 39 67 8
0 11 -180 11 -688 0 -379 -3 -692 -7 -695 -14 -15 -35 62 -40 149 l-6 91 -31
11 c-17 6 -121 29 -231 51 -190 38 -224 44 -305 57 -19 3 -93 17 -165 30 -174
34 -267 49 -410 69 -66 9 -121 18 -123 19 -1 2 -1 420 0 930 l3 927 100 -89
c55 -49 152 -135 215 -190 l115 -101 9 38 c9 43 17 34 -214 241 -63 56 -142
129 -175 161 l-60 59 -74 -15 c-40 -9 -75 -14 -76 -13 -1 2 -12 22 -24 45 -35
70 -77 109 -195 182 -133 82 -346 221 -346 227 0 2 26 -9 58 -25 79 -41 109
-51 126 -45 8 3 12 12 10 19 -9 22 13 26 53 10 l38 -15 -25 19 c-40 32 -259
166 -448 276 -239 138 -424 231 -497 250 -105 28 -524 19 -755 -16 -176 -26
-150 -21 -380 -73 -58 -14 -107 -23 -109 -20 -2 2 33 20 77 41 84 39 105 60
51 49 -17 -3 -122 -6 -233 -6 l-201 0 -2 -160 c-2 -144 -4 -163 -22 -189 -27
-37 -61 -117 -61 -142 0 -12 -16 -27 -50 -44 -27 -14 -52 -25 -55 -25 -3 0 -5
222 -5 494 l0 495 22 7 c12 3 137 5 277 3 141 -2 445 -2 675 -1 l420 2 -34 35
-34 35 -708 0 c-389 0 -709 -3 -710 -7z m1804 -627 c73 -15 161 -47 250 -92
50 -25 328 -190 337 -200 3 -4 -39 16 -95 44 -150 75 -252 121 -282 128 -21 4
-18 0 14 -18 23 -13 55 -34 70 -47 l29 -23 -28 16 c-26 16 -167 56 -191 56 -6
-1 24 -15 67 -31 84 -33 100 -52 20 -25 -48 17 -173 34 -173 24 0 -3 31 -16
70 -28 90 -29 127 -65 42 -40 -49 13 -278 22 -321 11 -20 -5 -78 -12 -129 -15
-52 -4 -133 -13 -180 -21 -163 -27 -162 -27 -163 -7 -1 11 -4 9 -9 -8 -4 -14
-8 -19 -9 -12 -1 6 -6 12 -12 12 -5 0 -7 -4 -4 -10 3 -5 -3 -10 -14 -10 -10 0
-22 6 -24 13 -3 7 -6 5 -6 -5 -1 -10 -5 -18 -11 -18 -5 0 -10 8 -11 18 0 16
-1 16 -8 -1 -4 -10 -9 -18 -11 -18 -3 0 -21 -4 -40 -8 -26 -6 -39 -4 -49 7
-11 11 -15 11 -21 2 -4 -7 -13 -9 -19 -6 -6 4 -11 2 -11 -4 0 -6 -4 -8 -10 -5
-5 3 -10 1 -10 -5 0 -7 8 -9 23 -4 12 3 19 4 16 0 -4 -4 -20 -11 -37 -15 -25
-8 -30 -6 -25 5 3 8 0 14 -6 14 -6 0 -11 -8 -11 -18 0 -11 -8 -18 -20 -19 -11
-1 -20 2 -20 8 0 5 8 9 17 9 9 0 14 3 11 6 -11 10 -87 -16 -97 -34 -8 -13 -10
-13 -11 -3 0 11 -4 10 -16 -5 -8 -10 -13 -14 -10 -7 4 6 2 14 -4 18 -5 3 -10
1 -10 -5 0 -6 -4 -9 -9 -5 -5 3 -12 1 -16 -5 -3 -5 -14 -10 -24 -10 -19 0
-122 -40 -131 -50 -3 -4 -14 -10 -24 -13 -10 -4 -17 -9 -15 -12 5 -4 130 26
294 70 91 25 327 78 400 91 17 3 77 13 135 24 161 28 335 43 424 37 87 -7 188
-38 227 -69 24 -19 24 -19 -16 -2 -82 35 -376 29 -595 -12 -553 -103 -827
-174 -1003 -261 l-48 -24 7 28 c47 199 142 337 280 406 86 42 298 105 464 136
267 50 657 73 792 47z m-872 -320 c0 -3 -4 -8 -10 -11 -5 -3 -10 -1 -10 4 0 6
5 11 10 11 6 0 10 -2 10 -4z m1427 -101 c59 -30 155 -84 213 -120 58 -36 156
-93 218 -126 l112 -60 0 -243 c0 -196 3 -246 14 -255 12 -10 15 11 20 136 11
242 17 303 31 303 15 0 24 -51 26 -140 2 -113 16 -136 18 -28 l1 96 31 7 c17
4 32 5 35 3 7 -7 18 -558 11 -558 -3 0 -33 18 -67 41 -71 47 -301 174 -452
250 -56 28 -128 67 -158 87 -62 40 -235 122 -257 122 -50 0 2 63 191 226 l79
68 41 -23 c76 -43 343 -181 349 -181 24 0 -8 24 -115 88 -68 40 -134 82 -148
93 l-25 19 27 -9 c15 -6 50 -22 78 -36 29 -15 49 -22 46 -17 -7 11 -227 119
-260 128 -16 4 -36 -6 -73 -35 -81 -63 -240 -220 -264 -257 -21 -34 -21 -36
-3 -55 18 -20 18 -20 -11 -13 -17 4 -33 9 -37 11 -5 2 -8 61 -9 131 -2 188
-18 102 -25 -133 l-6 -190 138 -50 c78 -28 149 -60 163 -73 13 -13 25 -21 28
-18 13 12 -55 60 -158 111 -108 53 -159 88 -148 100 8 7 119 -39 242 -102 81
-41 107 -59 107 -74 0 -14 14 -26 47 -40 26 -11 51 -26 55 -32 4 -7 8 -105 8
-219 0 -237 7 -221 -98 -232 -73 -8 -94 -1 -64 23 20 16 21 21 14 230 -7 205
-8 214 -27 217 -12 2 -83 33 -159 69 -77 36 -140 64 -142 63 -1 -2 -5 -291 -8
-643 -3 -352 -10 -662 -15 -690 -8 -50 -8 -49 -10 30 -1 44 -8 170 -16 280 -8
110 -15 214 -17 230 -3 52 -15 -263 -17 -440 0 -93 -4 -215 -8 -270 -7 -97 -8
-98 -14 -45 -4 30 -12 197 -19 370 -6 173 -15 353 -19 400 -6 75 -8 58 -14
-140 -13 -376 -27 -663 -32 -668 -16 -17 -21 49 -27 406 -3 218 -6 425 -7 458
l-1 61 -86 -14 c-147 -23 -170 -49 -34 -39 50 4 90 3 90 -1 -1 -20 -21 -30
-100 -49 -47 -12 -83 -25 -80 -30 3 -5 40 -8 83 -6 72 3 77 2 77 -17 0 -14 -6
-21 -20 -21 -34 0 -150 -32 -150 -41 0 -4 37 -9 83 -11 65 -2 82 -6 82 -18 0
-11 -22 -19 -79 -31 -107 -21 -109 -36 -4 -35 69 1 83 -2 86 -16 2 -12 -7 -18
-40 -23 -76 -12 -128 -27 -128 -37 0 -5 15 -9 33 -7 82 5 137 -1 137 -16 0 -8
-7 -15 -16 -15 -8 0 -46 -7 -85 -16 -97 -22 -91 -40 11 -36 76 4 80 3 80 -17
0 -14 -7 -21 -20 -22 -11 -1 -23 -2 -27 -3 -5 -2 -29 -6 -55 -10 -26 -5 -53
-15 -60 -23 -11 -13 -2 -15 72 -12 74 4 85 2 88 -13 3 -13 -3 -18 -20 -18 -36
0 -139 -34 -138 -45 0 -6 32 -9 81 -6 65 2 80 0 77 -10 -3 -8 -22 -19 -44 -25
-29 -8 -34 -12 -19 -16 11 -2 -6 -8 -37 -12 -94 -12 -83 -29 16 -25 61 3 86 1
86 -8 0 -6 -15 -14 -32 -18 -68 -14 -138 -39 -135 -48 2 -6 37 -9 80 -8 60 2
77 -1 77 -12 0 -9 -24 -17 -77 -25 -113 -18 -114 -36 -3 -40 93 -3 119 -17 53
-27 -21 -3 -57 -10 -80 -16 -23 -5 -58 -9 -78 -9 l-36 0 3 459 3 459 24 26
c13 14 38 30 55 35 63 20 188 34 261 29 l75 -5 1 51 c14 945 19 1030 68 1142
26 58 98 128 152 147 80 28 117 22 236 -38z m-465 19 c72 -20 77 -42 11 -46
l-46 -3 -18 -54 c-10 -29 -22 -77 -25 -105 -6 -45 -5 -50 8 -38 9 7 19 29 23
50 4 20 13 49 21 64 8 15 14 36 14 46 0 11 7 22 15 26 19 7 20 -17 1 -47 -8
-12 -22 -51 -33 -86 -13 -46 -24 -66 -40 -72 -21 -8 -43 -37 -43 -58 0 -5 16
-15 35 -22 23 -9 34 -18 30 -27 -3 -7 -5 -63 -5 -123 l0 -110 -40 22 c-67 38
-67 39 -59 184 4 72 12 158 19 193 11 56 9 85 -5 70 -7 -7 -45 -235 -52 -315
-6 -72 -6 -73 -32 -66 -71 17 -70 15 -65 95 7 98 30 236 50 295 21 61 48 100
88 124 38 23 72 24 148 3z m-282 -21 c0 -3 -6 -14 -14 -22 -28 -31 -54 -89
-67 -144 -7 -32 -17 -56 -23 -55 -48 8 -577 -83 -885 -153 -174 -40 -438 -135
-404 -146 5 -2 81 13 169 32 87 20 200 45 249 56 234 53 610 107 853 124 81 6
91 5 86 -8 -3 -10 -28 -20 -62 -27 -75 -15 -83 -18 -47 -19 17 -1 46 3 64 9
33 9 51 7 39 -5 -3 -3 -72 -17 -154 -30 -82 -14 -158 -28 -169 -32 -34 -11 44
-23 85 -13 62 15 240 24 240 11 0 -6 -16 -11 -35 -11 -19 0 -83 -7 -142 -15
-59 -8 -126 -17 -148 -19 -116 -12 -444 -65 -620 -102 -11 -2 -33 -6 -50 -9
-16 -4 -59 -13 -94 -21 -35 -9 -91 -22 -125 -29 -33 -7 -96 -23 -140 -35 -43
-11 -81 -19 -83 -16 -8 7 24 196 41 244 21 59 71 128 116 161 81 59 348 134
765 216 215 42 555 78 555 58z m1397 -415 c-3 -7 -5 -2 -5 12 0 14 2 19 5 13
2 -7 2 -19 0 -25z m-807 -111 c88 -33 197 -84 204 -96 6 -9 -202 76 -279 115
-40 19 -5 11 75 -19z m-40 -43 c179 -83 839 -417 889 -449 l41 -28 -2 -591 -3
-591 -69 -37 c-38 -21 -73 -38 -78 -38 -4 0 -8 20 -8 44 0 43 2 45 38 56 20 7
43 19 50 28 9 12 12 118 11 461 -1 330 -4 428 -11 376 -5 -39 -8 -235 -5 -442
4 -402 7 -383 -48 -383 l-24 0 4 418 c2 229 1 484 -3 565 l-7 148 -170 88
c-93 48 -261 135 -373 195 -112 59 -240 123 -285 141 -44 19 -84 40 -89 47
-13 21 -10 61 5 55 6 -3 68 -31 137 -63z m-2165 -211 c-3 -13 -28 -40 -55 -60
l-50 -37 0 -62 c0 -90 -11 -154 -26 -154 -7 0 -26 -12 -43 -26 l-31 -26 0
-554 c0 -305 -4 -554 -8 -554 -13 0 -77 120 -115 216 -71 177 -82 242 -82 489
0 197 3 230 24 315 57 230 196 497 344 657 l42 46 3 -114 c1 -63 0 -124 -3
-136z m1255 166 c-52 -10 -256 -45 -380 -65 -142 -23 -148 -24 -172 -33 -13
-4 -29 -6 -35 -4 -8 3 -13 -4 -13 -15 0 -15 5 -18 25 -14 14 2 25 7 25 11 0 4
12 6 26 6 14 -1 87 7 162 17 75 10 155 21 177 24 22 3 51 7 65 10 66 15 159
24 306 30 134 6 170 4 210 -9 59 -19 188 -77 183 -82 -2 -1 -51 8 -109 21 -58
13 -134 24 -170 24 -114 0 -504 -42 -640 -70 -25 -5 -63 -11 -85 -14 -99 -13
-307 -56 -510 -107 -197 -50 -259 -70 -277 -91 -18 -20 -18 -20 -18 14 0 29 9
44 58 90 74 71 94 81 254 122 192 51 375 85 608 116 203 26 411 39 310 19z
m-48 -296 c-11 -10 -60 -45 -108 -78 -166 -114 -260 -188 -304 -241 l-25 -29
25 21 c14 12 84 61 155 110 72 48 170 119 219 156 50 37 92 66 94 64 9 -10
-151 -140 -313 -256 -49 -35 -115 -84 -145 -109 -37 -30 -56 -40 -57 -30 -2 8
12 88 31 179 l33 165 49 8 c27 4 60 9 74 11 14 2 61 9 105 16 44 6 98 15 120
19 64 14 70 13 47 -6z m1551 -106 l148 -72 -4 -518 c-2 -284 -6 -519 -8 -521
-2 -3 -60 9 -129 25 -69 16 -149 35 -177 41 -66 15 -70 33 -5 25 123 -16 126
-16 67 -2 -33 8 -70 17 -82 20 -13 3 -23 13 -23 21 0 13 7 15 33 10 17 -4 52
-9 77 -11 l45 -5 -50 14 c-27 8 -63 17 -78 20 -20 5 -27 11 -23 21 3 8 1 15
-4 15 -6 0 -10 25 -10 55 0 37 4 55 13 55 6 0 46 -9 87 -20 85 -22 98 -24 84
-11 -5 5 -49 21 -97 36 -49 15 -91 33 -94 41 -13 34 15 34 123 -1 60 -20 125
-37 144 -38 l35 -2 0 89 c0 68 -3 90 -14 94 -10 3 -12 0 -8 -12 8 -20 3 -20
-29 0 -41 27 -39 8 3 -21 l38 -27 -38 7 c-31 5 -37 4 -31 -7 15 -23 16 -61 2
-56 -7 3 -59 19 -115 37 l-103 32 0 384 0 385 38 -15 c20 -8 104 -48 185 -88z
m-2051 36 c-7 -3 -25 -15 -40 -27 -15 -12 -99 -73 -188 -134 -88 -61 -194
-144 -235 -182 l-74 -71 120 87 c66 48 152 111 190 139 120 88 177 127 181
123 4 -5 -198 -166 -331 -265 -44 -33 -89 -70 -100 -82 l-19 -22 26 10 c23 9
93 20 233 37 22 3 112 16 200 29 254 38 517 64 695 69 91 3 152 3 135 0 -40
-6 -419 -54 -515 -64 -168 -19 -550 -73 -770 -109 -133 -22 -184 -26 -163 -13
8 5 21 76 34 188 11 98 24 182 27 186 14 13 591 119 602 110 3 -3 -1 -7 -8 -9z
m626 -929 l-3 -549 -50 -7 c-52 -7 -305 -32 -480 -48 -55 -5 -149 -14 -210
-19 -60 -6 -144 -13 -185 -16 -41 -3 -103 -8 -136 -11 -85 -8 -169 16 -178 51
-4 14 -6 243 -6 509 l1 485 57 6 c69 8 220 32 282 45 25 5 65 11 90 14 66 7
334 43 495 65 77 11 176 23 220 27 44 4 82 8 84 10 18 16 21 -76 19 -562z
m768 517 c268 -86 382 -121 392 -121 8 0 12 -24 12 -80 0 -44 -1 -80 -3 -80
-2 0 -59 16 -128 35 -68 20 -141 38 -161 41 -23 4 -38 12 -38 20 0 8 1 14 3
14 1 0 34 -6 74 -14 41 -8 77 -10 85 -5 12 8 -9 13 -49 12 -7 -1 -10 3 -7 8 3
5 -4 9 -15 9 -11 0 -32 5 -46 12 -22 10 -28 9 -36 -3 -7 -11 -9 -11 -9 4 0 9
-4 17 -9 17 -6 0 -10 -120 -11 -295 0 -162 -3 -301 -6 -310 -4 -8 -12 -15 -19
-15 -16 0 -25 67 -25 204 -1 128 -23 423 -33 433 -6 5 -11 -110 -8 -197 6
-241 15 -421 21 -405 6 17 8 16 14 -9 5 -21 2 -34 -11 -48 -26 -29 -28 -15
-31 219 -2 115 -7 258 -13 318 -9 108 -12 255 -6 255 2 0 30 -9 63 -19z m216
-291 c171 -47 198 -58 198 -87 0 -14 -4 -22 -10 -18 -11 7 -258 75 -272 75 -5
0 -8 -4 -8 -9 0 -5 37 -19 83 -30 45 -12 110 -32 145 -43 l62 -22 -7 -50 c-5
-28 -8 -84 -7 -124 1 -61 -2 -72 -15 -68 -9 2 -65 14 -126 26 l-110 22 -1 105
c-2 93 -7 125 -18 112 -2 -2 -6 -72 -9 -155 l-5 -152 81 -11 c97 -14 600 -112
607 -118 3 -3 -3 -10 -13 -17 -18 -14 -24 -32 -7 -21 6 3 10 1 10 -4 0 -6 -9
-11 -20 -11 -48 0 -274 42 -298 55 -29 15 -22 21 6 6 9 -5 55 -11 102 -14 107
-7 75 2 -155 44 -155 28 -317 63 -348 75 -15 5 -10 104 5 104 7 0 7 40 2 118
-11 155 -7 242 11 242 3 0 55 -14 117 -30z m53 -534 c134 -27 146 -35 198
-139 47 -94 60 -159 64 -344 6 -194 -10 -240 -21 -65 -11 167 -47 303 -87 328
-6 3 -4 -4 5 -17 45 -70 74 -269 51 -359 -11 -43 -12 -41 -17 70 -12 228 -90
360 -213 360 -72 0 -143 -69 -178 -174 -16 -46 -34 -192 -40 -321 -2 -35 -4
-18 -5 40 -1 55 3 142 8 194 6 52 8 96 6 98 -12 12 -28 -127 -35 -290 -5 -123
-9 -155 -10 -97 -2 47 -4 117 -6 155 -7 181 38 385 99 453 32 35 35 36 105 35
40 -1 95 -7 122 -13 53 -13 74 -8 41 9 -26 14 -167 43 -214 44 -20 0 -47 -5
-60 -12 -34 -18 -89 -95 -110 -154 l-19 -52 6 53 c8 73 42 161 76 194 35 36
72 36 234 4z m-424 -198 l70 -11 -3 -46 c-3 -42 -5 -46 -28 -43 -54 5 -309 3
-392 -3 l-88 -7 0 56 0 55 73 4 c170 8 303 6 368 -5z m876 -14 c100 -16 145
-30 63 -20 -159 20 -220 29 -220 32 0 8 63 4 157 -12z m620 -54 c-53 -62 -107
-229 -107 -332 0 -26 -5 -50 -11 -54 -19 -11 -7 293 13 331 20 37 55 71 88 84
47 19 52 11 17 -29z m273 -9 c0 -5 -6 -11 -13 -14 -18 -7 -44 -61 -78 -161
l-27 -80 -7 71 c-4 39 -4 82 0 95 12 37 53 86 77 91 40 8 48 7 48 -2z m-720
-30 c63 -6 159 -13 214 -16 l98 -7 -6 -47 c-3 -25 -9 -115 -13 -198 -3 -84
-10 -153 -14 -153 -13 0 -17 32 -24 162 -4 64 -10 129 -14 145 -9 31 -10 26
-29 -172 l-9 -90 -3 120 c-2 107 -3 114 -11 65 -4 -30 -9 -79 -10 -108 -1 -29
-6 -55 -11 -58 -5 -3 -6 -14 -3 -25 6 -18 0 -19 -87 -19 -51 0 -144 -3 -205
-7 l-113 -6 0 56 0 57 185 0 186 0 -3 72 -3 73 -80 11 c-81 11 -148 20 -240
30 -79 8 -95 13 -95 30 0 10 6 14 18 10 9 -3 58 -8 107 -11 50 -3 119 -10 155
-15 83 -12 107 -12 95 -1 -11 10 -58 16 -190 27 -44 4 -82 10 -85 15 -4 5 -26
10 -50 13 -41 3 -45 6 -51 36 l-7 33 91 -6 c51 -4 144 -11 207 -16z m-3050
-50 c0 -48 0 -48 -37 -55 -21 -3 -64 -6 -96 -6 l-58 0 3 48 3 47 70 6 c39 3
80 6 93 7 20 2 22 -2 22 -47z m4176 29 c47 -14 -3 -10 -76 5 l-65 15 56 -6
c32 -3 70 -9 85 -14z m-2136 -20 l25 -6 -3 -225 -3 -224 -43 -3 -43 -3 -6 68
c-4 37 -7 130 -7 206 0 124 -2 137 -17 137 -83 -2 -355 -30 -372 -39 -31 -17
-26 -21 13 -10 39 11 319 8 302 -3 -6 -4 -22 -8 -35 -8 -43 0 -271 -33 -271
-39 0 -3 71 -5 157 -3 87 2 155 1 152 -2 -4 -5 -278 -36 -311 -36 -5 0 -8 -6
-8 -14 0 -10 36 -15 163 -22 89 -5 144 -10 122 -11 -54 -4 -222 -23 -262 -30
-19 -3 -33 -11 -33 -19 0 -11 18 -14 73 -15 39 -1 106 -4 147 -8 74 -6 74 -6
-60 -14 -146 -9 -180 -14 -180 -28 0 -5 53 -10 118 -10 l117 -2 -85 -9 c-47
-5 -137 -18 -200 -28 l-115 -19 200 5 c265 7 235 -10 -45 -25 -118 -6 -348
-20 -510 -31 -299 -21 -887 -50 -970 -49 -61 1 -41 6 55 15 l80 7 -57 16 c-31
9 -60 19 -64 24 -4 4 -37 7 -73 8 -36 0 -86 4 -111 8 -43 8 -42 9 30 12 41 2
87 3 103 3 30 1 31 4 17 26 -7 11 -34 16 -107 19 -64 3 -89 7 -73 12 14 4 39
7 55 8 55 2 105 20 98 36 -4 12 -25 15 -90 15 -46 0 -82 4 -79 9 3 4 39 14 81
20 53 9 75 17 75 27 0 11 -19 14 -90 14 -49 0 -90 4 -90 9 0 10 77 31 114 31
14 0 26 4 26 10 0 6 -23 10 -52 9 -98 -2 -98 -2 -98 30 0 27 4 30 43 36 24 4
74 7 112 8 l69 2 31 -135 c35 -154 45 -177 82 -186 22 -6 174 0 333 12 76 5
499 33 600 39 260 14 297 17 328 27 17 5 37 18 43 29 5 11 19 74 30 141 20
126 37 167 67 169 9 0 82 6 162 13 138 12 286 11 340 -4z m2238 3 c-10 -2 -26
-2 -35 0 -10 3 -2 5 17 5 19 0 27 -2 18 -5z m-394 -81 c17 -48 21 -168 7 -190
-5 -8 -10 20 -14 70 -3 46 -15 109 -25 141 -19 55 -19 57 -1 41 10 -9 25 -37
33 -62z m-2575 64 c-6 -6 -214 -32 -364 -45 -66 -6 -190 -18 -275 -26 -206
-20 -450 -29 -430 -17 17 11 134 23 665 67 268 22 413 29 404 21z m2971 -52
c0 -29 -13 -44 -34 -39 -11 2 -42 7 -67 10 -39 5 -48 10 -51 30 -3 14 -4 26
-2 28 2 1 37 -1 79 -7 48 -6 75 -14 75 -22z m80 -19 c0 -41 -2 -45 -25 -45
-28 0 -32 20 -15 64 16 44 40 33 40 -19z m74 29 c3 -9 6 -31 6 -50 0 -27 -4
-34 -20 -34 -15 0 -20 7 -20 28 0 59 20 92 34 56z m86 -13 c21 -39 8 -81 -25
-81 -8 0 -16 61 -10 80 8 25 21 26 35 1z m-967 -28 c17 -20 20 -36 18 -113 -1
-51 -2 -53 -18 -37 -11 10 -18 38 -21 77 -7 99 -41 91 -43 -10 0 -30 -4 -64
-9 -75 -6 -17 -9 -14 -15 18 -9 48 0 99 26 131 24 30 40 33 62 9z m-1104 -8
c119 -61 74 -465 -52 -465 -14 0 -8 10 24 40 45 41 46 52 4 24 -18 -12 -29
-13 -42 -5 -16 9 -15 10 7 11 35 0 90 36 89 57 0 15 -2 14 -9 -3 -12 -29 -58
-37 -94 -16 -85 49 -103 264 -28 334 43 40 61 44 101 23z m-1169 -14 c-19 -11
-337 -46 -595 -66 -110 -8 -222 -17 -250 -20 -101 -9 -292 -9 -283 1 11 10
221 33 460 49 134 9 311 23 393 30 181 15 296 18 275 6z m1713 -7 l147 -6 0
-30 0 -31 -107 7 c-60 3 -147 7 -195 8 l-88 2 0 26 c0 36 8 41 54 36 23 -3
107 -8 189 -12z m792 -14 c38 -42 24 -214 -20 -250 -21 -17 -32 -4 -17 20 10
16 8 19 -11 22 -12 2 -23 11 -25 23 -4 20 -3 20 11 1 31 -42 74 15 56 76 -5
18 -9 47 -9 64 0 34 -23 63 -35 44 -4 -6 -4 -39 0 -73 6 -52 5 -60 -6 -49 -18
17 -18 104 0 125 18 22 34 21 56 -3z m743 -73 c2 -28 -1 -37 -12 -37 -18 0
-31 42 -22 66 10 27 31 9 34 -29z m-3328 24 c0 -5 -35 -12 -78 -16 -126 -11
-119 -24 11 -21 123 4 158 -7 60 -18 -264 -29 -773 -66 -898 -65 -115 1 -113
9 10 27 l60 9 -51 2 c-28 0 -67 4 -85 8 -33 7 149 29 396 48 50 4 158 13 240
20 183 15 335 18 335 6z m3058 -28 c-2 -30 -7 -38 -23 -38 -24 0 -33 38 -15
61 24 28 41 17 38 -23z m98 15 c-3 -13 -6 -31 -6 -40 0 -22 -28 -24 -37 -2 -8
22 13 64 33 64 12 0 15 -6 10 -22z m84 -18 c0 -29 -4 -40 -15 -40 -11 0 -15
11 -15 40 0 29 4 40 15 40 11 0 15 -11 15 -40z m-860 -89 c-20 -68 -39 -92
-72 -90 -7 0 -4 4 7 9 18 8 17 9 -7 9 -16 1 -28 5 -28 10 0 6 12 6 31 1 22 -7
29 -6 26 3 -2 6 -14 14 -28 17 -22 6 -22 7 9 13 35 7 57 43 70 116 6 33 7 34
10 9 2 -15 -6 -58 -18 -97z m-3490 -181 c19 -12 -166 -12 -195 0 -13 6 15 9
80 9 55 0 107 -4 115 -9z m-107 -37 c-13 -2 -35 -2 -50 0 -16 2 -5 4 22 4 28
0 40 -2 28 -4z"/>
<path d="M4256 7419 c-132 -14 -109 -19 54 -12 85 4 171 6 190 5 26 -1 31 1
20 8 -18 11 -151 11 -264 -1z"/>
<path d="M3895 7370 c-11 -4 -23 -6 -27 -3 -5 2 -8 -1 -8 -7 0 -11 47 -6 59 6
9 9 -5 11 -24 4z"/>
<path d="M3940 7369 c0 -5 5 -7 10 -4 6 3 10 8 10 11 0 2 -4 4 -10 4 -5 0 -10
-5 -10 -11z"/>
<path d="M4877 7109 c-38 -20 -84 -70 -98 -107 -5 -14 -12 -55 -15 -91 l-5
-66 24 50 c14 29 54 78 94 117 46 44 65 69 57 72 -8 3 -14 -1 -14 -9 0 -8 -9
-19 -20 -25 -12 -6 -20 -7 -20 -1 0 5 5 11 10 13 6 2 12 13 13 25 0 12 4 21 7
21 17 -1 30 3 30 10 0 14 -25 10 -63 -9z"/>
<path d="M4955 7110 c3 -5 12 -10 20 -10 8 0 17 5 20 10 4 6 -5 10 -20 10 -15
0 -24 -4 -20 -10z"/>
<path d="M5065 6869 c-28 -27 -71 -67 -97 -87 -27 -20 -48 -41 -48 -47 0 -12
637 -331 646 -323 3 4 -5 13 -18 21 -12 7 -66 41 -119 75 -95 61 -396 223
-437 236 -12 4 -22 12 -22 17 0 13 33 11 55 -4 11 -8 43 -22 70 -32 28 -10 63
-27 78 -38 16 -10 30 -17 33 -14 3 3 -37 29 -88 58 -51 29 -95 54 -97 56 -3 2
2 10 10 18 13 13 31 7 154 -56 77 -39 155 -82 173 -96 l32 -24 0 75 0 75 -42
29 c-70 47 -194 112 -215 112 -10 0 -41 -23 -68 -51z"/>
<path d="M5090 6297 c-9 -10 1 -357 10 -357 6 0 9 36 9 83 -2 116 -13 280 -19
274z"/>
<path d="M5034 6108 c0 -93 4 -168 8 -168 9 0 9 165 -1 265 -5 51 -7 24 -7
-97z"/>
<path d="M4115 7060 c-13 -6 -15 -9 -5 -9 8 0 22 4 30 9 18 12 2 12 -25 0z"/>
<path d="M4045 7040 c-7 -12 2 -12 30 0 19 8 19 9 -2 9 -12 1 -25 -3 -28 -9z"/>
<path d="M3980 7030 c-24 -8 -24 -8 7 -9 17 -1 35 4 38 9 7 11 -9 11 -45 0z"/>
<path d="M4105 7024 c-44 -8 -100 -16 -125 -19 -54 -7 -108 -23 -115 -34 -2
-5 6 -7 18 -5 99 15 162 22 168 18 4 -2 9 0 11 6 2 6 32 15 68 21 35 5 66 12
68 14 11 11 -23 10 -93 -1z"/>
<path d="M3848 6993 c-10 -2 -18 -9 -18 -14 0 -6 -3 -8 -8 -6 -11 8 -116 -13
-127 -25 -10 -9 36 -5 95 9 14 4 29 5 34 4 5 -1 12 2 15 7 3 5 15 14 26 20 20
12 14 13 -17 5z"/>
<path d="M3645 6940 c3 -5 12 -7 20 -3 21 7 19 13 -6 13 -11 0 -18 -4 -14 -10z"/>
<path d="M3579 6935 c-2 -2 -62 -15 -133 -30 -71 -14 -133 -28 -138 -31 -5 -3
-16 0 -24 7 -12 10 -13 9 -8 -7 4 -10 4 -16 0 -13 -4 4 -32 0 -63 -8 -30 -8
-58 -12 -61 -9 -3 3 2 6 11 6 9 0 17 5 17 10 0 11 -11 13 -34 4 -9 -3 -12 -12
-9 -22 5 -12 2 -14 -11 -9 -9 4 -15 3 -12 -2 3 -5 -1 -12 -10 -15 -22 -8 -26
-8 -19 4 3 5 -7 3 -22 -5 -15 -8 -34 -15 -40 -15 -7 0 -13 -4 -13 -10 0 -12
45 -4 140 25 110 33 185 52 275 70 119 23 181 40 169 48 -6 3 -13 5 -15 2z"/>
<path d="M3610 6929 c0 -5 5 -7 10 -4 6 3 10 8 10 11 0 2 -4 4 -10 4 -5 0 -10
-5 -10 -11z"/>
<path d="M3390 6920 c-9 -6 -10 -10 -3 -10 6 0 15 5 18 10 8 12 4 12 -15 0z"/>
<path d="M3328 6903 c7 -3 16 -2 19 1 4 3 -2 6 -13 5 -11 0 -14 -3 -6 -6z"/>
<path d="M4073 6823 c9 -2 23 -2 30 0 6 3 -1 5 -18 5 -16 0 -22 -2 -12 -5z"/>
<path d="M3782 6746 c-83 -17 -51 -25 36 -9 42 8 79 17 81 19 8 8 -64 2 -117
-10z"/>
<path d="M3688 6723 c6 -2 18 -2 25 0 6 3 1 5 -13 5 -14 0 -19 -2 -12 -5z"/>
<path d="M3300 6464 c0 -5 -20 -10 -44 -10 -75 -2 -196 -33 -196 -51 0 -12 7
-14 28 -10 15 4 59 13 97 21 39 9 79 16 90 16 33 1 52 17 37 32 -6 6 -12 8
-12 2z"/>
<path d="M3000 6402 c-37 -12 -41 -16 -25 -22 11 -4 21 -4 23 1 2 4 9 6 15 4
16 -6 41 10 36 22 -3 6 -22 4 -49 -5z"/>
<path d="M2885 6360 c-3 -5 -1 -10 4 -10 6 0 11 5 11 10 0 6 -2 10 -4 10 -3 0
-8 -4 -11 -10z"/>
<path d="M5258 5888 l2 -313 30 -6 c20 -4 27 -3 23 5 -8 13 -8 10 -18 289 -4
114 -5 207 -3 207 1 0 50 -18 108 -40 58 -22 109 -40 115 -40 5 0 -43 29 -108
64 -123 65 -145 81 -134 92 4 4 58 -16 121 -44 132 -61 166 -67 82 -16 -52 31
-210 114 -218 114 -2 0 -2 -141 0 -312z"/>
<path d="M5329 5925 c-3 -27 -3 -106 0 -175 l6 -125 5 123 c3 68 3 146 0 175
l-6 52 -5 -50z"/>
<path d="M5405 5130 c11 -5 27 -9 35 -9 9 0 8 4 -5 9 -11 5 -27 9 -35 9 -9 0
-8 -4 5 -9z"/>
<path d="M3770 5761 c-133 -27 -307 -57 -385 -67 -22 -2 -71 -11 -110 -18 -38
-8 -92 -17 -120 -20 -27 -3 -60 -8 -71 -10 -12 -2 -38 -7 -58 -10 -20 -3 -55
-10 -78 -15 -23 -6 -45 -6 -48 -2 -8 14 -84 31 -93 22 -4 -4 -7 -37 -5 -72 l3
-64 35 1 c19 0 112 13 205 28 94 15 202 31 240 36 210 27 387 49 440 54 33 4
79 9 103 12 23 4 42 2 42 -3 0 -5 -48 -18 -107 -30 l-108 -22 80 5 c44 3 99 7
123 11 23 3 42 1 42 -4 0 -15 -297 -70 -725 -132 -256 -38 -260 -38 -281 -20
-22 21 -79 41 -88 31 -3 -3 -6 -43 -6 -89 0 -94 -7 -89 100 -73 36 6 135 19
220 30 85 11 200 27 255 35 105 15 341 40 460 49 90 7 67 -7 -45 -28 -47 -9
-105 -20 -130 -25 -42 -9 -41 -10 20 -6 36 3 99 7 140 11 109 9 79 -11 -50
-35 -112 -21 -365 -61 -415 -66 -75 -7 -430 -57 -434 -61 -3 -2 -16 7 -31 21
-14 13 -40 28 -58 31 l-32 7 0 -88 0 -88 73 6 c39 3 194 19 342 37 259 30 587
60 650 60 40 -1 15 -16 -40 -24 -104 -16 -165 -28 -165 -33 0 -3 17 -2 38 1
73 12 207 17 197 8 -13 -12 -150 -38 -300 -57 -66 -8 -134 -17 -151 -20 -18
-2 -87 -11 -155 -19 -68 -8 -158 -20 -199 -25 -117 -15 -193 -16 -198 -3 -5
15 -55 42 -77 42 -12 0 -15 -15 -15 -90 l0 -90 33 0 c17 0 102 9 187 19 241
30 786 82 858 81 38 0 -14 -20 -70 -26 -85 -10 -71 -21 18 -16 53 3 75 1 70
-6 -4 -6 -13 -9 -21 -5 -8 3 -15 0 -15 -6 0 -6 -12 -11 -27 -11 -16 0 -62 -6
-103 -14 -71 -14 -271 -37 -600 -71 -80 -8 -164 -17 -187 -20 -29 -3 -45 0
-50 9 -11 18 -47 36 -72 36 -19 0 -21 -6 -21 -59 0 -33 5 -72 10 -86 10 -26
12 -26 83 -23 39 3 200 16 357 31 157 14 377 32 489 41 112 8 207 18 212 23 5
5 8 227 6 503 l-2 495 -25 2 c-14 1 -86 -11 -160 -26z"/>
<path d="M3618 5573 c6 -2 18 -2 25 0 6 3 1 5 -13 5 -14 0 -19 -2 -12 -5z"/>
<path d="M3715 4950 c-3 -5 1 -10 10 -10 9 0 13 5 10 10 -3 6 -8 10 -10 10 -2
0 -7 -4 -10 -10z"/>
<path d="M4957 5313 c-4 -38 -7 -79 -9 -93 -2 -13 2 -25 7 -25 6 0 16 -4 23
-8 7 -5 12 -3 12 4 0 8 4 8 13 2 17 -15 45 -12 52 4 3 8 2 40 -2 71 l-6 57
-17 -37 c-13 -29 -19 -35 -28 -26 -7 7 -12 26 -12 43 0 38 -10 75 -20 75 -4 0
-10 -30 -13 -67z"/>
<path d="M5020 5366 c0 -8 5 -18 10 -21 6 -3 10 3 10 14 0 12 -4 21 -10 21 -5
0 -10 -6 -10 -14z"/>
<path d="M5080 5310 c-2 -30 -4 -67 -5 -82 -1 -15 4 -29 11 -32 18 -7 29 57
16 92 -6 15 -13 38 -15 52 -2 14 -6 0 -7 -30z"/>
<path d="M5140 5270 c0 -5 5 -10 11 -10 5 0 7 5 4 10 -3 6 -8 10 -11 10 -2 0
-4 -4 -4 -10z"/>
<path d="M5126 5226 c-14 -23 -15 -30 -5 -37 7 -4 17 -5 22 -2 5 3 4 9 -3 13
-10 6 -10 8 0 12 7 2 11 12 9 23 -4 17 -6 16 -23 -9z"/>
<path d="M5463 4943 c9 -2 23 -2 30 0 6 3 -1 5 -18 5 -16 0 -22 -2 -12 -5z"/>
<path d="M4935 4826 c-17 -7 -36 -20 -43 -29 -11 -12 -3 -11 30 6 55 28 52 26
47 31 -2 2 -18 -1 -34 -8z"/>
<path d="M5100 4820 c8 -5 20 -10 25 -10 6 0 3 5 -5 10 -8 5 -19 10 -25 10 -5
0 -3 -5 5 -10z"/>
<path d="M5440 4303 c0 -14 13 -15 98 -10 53 4 122 7 152 7 40 0 51 3 40 10
-8 6 -77 10 -152 9 -118 -1 -138 -3 -138 -16z"/>
<path d="M4612 4475 c-1 -22 -5 -65 -8 -95 -5 -42 -4 -52 5 -44 8 7 11 39 8
95 -1 46 -4 66 -5 44z"/>
<path d="M4642 4360 c0 -58 4 -114 8 -125 11 -27 11 137 1 190 -7 31 -9 16 -9
-65z"/>
<path d="M4152 4430 c0 -14 2 -19 5 -12 2 6 2 18 0 25 -3 6 -5 1 -5 -13z"/>
<path d="M4136 4355 c-5 -27 -13 -59 -19 -70 -9 -18 -8 -18 6 -7 16 14 33 90
25 114 -3 7 -8 -9 -12 -37z"/>
<path d="M4611 4284 c0 -11 3 -14 6 -6 3 7 2 16 -1 19 -3 4 -6 -2 -5 -13z"/>
<path d="M3863 4203 c26 -2 67 -2 90 0 23 2 2 3 -48 3 -49 0 -68 -1 -42 -3z"/>
<path d="M3658 4193 c28 -2 76 -2 105 0 28 2 5 3 -53 3 -58 0 -81 -1 -52 -3z"/>
<path d="M3490 4180 c-21 -7 -19 -8 17 -9 23 -1 45 4 48 9 7 12 -29 12 -65 0z"/>
<path d="M3353 4168 c-6 -10 45 -8 77 2 19 7 14 8 -23 7 -27 -1 -51 -5 -54 -9z"/>
<path d="M3260 4161 c0 -5 9 -7 20 -4 11 3 20 7 20 9 0 2 -9 4 -20 4 -11 0
-20 -4 -20 -9z"/>
<path d="M2915 4150 c-14 -6 0 -9 44 -9 35 -1 62 1 60 3 -10 9 -86 13 -104 6z"/>
<path d="M3078 4153 c17 -2 47 -2 65 0 17 2 3 4 -33 4 -36 0 -50 -2 -32 -4z"/>
<path d="M5065 4483 c23 -48 29 -115 15 -158 -16 -49 -25 -33 -34 60 -4 39
-14 81 -23 94 l-15 23 -24 -24 c-35 -35 -51 -129 -35 -203 22 -99 69 -121 127
-59 31 32 34 41 34 94 0 79 -17 155 -41 182 l-20 23 16 -32z m-81 -94 c3 -17
6 -46 5 -63 l-1 -31 -13 30 c-16 34 -20 95 -6 95 5 0 11 -14 15 -31z"/>
<path d="M7926 7611 c22 -86 36 -195 41 -316 9 -239 -43 -499 -147 -728 -52
-117 -145 -269 -212 -348 l-38 -45 0 -927 c0 -775 2 -927 14 -927 14 0 25 -64
26 -150 l1 -45 21 70 c21 68 22 90 25 778 l3 708 68 87 c125 159 184 261 255
442 93 233 121 406 114 678 -5 224 -25 347 -84 521 -33 100 -100 254 -87 202z"/>
<path d="M7735 6772 c-22 -48 -55 -109 -72 -136 -18 -26 -33 -50 -33 -53 0 -2
16 8 35 23 44 33 78 90 100 167 27 93 13 93 -30 -1z"/>
<path d="M5967 6428 c-7 -221 -3 -1016 6 -1024 3 -3 70 -32 149 -64 139 -56
143 -57 160 -39 9 11 21 19 27 19 31 0 -2 23 -130 91 -138 72 -174 101 -167
134 2 12 35 0 162 -60 184 -86 200 -93 194 -74 -3 8 -83 55 -179 104 l-174 90
-3 63 c-3 62 -3 64 20 57 13 -4 108 -52 211 -107 184 -98 243 -120 155 -60
-57 39 -365 212 -378 212 -6 0 -10 26 -10 60 0 33 2 60 5 60 3 0 37 -21 77
-46 39 -25 141 -86 227 -136 86 -49 161 -94 168 -100 9 -7 16 1 28 27 19 48
19 47 -10 65 -96 59 -445 301 -472 328 -35 34 -42 52 -20 52 15 0 344 -200
466 -283 24 -17 41 -24 36 -17 -4 7 -107 78 -229 159 -303 200 -278 176 -274
257 l3 67 50 -39 c57 -45 225 -162 210 -146 -15 15 -156 132 -213 177 -50 39
-51 41 -52 94 l0 53 63 -58 c34 -33 98 -88 142 -124 44 -35 85 -71 92 -80 10
-13 12 -10 18 15 3 17 10 40 15 52 9 21 -7 38 -159 173 -139 125 -170 158
-180 191 -6 21 -15 39 -20 39 -4 0 -11 -82 -14 -182z"/>
<path d="M6983 5711 c-17 -21 -18 -29 -8 -37 7 -5 56 -44 108 -87 91 -75 117
-86 117 -50 0 16 -151 177 -181 193 -12 7 -21 2 -36 -19z"/>
<path d="M6895 5550 c6 -9 193 -146 258 -189 50 -33 -11 19 -126 108 -109 83
-149 108 -132 81z"/>
<path d="M6820 5491 c0 -5 -8 -17 -17 -26 -21 -21 -27 -17 206 -166 128 -83
175 -109 181 -99 5 7 6 19 3 25 -9 26 -337 275 -361 275 -7 0 -12 -4 -12 -9z"/>
<path d="M5972 5307 l3 -72 80 -27 c103 -35 121 -35 129 -3 4 16 13 25 26 25
10 0 22 4 25 10 6 9 -57 44 -193 106 l-73 33 3 -72z"/>
<path d="M6710 5366 c0 -7 153 -97 255 -151 117 -61 102 -48 -72 64 -121 77
-183 107 -183 87z"/>
<path d="M6620 5268 c17 -17 391 -190 397 -184 9 9 -335 181 -382 192 -27 6
-28 5 -15 -8z"/>
<path d="M6536 5221 c-3 -5 33 -23 80 -41 47 -17 84 -34 82 -35 -2 -2 -41 10
-88 26 -46 16 -90 27 -99 24 -22 -8 -100 -59 -101 -65 0 -3 19 -10 43 -16 114
-29 659 -202 720 -228 14 -7 17 -3 17 18 0 22 -11 30 -92 68 -51 24 -191 91
-310 150 -213 106 -241 117 -252 99z"/>
<path d="M5964 5206 c-3 -8 -4 -31 -2 -52 l3 -38 95 -28 c52 -16 190 -51 305
-79 116 -28 278 -69 362 -90 83 -21 160 -39 170 -38 64 1 -536 168 -717 198
-36 6 -78 15 -95 20 l-30 9 38 1 c53 1 47 22 -15 57 -88 49 -108 55 -114 40z
m129 -73 c-7 -2 -19 -2 -25 0 -7 3 -2 5 12 5 14 0 19 -2 13 -5z"/>
<path d="M5972 5004 l3 -88 40 -9 c22 -4 105 -19 185 -32 242 -40 538 -93 665
-119 179 -37 241 -41 110 -7 -60 15 -148 40 -195 54 -47 14 -130 35 -185 47
-364 79 -538 122 -558 140 -9 7 221 -37 468 -90 100 -22 219 -46 265 -55 47
-8 96 -18 110 -21 14 -4 22 -4 18 0 -3 4 -55 20 -115 36 -59 15 -160 42 -223
60 -367 104 -468 133 -504 147 -92 34 -87 37 -84 -63z"/>
<path d="M7037 5069 c7 -7 15 -10 18 -7 3 3 -2 9 -12 12 -14 6 -15 5 -6 -5z"/>
<path d="M6918 4813 c7 -3 16 -2 19 1 4 3 -2 6 -13 5 -11 0 -14 -3 -6 -6z"/>
<path d="M7050 4241 c0 -5 9 -7 20 -4 11 3 20 7 20 9 0 2 -9 4 -20 4 -11 0
-20 -4 -20 -9z"/>
<path d="M7420 4198 c-19 -4 -50 -10 -68 -13 -18 -3 -66 -12 -105 -19 -62 -13
-232 -43 -472 -86 -33 -5 -71 -12 -85 -15 -14 -3 -53 -10 -88 -15 -35 -6 -91
-17 -125 -25 -35 -8 -80 -17 -102 -20 -84 -12 -911 -178 -1150 -231 -323 -71
-363 -80 -465 -104 -47 -10 -139 -31 -205 -45 -137 -30 -228 -51 -439 -102
l-148 -36 68 -32 c130 -60 973 -528 1056 -586 l26 -18 129 71 c370 204 1271
744 1259 755 -3 4 -266 -84 -476 -160 -140 -50 -602 -234 -813 -323 l-139 -58
-111 58 c-62 33 -127 68 -145 79 l-34 20 109 33 c183 55 448 149 658 232 364
145 485 195 481 200 -3 2 -36 -3 -73 -12 -119 -28 -292 -64 -513 -105 -262
-49 -262 -49 -330 -57 -30 -3 -97 -14 -147 -24 -51 -9 -93 -14 -93 -10 0 3 46
18 103 32 56 14 192 51 302 81 301 83 820 213 960 241 11 2 128 29 260 60 132
30 354 80 493 111 229 51 500 121 511 131 7 6 -47 2 -89 -8z m-2553 -654 c-3
-3 -12 -4 -19 -1 -8 3 -5 6 6 6 11 1 17 -2 13 -5z"/>
<path d="M7865 4001 c-186 -76 -332 -146 -492 -237 -131 -75 -164 -97 -100
-70 371 158 807 373 740 365 -5 0 -71 -26 -148 -58z"/>
<path d="M7336 3914 c-132 -46 -298 -107 -370 -135 -149 -58 -456 -192 -451
-197 4 -5 317 104 535 185 263 99 572 232 535 232 -5 0 -118 -38 -249 -85z"/>
<path d="M4500 3704 c-47 -8 -121 -21 -165 -29 -44 -8 -101 -17 -127 -20 -154
-17 -642 -106 -656 -120 -11 -10 125 -5 223 10 156 23 413 72 585 110 58 13
140 31 183 40 42 9 77 19 77 21 0 6 -23 3 -120 -12z"/>
<path d="M6608 3506 c-253 -103 -904 -447 -1383 -732 -49 -30 -96 -54 -103
-54 -8 0 -111 56 -230 123 -119 68 -262 149 -318 180 -125 70 -643 332 -629
318 11 -10 214 -137 340 -211 104 -62 679 -409 772 -466 l71 -44 84 49 c483
282 525 307 1003 566 158 87 495 283 550 321 34 24 4 15 -157 -50z"/>
<path d="M2304 2108 c-3 -5 -3 -42 1 -83 l7 -74 1071 0 c589 -1 1066 3 1061 8
-5 5 -65 42 -134 82 l-125 74 -938 1 c-549 1 -940 -2 -943 -8z"/>
<path d="M6205 2111 l-130 -6 -125 -78 -124 -77 1047 0 1047 0 0 85 0 85 -792
-2 c-436 -1 -851 -4 -923 -7z"/>
</g>
</svg>
