<?xml version="1.0" standalone="no"?>
<!DOCTYPE svg PUBLIC "-//W3C//DTD SVG 20010904//EN"
 "http://www.w3.org/TR/2001/REC-SVG-20010904/DTD/svg10.dtd">
<svg version="1.0" xmlns="http://www.w3.org/2000/svg"
 width="1024.000000pt" height="1024.000000pt" viewBox="0 0 1024.000000 1024.000000"
 preserveAspectRatio="xMidYMid meet">

<g transform="translate(0.000000,1024.000000) scale(0.100000,-0.100000)"
fill="#000000" stroke="none">
<path d="M4950 9330 c-614 -27 -1187 -181 -1745 -469 -216 -111 -369 -206
-555 -343 -252 -185 -436 -355 -661 -608 -383 -432 -678 -952 -845 -1488 -83
-270 -150 -601 -173 -862 -71 -812 68 -1528 433 -2236 260 -503 662 -989 1141
-1380 77 -63 358 -254 469 -319 126 -74 407 -209 561 -270 438 -174 973 -292
1395 -307 l75 -3 3 202 2 202 -42 5 c-24 3 -88 8 -143 11 -471 27 -1067 197
-1503 426 -337 178 -629 395 -907 673 -186 187 -288 308 -420 501 -130 191
-200 311 -288 494 -38 80 -71 148 -73 149 -1 2 -42 -8 -91 -22 -48 -14 -93
-26 -99 -26 -17 0 -73 168 -60 179 6 5 64 26 128 46 115 36 118 38 118 66 0
16 -3 29 -7 29 -5 0 -66 -16 -138 -35 -71 -19 -133 -31 -136 -27 -10 11 -74
211 -69 214 3 2 64 23 137 46 l131 43 -33 122 c-18 67 -39 143 -46 169 l-13
47 -115 49 -116 49 -7 42 c-29 170 -28 639 2 889 28 235 124 629 205 847 114
306 293 644 462 873 155 211 237 307 407 481 452 461 973 786 1585 988 410
135 772 193 1216 193 453 0 820 -60 1255 -203 721 -238 1378 -703 1882 -1335
404 -506 668 -1133 754 -1794 15 -113 21 -137 34 -134 8 2 66 19 128 36 106
31 112 34 112 59 -1 54 -49 380 -75 496 -157 729 -538 1419 -1100 1994 -166
170 -298 286 -488 428 -248 185 -396 276 -658 402 -204 99 -277 128 -505 201
-401 130 -726 191 -1124 210 -107 5 -204 9 -215 8 -11 -1 -94 -4 -185 -8z
m200 -175 l0 -75 -50 0 -50 0 0 75 0 75 50 0 50 0 0 -75z m-315 -10 l0 -50
-37 -3 c-37 -3 -38 -2 -38 30 0 18 -3 43 -6 56 -6 22 -4 23 37 20 l44 -3 0
-50z m705 31 c0 -13 -3 -38 -6 -55 -6 -29 -10 -31 -47 -31 l-40 0 7 38 c3 20
6 45 6 55 0 13 9 17 40 17 35 0 40 -3 40 -24z m-1005 -18 c3 -13 6 -39 8 -58
2 -32 0 -34 -36 -41 -41 -7 -44 -2 -50 71 -2 35 3 39 65 49 4 0 10 -9 13 -21z
m1311 -1 c2 -2 -3 -26 -11 -53 l-14 -50 -41 4 c-32 3 -40 8 -36 21 3 9 8 30
12 46 4 17 9 34 12 39 4 7 69 2 78 -7z m-1600 -90 c13 -52 13 -52 -33 -61 -31
-7 -32 -6 -45 41 l-14 48 30 12 c43 16 48 13 62 -40z m1891 29 c2 -2 -2 -26
-10 -52 -14 -47 -16 -49 -48 -46 -19 2 -37 7 -40 10 -4 4 0 29 8 56 14 48 15
48 50 43 19 -4 37 -8 40 -11z m-2191 -73 c3 -10 12 -32 19 -49 13 -31 13 -32
-25 -47 l-38 -15 -21 51 c-12 27 -20 51 -19 52 49 27 77 30 84 8z m2462 0 c12
-3 22 -6 22 -7 0 -2 -7 -24 -16 -50 -16 -47 -17 -48 -52 -43 -19 4 -37 8 -39
11 -3 3 3 28 12 56 14 41 20 50 34 44 9 -3 26 -9 39 -11z m-2740 -125 c27 -52
27 -58 3 -58 -11 0 -23 -4 -26 -10 -16 -26 -33 -9 -73 72 -3 6 49 34 68 37 3
1 15 -18 28 -41z m3030 25 c27 -6 27 -2 0 -60 -13 -27 -23 -49 -24 -51 -1 -2
-64 27 -72 34 -2 1 6 23 18 49 17 36 25 45 38 40 9 -4 27 -10 40 -12z m-3312
-164 c19 -38 18 -44 -11 -57 -37 -17 -41 -16 -64 24 -27 45 -26 46 7 65 31 18
45 11 68 -32z m3599 30 l35 -21 -21 -37 c-12 -20 -25 -40 -30 -44 -5 -7 -38 7
-69 30 -4 3 41 93 47 93 1 0 18 -9 38 -21z m-3872 -163 c15 -19 27 -37 27 -40
0 -6 -70 -40 -73 -35 -1 2 -12 18 -25 36 -27 40 -27 46 1 59 35 18 40 16 70
-20z m4157 0 l29 -24 -24 -32 c-13 -18 -26 -38 -28 -43 -4 -12 -67 32 -67 46
0 12 48 77 57 77 3 0 18 -11 33 -24z m-4417 -218 c-15 -15 -29 -28 -32 -28 -3
1 -22 14 -40 30 l-35 30 28 29 29 30 38 -31 39 -32 -27 -28z m4702 22 l29 -31
-32 -30 -33 -31 -35 27 -35 27 26 25 c14 14 25 30 25 34 0 19 27 8 55 -21z
m-5103 -247 c2 -22 9 -29 31 -31 36 -4 35 -18 -3 -25 -27 -6 -30 -11 -30 -42
0 -19 -4 -35 -10 -35 -5 0 -10 16 -10 35 0 32 -2 35 -30 35 -39 0 -41 27 -2
32 21 2 28 9 30 31 2 15 7 27 12 27 5 0 10 -12 12 -27z m5490 -75 c2 -17 11
-24 31 -26 15 -2 27 -7 27 -12 0 -5 -12 -10 -27 -12 -23 -2 -29 -9 -31 -33 -5
-46 -22 -55 -22 -13 0 34 -2 37 -32 40 -43 4 -48 26 -6 30 25 2 34 8 36 26 2
12 7 22 12 22 5 0 10 -10 12 -22z m-5805 -284 l33 -25 -22 -29 c-29 -36 -35
-36 -70 -4 l-27 27 22 28 c12 15 24 28 26 28 2 1 19 -11 38 -25z m6086 -3 c17
-29 17 -29 -14 -55 -17 -14 -34 -26 -38 -26 -4 0 -15 14 -25 31 l-18 31 28 24
c38 30 46 30 67 -5z m186 -243 l23 -26 -33 -30 -34 -30 -23 35 -24 35 28 29
c15 16 30 26 34 22 3 -5 16 -20 29 -35z m-6440 -18 c0 -3 -13 -21 -29 -40
l-30 -34 -32 32 -32 32 28 29 28 30 34 -22 c19 -12 34 -24 33 -27z m6626 -232
c16 -33 16 -33 -16 -61 l-31 -29 -19 31 c-10 17 -19 35 -19 39 0 6 59 52 67
52 1 0 9 -15 18 -32z m-6855 -15 c14 -9 26 -17 28 -18 2 -2 -7 -19 -19 -39
-22 -37 -27 -38 -73 -3 -19 14 -19 15 3 46 26 36 28 37 61 14z m7030 -300 c0
-6 -15 -20 -34 -31 l-33 -20 -17 34 -16 34 33 20 32 20 17 -23 c10 -12 18 -27
18 -34z m-7192 30 c15 -9 28 -18 30 -19 7 -4 -34 -73 -43 -73 -5 0 -22 10 -37
22 l-27 22 20 33 c24 37 22 37 57 15z m-141 -295 c15 -7 29 -13 31 -14 2 -1
-3 -18 -12 -37 -14 -35 -15 -35 -50 -25 -37 12 -41 22 -30 66 7 25 21 27 61
10z m7466 -5 c2 -10 8 -26 12 -35 5 -12 -2 -21 -25 -33 -34 -18 -40 -15 -58
27 -10 25 -9 29 16 42 36 20 49 20 55 -1z m-7554 -282 c11 -7 12 -17 5 -43 -9
-28 -14 -33 -39 -31 -37 3 -44 12 -38 51 4 27 10 32 32 32 14 0 32 -4 40 -9z
m7661 -3 c0 -7 3 -23 6 -35 5 -19 0 -26 -27 -37 -30 -13 -35 -13 -46 1 -20 26
-15 47 15 65 33 20 52 22 52 6z m78 -292 c-2 -12 -14 -23 -33 -28 -34 -9 -41
-4 -50 33 -6 23 -2 28 32 42 36 14 38 14 46 -6 4 -12 7 -30 5 -41z m-7806 39
c3 -3 2 -20 -1 -38 -7 -34 -26 -43 -65 -33 -19 5 -21 11 -18 41 4 33 6 35 41
35 21 0 40 -2 43 -5z m7851 -232 c3 -5 7 -21 8 -37 4 -25 0 -31 -26 -37 -34
-10 -41 -5 -50 38 -5 25 -3 32 12 36 30 8 52 7 56 0z m-7913 -67 c0 -45 -10
-56 -51 -56 -42 0 -42 1 -33 49 6 28 10 31 45 31 35 0 39 -3 39 -24z m-40
-283 c0 -43 -16 -60 -49 -55 -28 4 -31 8 -31 41 0 21 2 40 5 42 2 3 20 3 40 1
29 -4 35 -8 35 -29z m-37 -280 c2 -5 2 -25 0 -45 -5 -36 -7 -38 -39 -38 -34 0
-34 1 -34 45 0 45 0 45 34 45 19 0 37 -3 39 -7z m-5 -329 c3 -37 0 -42 -23
-48 -36 -9 -45 -1 -45 43 0 45 6 53 40 49 22 -3 25 -8 28 -44z m16 -266 c13
-50 7 -66 -24 -70 -38 -6 -40 -3 -40 43 0 27 5 39 18 42 33 9 40 7 46 -15z
m189 -380 c34 -13 35 -28 3 -28 -21 0 -25 -6 -28 -32 -4 -44 -22 -38 -28 9 -4
33 -9 38 -32 41 -16 2 -28 9 -28 17 0 15 65 11 113 -7z m254 -839 l32 -49 -32
-16 c-21 -11 -32 -13 -35 -6 -2 6 -15 28 -29 49 l-25 37 22 18 c12 10 25 18
29 17 3 0 20 -22 38 -50z m136 -266 c26 -43 27 -47 11 -64 -25 -28 -36 -23
-67 28 l-29 47 22 18 c12 10 25 18 29 18 3 0 19 -21 34 -47z m197 -312 c0 -9
-48 -37 -53 -30 -1 2 -16 22 -32 43 l-28 39 28 23 28 22 29 -44 c15 -25 28
-48 28 -53z m184 -247 c37 -44 37 -46 20 -65 -25 -27 -34 -24 -78 27 -37 43
-38 46 -21 64 26 29 36 25 79 -26z m254 -341 l-22 -23 -48 47 c-26 26 -48 51
-48 56 0 5 10 17 23 28 22 18 22 18 70 -33 l48 -51 -23 -24z m265 -235 l-26
-27 -53 46 c-30 25 -54 48 -54 50 0 3 10 15 22 28 l22 23 57 -47 58 -46 -26
-27z m258 -148 l59 -41 -22 -29 c-12 -17 -25 -30 -29 -30 -7 0 -90 60 -113 81
-8 7 28 59 41 59 2 0 31 -18 64 -40z m311 -197 c35 -20 65 -38 67 -40 7 -5
-23 -55 -35 -60 -11 -4 -144 73 -144 83 0 10 33 54 40 54 5 0 37 -17 72 -37z
m353 -173 c39 -19 72 -36 74 -37 6 -4 -21 -63 -29 -63 -17 0 -161 71 -158 78
24 49 32 62 37 60 3 -2 38 -19 76 -38z m357 -130 c29 -11 61 -20 71 -20 21 0
22 -22 3 -59 l-15 -28 -75 26 c-42 14 -76 31 -76 38 0 19 22 63 31 63 5 0 32
-9 61 -20z m391 -106 c40 -9 74 -18 75 -19 2 -2 -2 -20 -9 -40 -11 -29 -17
-35 -34 -30 -11 3 -46 11 -77 18 -60 12 -65 18 -48 61 11 31 4 30 93 10z m401
-60 l46 -7 -6 -36 c-4 -20 -9 -39 -13 -43 -3 -4 -39 -2 -79 4 l-73 12 7 30 c3
17 8 34 11 39 5 9 45 9 107 1z"/>
<path d="M4859 8889 c-476 -26 -1041 -185 -1484 -419 -373 -196 -635 -383
-914 -655 -371 -361 -646 -753 -842 -1197 -128 -291 -246 -724 -291 -1068 -13
-102 -18 -713 -6 -726 4 -3 33 3 65 15 l58 22 1 257 c1 332 26 531 110 867 67
271 152 492 295 775 190 376 483 753 812 1047 267 239 532 415 867 576 479
230 908 342 1402 367 215 11 506 0 702 -26 390 -50 800 -176 1147 -349 704
-354 1290 -919 1667 -1610 188 -345 347 -859 377 -1225 4 -47 9 -88 11 -92 5
-7 114 21 127 32 5 4 -1 81 -13 171 -54 431 -211 901 -426 1277 -376 663
-1003 1247 -1699 1586 -611 298 -1227 415 -1966 375z"/>
<path d="M5113 8073 c9 -2 23 -2 30 0 6 3 -1 5 -18 5 -16 0 -22 -2 -12 -5z"/>
<path d="M5650 7341 l0 -350 -47 -21 c-61 -27 -80 -45 -110 -104 -22 -44 -27
-48 -53 -42 -16 3 -67 11 -114 18 l-85 12 -6 60 c-3 34 -4 122 -3 196 l3 135
-280 47 c-154 26 -354 59 -445 73 l-165 26 -96 -63 c-52 -35 -195 -124 -317
-198 -123 -74 -300 -186 -395 -248 -159 -105 -175 -113 -209 -108 -32 5 -48 0
-105 -36 -37 -22 -158 -94 -268 -158 -110 -64 -222 -131 -250 -147 -27 -17
-153 -92 -280 -166 -126 -74 -263 -155 -302 -179 l-73 -43 0 -380 0 -381 -47
-25 c-27 -13 -92 -48 -145 -78 l-98 -53 0 -580 0 -580 33 6 c62 13 147 19 147
11 0 -5 -6 -16 -14 -24 -25 -28 -64 -134 -71 -192 -12 -94 9 -192 61 -294 25
-49 49 -93 53 -98 4 -4 30 -3 59 3 28 5 91 14 139 20 48 5 131 17 183 24 52 8
163 24 245 36 203 29 595 93 790 130 88 17 225 41 305 55 80 14 152 28 160 30
8 2 78 16 155 29 300 53 601 109 840 156 325 64 1226 227 1545 280 176 29 320
55 585 105 127 24 318 60 425 80 107 20 429 83 715 140 568 113 620 122 592
105 -16 -10 -62 -88 -59 -100 3 -10 -30 -100 -39 -105 -5 -4 -9 -15 -9 -25 0
-11 -9 -24 -20 -30 -22 -12 -45 -48 -36 -57 6 -7 56 43 56 56 0 5 6 14 14 20
8 7 17 24 21 38 3 15 15 45 26 67 10 22 19 45 19 51 0 6 14 32 30 57 24 36 39
48 70 56 23 5 40 6 40 1 0 -5 -11 -9 -24 -9 -36 0 -69 -46 -109 -152 -20 -51
-38 -100 -41 -108 -4 -8 -15 -28 -26 -45 -28 -43 -41 -76 -37 -94 3 -10 11 -2
23 24 11 22 26 51 35 65 9 14 38 78 65 143 47 113 73 157 94 157 6 0 10 -10
10 -22 0 -17 -3 -19 -9 -9 -7 11 -12 9 -24 -10 -8 -13 -18 -35 -22 -49 -8 -27
-51 -134 -66 -162 -13 -25 -11 -50 3 -46 7 3 15 18 19 34 4 16 20 63 37 104
17 41 33 84 37 94 3 10 8 17 10 14 11 -11 -189 -567 -204 -569 -3 0 -15 -2
-26 -4 -29 -5 -261 -32 -475 -56 -263 -29 -303 -36 -317 -56 -11 -16 -170
-227 -405 -537 -46 -60 -128 -165 -183 -233 -55 -69 -117 -149 -138 -179 l-38
-54 388 0 388 0 -95 -96 c-339 -341 -733 -611 -1160 -794 -416 -179 -815 -266
-1266 -277 -441 -11 -803 41 -1237 178 -396 125 -704 287 -1068 561 -102 77
-348 296 -439 392 l-34 36 1978 0 1978 0 28 37 c15 21 56 72 91 115 203 242
303 362 382 454 48 57 87 107 87 111 0 8 -447 -20 -880 -57 -135 -11 -465 -38
-735 -60 -269 -22 -581 -50 -692 -61 l-202 -20 -40 43 -40 43 182 22 c100 12
317 38 482 57 279 33 808 96 1515 181 162 19 366 44 453 55 86 11 179 20 206
20 46 0 49 2 79 47 17 27 47 70 67 98 43 61 45 79 8 71 -16 -3 -66 -10 -113
-16 -47 -6 -179 -24 -295 -40 -115 -16 -329 -45 -475 -65 -146 -19 -308 -42
-360 -50 -52 -8 -198 -28 -325 -45 -126 -17 -304 -41 -395 -55 -91 -13 -203
-29 -250 -35 -221 -28 -676 -94 -865 -125 -115 -19 -232 -37 -260 -40 -27 -4
-86 -13 -130 -21 -72 -13 -182 -30 -600 -93 -71 -11 -200 -27 -285 -35 -85 -9
-200 -23 -255 -31 -108 -16 -183 -24 -519 -56 -121 -11 -232 -19 -247 -17
l-28 4 31 -58 c18 -31 37 -59 44 -62 24 -9 1818 96 2274 133 58 5 107 7 109 5
5 -4 -156 -294 -171 -309 -7 -7 -8 -1 -4 18 4 19 3 26 -4 22 -5 -3 -10 -13
-10 -20 0 -11 -10 -14 -32 -12 -18 2 -39 -1 -47 -7 -12 -9 -13 -6 -8 19 l7 30
-15 -28 c-18 -31 -42 -28 -25 3 5 10 10 22 10 27 -1 4 -8 -4 -16 -19 -16 -31
-37 -38 -27 -10 4 11 -1 8 -15 -8 -13 -15 -21 -20 -22 -11 0 11 -3 11 -17 0
-15 -13 -16 -11 -10 16 l7 30 -15 -27 c-9 -16 -18 -28 -21 -28 -4 0 -3 12 0
28 l6 27 -15 -27 c-15 -27 -42 -40 -32 -15 17 42 16 48 -3 17 -14 -21 -25 -30
-28 -22 -3 10 -7 10 -18 1 -11 -9 -14 -9 -14 1 0 9 -4 9 -17 -1 -15 -13 -16
-11 -10 16 l7 30 -17 -30 c-15 -27 -17 -28 -24 -10 -6 17 -8 17 -8 3 -1 -23
-18 -23 -24 -1 -4 17 -5 17 -6 1 0 -10 -6 -18 -12 -18 -6 0 -9 9 -6 20 3 11 1
18 -4 14 -5 -3 -9 -12 -9 -20 0 -17 -16 -19 -23 -1 -4 9 -6 9 -6 0 -1 -7 -6
-13 -12 -13 -6 0 -8 10 -5 23 l6 22 -11 -22 c-17 -32 -30 -29 -24 5 3 15 2 20
-1 12 -14 -32 -27 -42 -35 -28 -7 10 -9 10 -9 1 0 -7 -5 -13 -11 -13 -7 0 -9
10 -5 28 l6 27 -15 -27 c-19 -34 -35 -37 -29 -5 l5 22 -10 -22 c-13 -28 -57
-32 -64 -6 -4 15 -5 15 -6 2 -1 -19 -71 -26 -71 -6 0 9 -3 8 -9 -1 -11 -17
-21 -17 -32 0 -5 7 -9 8 -9 2 0 -8 -183 -13 -616 -17 -339 -3 -619 -9 -622
-11 -8 -9 147 -194 273 -324 380 -394 842 -697 1340 -877 586 -212 1184 -283
1780 -211 707 87 1380 381 1922 841 388 330 642 652 922 1168 40 73 44 77 77
77 21 0 34 -5 34 -12 -1 -21 -131 -266 -204 -383 -95 -151 -304 -428 -423
-560 -376 -416 -858 -755 -1362 -955 -430 -171 -865 -262 -1299 -272 -67 -2
-122 -6 -122 -10 0 -5 0 -97 0 -205 l0 -198 167 7 c192 7 329 21 493 49 662
113 1287 374 1795 751 793 589 1365 1428 1596 2343 48 191 95 460 105 604 7
99 6 103 -12 97 -10 -3 -170 -37 -354 -75 -184 -38 -411 -86 -505 -106 -93
-20 -253 -54 -355 -75 -102 -22 -239 -51 -305 -65 -66 -14 -140 -30 -165 -35
-25 -5 -133 -28 -240 -50 -107 -23 -258 -54 -335 -70 -185 -38 -504 -105 -585
-124 -139 -31 -258 -57 -330 -72 -41 -9 -91 -20 -110 -24 -75 -17 -146 -32
-165 -35 -11 -2 -49 -11 -85 -20 -36 -10 -74 -19 -85 -21 -11 -2 -31 -6 -44
-10 -21 -6 -23 -4 -17 17 6 21 5 21 -9 -4 -11 -20 -23 -27 -38 -25 -12 1 -28
-1 -34 -5 -9 -6 -13 -2 -13 10 0 15 -3 14 -19 -6 -18 -23 -19 -23 -24 -5 -3
13 -5 14 -6 3 -1 -12 -31 -23 -128 -44 -71 -15 -139 -29 -153 -31 -14 -3 -74
-16 -135 -29 -191 -42 -437 -91 -870 -174 -231 -44 -476 -92 -543 -106 -244
-49 -602 -108 -797 -130 l-40 -5 34 16 c64 29 660 181 1096 279 138 30 297 66
355 80 58 13 143 31 190 40 178 35 408 89 765 180 1063 270 1624 411 1752 440
78 18 240 58 360 89 120 30 443 112 718 180 275 69 622 157 770 195 149 39
316 82 373 97 l102 26 0 64 c0 45 -4 64 -12 64 -7 0 -178 -42 -379 -94 l-366
-94 -46 92 c-37 75 -47 104 -52 168 -7 87 2 81 -140 93 -38 3 -80 8 -93 11
l-23 5 3 324 3 325 -30 5 c-16 2 -154 16 -305 30 -151 14 -278 29 -282 33 -4
4 -16 28 -27 54 l-20 47 32 -4 c69 -9 147 -13 147 -9 0 25 -150 281 -174 296
-6 4 -55 15 -108 25 l-98 18 0 290 -1 290 -117 127 c-92 100 -118 123 -124
110 -4 -9 -7 -176 -7 -369 -1 -375 -2 -382 -47 -332 -62 70 -177 134 -319 178
-187 57 -337 78 -627 88 l-188 6 0 203 0 203 -125 118 c-69 65 -130 120 -135
121 -6 2 -10 -126 -10 -347z m125 83 c-13 -25 -15 -84 -15 -429 1 -220 1 -409
1 -421 -1 -12 -11 -25 -25 -32 -22 -10 -24 -9 -30 35 -3 25 -6 253 -6 507 l0
461 45 -46 c46 -45 46 -45 30 -75z m-1413 -464 c1 -209 3 -414 3 -456 0 -62
-3 -79 -17 -88 -9 -5 -20 -7 -24 -3 -4 3 -11 186 -17 404 -5 219 -11 400 -13
402 -3 3 -11 -2 -20 -11 -12 -12 -16 -48 -19 -179 -17 -690 -15 -657 -40 -673
l-23 -15 -6 152 c-3 84 -8 264 -11 402 -4 137 -8 252 -11 254 -2 3 -12 -3 -22
-13 -16 -15 -17 -49 -15 -418 3 -402 2 -417 -29 -418 -5 0 -8 79 -8 175 0 140
-3 175 -13 175 -11 0 -15 44 -20 211 -3 116 -9 214 -12 218 -4 3 -13 -3 -21
-13 -11 -16 -14 -61 -14 -208 l0 -188 -29 0 c-27 0 -28 2 -35 61 -3 34 -6 111
-6 172 l0 109 -22 -15 c-13 -8 -21 -21 -20 -29 2 -7 1 -73 -3 -145 l-7 -133
-29 0 -28 0 -3 129 c-3 121 -4 129 -21 117 -13 -11 -18 -35 -24 -120 -6 -103
-7 -106 -30 -106 -22 0 -23 2 -23 85 0 47 -4 85 -8 85 -20 0 -32 -29 -32 -79
0 -64 -10 -84 -36 -79 -15 2 -20 15 -25 53 l-6 50 -1 -47 c-1 -28 -7 -48 -13
-48 -7 0 -10 13 -7 35 3 26 1 32 -8 24 -7 -6 -14 -20 -16 -32 -2 -14 -9 -20
-18 -18 -8 2 -27 6 -42 9 -16 2 -28 8 -28 13 0 14 332 228 541 349 99 58 201
120 227 139 28 20 48 29 50 22 9 -26 22 -8 22 29 0 29 4 40 15 40 13 0 15 -50
17 -380z m2872 229 l-29 -30 -5 -212 c-5 -204 -6 -212 -25 -212 -19 0 -20 8
-23 302 l-2 302 57 -60 56 -59 -29 -31z m-2796 102 c3 -27 0 -32 -15 -29 -19
3 -28 30 -19 54 10 26 31 10 34 -25z m100 -403 c-3 -355 -4 -383 -20 -386 -17
-3 -18 20 -18 366 0 204 3 377 6 386 3 9 12 16 20 16 12 0 14 -59 12 -382z
m122 23 c0 -300 -2 -340 -16 -345 -9 -3 -18 -6 -20 -6 -2 0 -4 155 -4 345 0
338 0 345 20 345 20 0 20 -7 20 -339z m120 15 c0 -295 -1 -304 -20 -309 -20
-5 -20 0 -20 304 0 302 0 309 20 309 20 0 20 -7 20 -304z m122 32 c2 -139 -1
-259 -6 -265 -5 -7 -15 -13 -22 -13 -12 0 -14 47 -14 265 0 257 1 265 20 265
19 0 19 -9 22 -252z m112 236 c14 -5 16 -34 16 -214 0 -115 -3 -215 -6 -224
-3 -9 -15 -16 -25 -16 -18 0 -19 10 -19 193 0 168 6 267 15 267 2 0 10 -3 19
-6z m196 -24 c0 -20 -5 -30 -15 -30 -18 0 -30 24 -21 45 10 28 36 17 36 -15z
m-70 -166 c3 -98 4 -185 2 -191 -2 -7 -12 -13 -21 -13 -15 0 -17 19 -19 187 0
102 1 190 4 195 3 5 11 7 17 5 8 -2 14 -60 17 -183z m1306 -58 c107 -14 267
-47 261 -52 -2 -2 -41 1 -88 6 -136 17 -318 26 -312 16 3 -5 -11 -7 -31 -4
-20 2 -36 0 -36 -5 0 -4 -8 -6 -17 -3 -10 3 -31 8 -48 12 -29 6 -29 6 -10 -9
19 -15 12 -16 -90 -17 -60 0 -120 -3 -132 -6 -21 -6 -23 -3 -23 33 0 22 3 43
8 48 10 11 400 -3 518 -19z m-796 -236 c1 -113 1 -211 1 -218 -1 -7 -13 -17
-27 -23 -15 -5 -25 -12 -22 -14 6 -6 77 19 223 78 l110 44 5 81 c4 70 9 85 30
107 37 37 110 47 290 39 241 -10 251 -17 57 -39 l-167 -19 -1 -80 c-1 -45 -1
-87 0 -95 2 -7 -2 -10 -7 -7 -6 3 -8 31 -5 65 7 70 -2 111 -22 111 -12 0 -15
-19 -15 -105 l0 -105 -27 -11 c-16 -6 -55 -14 -88 -18 -33 -4 -97 -22 -141
-41 l-81 -35 2 -473 2 -474 -25 -9 c-13 -5 -28 -7 -33 -3 -5 3 -9 199 -9 470
l0 465 -25 -14 -26 -13 -2 -612 c-2 -609 -2 -613 18 -608 11 3 23 6 28 6 4 0
7 39 7 88 0 48 3 104 7 125 5 35 8 38 37 35 25 -2 30 -7 26 -23 -2 -11 -4 -79
-5 -152 0 -72 -4 -135 -8 -139 -5 -5 -57 -23 -117 -40 l-110 -31 -2 856 c-2
471 0 878 4 906 9 58 31 91 78 116 18 10 35 17 36 16 2 -1 3 -95 4 -207z
m-338 -710 c-1 -485 -6 -750 -12 -750 -7 0 -10 242 -10 689 0 378 -3 716 -6
750 -6 55 -5 61 12 61 18 0 19 -20 16 -750z m126 706 c4 -33 -8 -49 -31 -41
-35 14 -29 78 7 73 15 -2 22 -11 24 -32z m742 -53 c0 -47 -3 -84 -6 -80 -3 3
-6 38 -5 79 0 89 0 88 6 88 3 0 5 -39 5 -87z m39 -30 c1 -18 -3 -33 -8 -33 -5
0 -9 35 -9 78 1 70 1 73 9 32 4 -25 8 -60 8 -77z m-1000 -615 c-1 -398 -4
-772 -7 -833 l-7 -109 -200 -58 c-110 -32 -310 -91 -445 -132 -135 -41 -380
-116 -545 -165 -165 -50 -376 -113 -470 -141 -93 -28 -251 -76 -350 -107 -217
-67 -643 -191 -815 -237 -121 -33 -248 -69 -437 -126 l-91 -27 -6 26 c-3 18 1
31 13 42 11 8 144 53 297 98 154 46 410 124 569 173 160 50 324 100 365 113
41 12 275 88 520 169 245 80 690 224 990 320 l545 174 3 717 c2 681 1 717 -15
710 -10 -4 -29 -11 -43 -16 l-25 -9 3 -679 2 -679 -26 -6 c-15 -4 -27 -6 -28
-4 -3 4 -26 395 -27 458 l-1 45 -8 -40 c-4 -22 -9 -139 -9 -260 -1 -121 -5
-222 -9 -225 -9 -8 -112 -33 -117 -29 -2 2 -7 295 -11 652 -4 356 -10 647 -13
647 -4 0 -16 -7 -28 -15 l-21 -15 -1 -646 c0 -355 -3 -650 -6 -655 -4 -5 -14
-9 -24 -9 -22 0 -28 63 -37 438 -4 139 -8 251 -10 250 -1 -2 -6 -161 -9 -353
-4 -193 -10 -353 -14 -357 -3 -4 -17 -9 -31 -11 -14 -2 -33 -7 -42 -12 -49
-21 -48 -38 -48 593 0 324 -3 603 -6 620 -6 28 -8 30 -30 20 l-24 -11 0 -634
c0 -611 -1 -633 -19 -633 -24 0 -30 46 -37 315 -9 309 -20 309 -22 0 -1 -148
-5 -284 -8 -302 -5 -28 -12 -34 -57 -47 -28 -8 -54 -13 -59 -10 -4 3 -8 275
-8 605 0 417 -3 599 -11 599 -6 0 -19 -5 -30 -10 -18 -10 -19 -28 -19 -620 0
-336 -2 -610 -4 -610 -2 0 -11 -2 -19 -6 -12 -4 -15 23 -22 163 -12 262 -23
292 -17 47 l5 -221 -48 -16 c-26 -9 -51 -14 -56 -11 -5 3 -9 259 -9 572 0 312
-4 572 -8 579 -4 7 -17 10 -30 6 l-22 -5 0 -593 0 -593 -51 -16 c-28 -10 -54
-14 -58 -11 -3 4 -7 263 -9 576 -3 584 -4 593 -40 557 -9 -9 -12 -153 -12
-585 l0 -573 -22 -9 c-13 -5 -37 -12 -54 -15 l-32 -7 -7 560 c-6 453 -10 561
-21 561 -7 0 -16 -6 -21 -12 -4 -7 -8 -264 -8 -571 l0 -559 -55 -20 c-106 -39
-96 -52 -103 129 -4 87 -7 333 -7 546 l0 388 -22 -3 c-23 -3 -23 -5 -24 -163
0 -88 -1 -338 -2 -556 l-2 -396 -42 -10 c-24 -6 -52 -14 -64 -18 -20 -6 -21
-2 -27 122 -4 70 -7 309 -7 531 0 417 0 417 -40 392 -12 -8 -14 -81 -12 -537
2 -290 -1 -533 -5 -538 -4 -6 -35 -18 -68 -27 -45 -13 -62 -14 -67 -5 -4 7 -8
228 -9 492 -1 264 -4 493 -8 509 -6 27 -7 28 -21 11 -12 -14 -14 -43 -12 -139
4 -160 -8 -587 -17 -582 -6 4 -9 -51 -10 -222 l-1 -103 -36 -15 c-20 -8 -38
-14 -40 -12 -2 2 -6 199 -9 438 -3 239 -8 468 -11 508 -6 72 -6 73 -25 56 -18
-16 -19 -29 -15 -148 2 -72 -1 -183 -7 -246 -5 -63 -10 -234 -11 -380 l-1
-264 -35 -7 c-19 -4 -38 -5 -42 -3 -5 3 -8 94 -8 202 0 108 -3 329 -7 489 -5
243 -8 291 -20 282 -7 -6 -13 -29 -13 -50 0 -22 -3 -39 -7 -39 -5 0 -8 -71 -9
-157 -2 -403 -6 -585 -12 -672 l-7 -94 -36 -4 -36 -3 -6 317 c-4 174 -7 388
-7 475 0 87 -3 158 -7 158 -31 -1 -32 -20 -39 -498 -4 -265 -11 -483 -16 -483
-13 -2 -21 -5 -41 -14 -10 -4 -20 -5 -23 -2 -3 3 -8 215 -11 471 -3 256 -9
466 -13 466 -3 0 -14 -6 -23 -13 -16 -11 -18 -53 -24 -483 l-6 -472 -34 -10
c-18 -6 -34 -9 -35 -9 -1 1 -4 205 -7 454 -3 248 -9 455 -14 459 -4 4 -15 0
-25 -9 -15 -15 -18 -55 -24 -335 -4 -174 -9 -328 -12 -342 -2 -14 -5 -77 -5
-142 l-1 -116 -28 -10 -29 -10 -6 211 c-4 115 -7 315 -7 444 0 128 -3 233 -7
233 -5 0 -18 -3 -30 -6 l-23 -6 -2 -397 c-1 -231 -5 -363 -9 -316 -5 62 -6 52
-3 -46 l3 -127 -30 -12 c-16 -7 -32 -11 -34 -8 -3 3 -8 195 -12 427 -3 232 -9
424 -12 426 -4 2 -17 -4 -29 -13 l-22 -17 0 -427 0 -426 -26 -6 c-15 -4 -27
-6 -29 -4 -4 5 -15 515 -15 680 l0 148 -25 -12 -25 -11 0 -424 c0 -275 -3
-423 -10 -423 -6 0 -10 133 -10 378 0 207 -3 406 -6 442 l-6 65 44 23 c116 63
682 342 692 342 2 0 121 57 263 126 299 146 700 339 993 478 113 53 466 227
785 386 319 158 585 289 592 289 9 1 12 -170 12 -721z m898 580 c-2 -29 -3 -8
-3 47 0 55 1 79 3 53 2 -26 2 -71 0 -100z m-2821 -280 c-6 -328 -10 -406 -21
-417 -12 -13 -15 -13 -19 0 -2 8 -9 165 -16 349 -7 184 -14 337 -16 339 -2 2
-14 0 -27 -6 -22 -11 -23 -15 -25 -154 -3 -186 -13 -443 -18 -448 -2 -2 -4 17
-4 44 0 27 -3 45 -7 41 -9 -9 -12 -37 -13 -131 -1 -53 -6 -88 -16 -103 -9 -13
-18 -21 -22 -17 -3 3 -7 41 -8 83 -9 396 -17 588 -22 594 -4 4 -15 1 -25 -6
-15 -12 -18 -41 -24 -252 -4 -132 -10 -219 -13 -194 l-5 45 -9 -40 c-10 -51
-8 -169 4 -220 8 -37 7 -42 -18 -62 -15 -12 -30 -22 -33 -23 -3 0 -9 149 -12
332 -4 182 -9 333 -11 335 -2 3 -13 -2 -25 -9 -19 -11 -21 -22 -21 -105 0 -51
-4 -93 -9 -93 -10 0 -22 -151 -27 -355 -3 -127 -6 -152 -21 -162 -9 -7 -20
-13 -25 -13 -4 0 -8 105 -8 233 0 127 -3 276 -7 329 l-6 97 -23 -16 c-23 -15
-24 -20 -25 -162 -1 -80 -5 -175 -9 -211 l-7 -65 -3 55 -2 55 -10 -55 c-10
-59 -6 -264 6 -291 5 -11 -1 -19 -19 -27 -14 -7 -27 -12 -29 -12 -2 0 -7 144
-11 320 -6 254 -10 320 -21 320 -7 0 -16 -6 -21 -12 -9 -15 -8 6 -11 -375 -2
-253 -4 -293 -17 -293 -12 0 -15 16 -15 81 0 51 4 78 10 74 7 -4 9 47 8 147
-2 112 -3 128 -5 58 -3 -64 -7 -90 -13 -80 -6 10 -10 -37 -10 -136 0 -123 -3
-154 -15 -164 -9 -7 -17 -11 -19 -9 -3 2 -8 145 -12 317 -4 171 -8 312 -10
312 -2 0 -15 -5 -29 -12 l-25 -11 0 -323 0 -323 -29 -15 -29 -15 -7 197 c-3
108 -9 247 -13 309 -7 106 -8 111 -26 98 -16 -12 -19 -34 -24 -187 -3 -95 -8
-162 -12 -148 -10 41 -22 -140 -14 -225 6 -65 4 -78 -11 -95 -10 -11 -22 -20
-27 -20 -4 0 -9 109 -9 243 -1 133 -4 272 -8 309 l-6 67 -25 -20 c-14 -12 -19
-18 -12 -14 9 5 12 -10 12 -59 0 -37 -4 -66 -10 -66 -6 0 -10 -88 -10 -244 0
-217 -2 -245 -16 -250 -9 -4 -18 -5 -20 -4 -1 2 -6 148 -10 324 l-7 321 54 35
c87 55 200 123 409 243 107 62 247 144 310 182 63 38 150 88 193 112 42 23 91
54 108 68 24 21 33 23 39 13 13 -21 40 6 40 41 0 20 5 29 17 29 15 0 16 -32 9
-402z m72 369 c2 -19 -1 -27 -12 -27 -20 0 -29 16 -21 41 9 27 29 19 33 -14z
m2889 -19 c-3 -8 -6 -5 -6 6 -1 11 2 17 5 13 3 -3 4 -12 1 -19z m-2789 -341
c2 -305 -3 -384 -21 -315 -3 11 -6 165 -7 341 0 254 2 318 12 315 10 -4 14
-79 16 -341z m95 326 c3 -5 6 -142 8 -306 3 -274 2 -300 -14 -308 -16 -9 -17
10 -17 306 0 284 4 339 23 308z m3705 -43 c135 -22 252 -46 259 -52 22 -18 15
-27 -19 -22 -89 12 -387 56 -416 61 l-33 5 31 -52 c17 -29 29 -55 26 -57 -3
-3 -153 -2 -333 3 l-328 9 -9 48 c-11 63 -29 61 -24 -4 l3 -52 -110 -43 c-60
-24 -115 -44 -122 -44 -7 0 -17 9 -23 19 -5 11 -23 22 -40 26 -16 4 -30 10
-30 15 0 4 44 26 98 49 53 23 124 58 157 78 33 20 76 40 95 43 19 4 156 8 304
9 l268 1 246 -40z m-3601 -247 c-2 -211 -5 -277 -14 -280 -10 -4 -13 56 -13
276 0 237 2 281 14 281 12 0 14 -43 13 -277z m95 30 c3 -219 -1 -263 -22 -263
-4 0 -8 113 -9 250 -1 211 1 250 13 250 12 0 15 -39 18 -237z m91 2 c-2 -167
-5 -210 -16 -217 -12 -6 -14 27 -14 213 0 196 2 220 16 217 14 -3 16 -28 14
-213z m191 206 c9 -14 -4 -41 -20 -41 -8 0 -14 10 -14 25 0 25 23 35 34 16z
m-104 -191 c0 -162 -2 -190 -15 -190 -13 0 -15 28 -15 190 0 162 2 190 15 190
13 0 15 -28 15 -190z m77 -87 c-2 -38 -3 -7 -3 67 0 74 1 105 3 68 2 -38 2
-98 0 -135z m2067 116 c29 -23 34 -39 11 -39 -13 0 -15 -22 -15 -135 0 -83 -4
-135 -10 -135 -6 0 -10 52 -10 136 0 87 -4 133 -10 129 -6 -4 -10 -59 -10
-133 0 -70 -4 -134 -9 -141 -15 -23 -21 17 -24 159 -2 104 -3 95 -5 -52 l-2
-178 45 0 c25 0 45 -5 45 -10 0 -17 -51 -31 -99 -28 l-46 3 -3 214 c-2 165 1
216 10 223 26 16 104 9 132 -13z m359 -51 c16 -13 41 -175 42 -278 l0 -45 -40
0 -40 0 -7 85 c-3 47 -6 122 -7 168 -1 73 1 82 17 82 10 0 26 -6 35 -12z
m-128 -58 c-14 -27 -48 -84 -75 -126 l-50 -77 0 112 c0 108 1 111 23 112 12 0
42 6 67 13 25 8 48 14 53 15 4 0 -4 -21 -18 -49z m405 -60 c47 -10 74 -18 61
-19 -37 -2 -155 20 -165 30 -14 13 5 11 104 -11z m-3373 -72 c-2 -13 -4 -5 -4
17 -1 22 1 32 4 23 2 -10 2 -28 0 -40z m3378 23 l60 -9 -51 -1 c-62 -1 -114 8
-114 20 0 5 10 7 23 4 12 -3 49 -9 82 -14z m-385 -76 l0 -75 -56 0 -56 0 17
28 c49 77 81 122 88 122 4 0 7 -34 7 -75z m415 13 c17 -7 16 -8 -5 -3 -14 2
-49 5 -77 5 -31 0 -53 4 -53 11 0 12 101 2 135 -13z m395 -166 c0 -104 3 -229
6 -278 3 -50 1 -95 -4 -103 -8 -11 -28 -12 -103 -4 l-94 9 55 27 55 27 -90 -4
-90 -5 70 33 c39 18 81 38 95 44 22 11 19 11 -20 6 -49 -6 -180 -32 -208 -40
-43 -13 43 29 138 68 123 50 110 59 -40 28 -56 -11 -104 -19 -107 -17 -2 2 20
14 49 26 147 61 199 86 190 89 -8 2 -160 -29 -262 -54 -57 -15 3 15 134 67 76
30 132 55 123 57 -8 2 -59 -9 -113 -23 -158 -42 -168 -44 -173 -40 -2 3 16 13
40 23 24 11 82 37 129 59 47 22 96 45 110 51 23 10 23 11 4 11 -36 2 -459
-123 -468 -138 -2 -3 -8 -72 -12 -151 -9 -179 -21 -152 -30 71 l-7 156 134 42
c74 23 206 67 294 96 88 30 168 55 178 55 16 0 17 -16 17 -188z m525 152 c374
-35 540 -59 345 -49 -249 13 -307 15 -250 5 30 -5 117 -14 193 -19 76 -5 140
-11 142 -13 2 -2 7 -198 10 -436 l6 -432 -298 4 c-164 2 -362 5 -440 5 l-143
1 0 485 0 485 28 0 c15 0 198 -16 407 -36z m-4328 -61 c-3 -10 -5 -4 -5 12 0
17 2 24 5 18 2 -7 2 -21 0 -30z m3340 25 c-35 -8 -52 -7 -60 1 -8 8 5 11 49
10 l59 -1 -48 -10z m-3820 -60 c-3 -8 -6 -5 -6 6 -1 11 2 17 5 13 3 -3 4 -12
1 -19z m-5 -178 c3 -69 1 -136 -3 -150 -4 -14 -7 44 -8 129 -1 85 1 152 3 150
2 -2 6 -60 8 -129z m3607 115 c21 -12 -8 -25 -42 -18 -16 3 -68 0 -116 -8
l-86 -14 75 -10 75 -10 -92 -14 c-88 -13 -125 -31 -65 -31 15 0 45 -3 67 -7
31 -5 35 -8 20 -14 -11 -4 -39 -8 -62 -8 -63 -1 -64 -21 -1 -21 82 0 91 -16
14 -25 -75 -8 -79 -25 -6 -25 71 0 70 -17 -1 -25 -74 -9 -61 -24 21 -26 65 -1
41 -17 -27 -18 -60 -1 -65 -21 -6 -22 26 -1 62 -5 78 -9 28 -7 27 -8 -15 -10
-25 -1 -58 -6 -75 -9 -26 -7 -22 -8 30 -15 94 -11 95 -12 12 -21 -43 -4 -75
-10 -72 -14 4 -3 37 -11 73 -17 l67 -10 -60 -8 c-84 -11 -99 -20 -37 -24 28
-2 52 -7 52 -11 0 -11 -36 -21 -74 -21 -43 0 -20 -18 29 -22 43 -4 34 -12 -30
-24 l-40 -8 55 -6 55 -6 -36 -16 c-20 -9 -58 -20 -86 -24 l-50 -6 -6 98 c-4
55 -7 174 -7 267 0 186 0 187 73 214 35 14 274 12 296 -2z m-468 -45 c18 -10
19 -23 19 -203 0 -208 -2 -217 -52 -217 l-28 0 0 108 c0 60 3 157 7 215 6 113
10 120 54 97z m-2848 -75 c-7 -21 -13 -19 -13 6 0 11 4 18 10 14 5 -3 7 -12 3
-20z m-436 -202 c-3 -10 -5 -4 -5 12 0 17 2 24 5 18 2 -7 2 -21 0 -30z m3978
-152 c22 -10 56 -35 76 -55 37 -38 83 -140 94 -206 5 -29 1 -25 -24 27 -34 72
-100 147 -153 174 -51 26 -54 24 -23 -12 14 -18 35 -50 47 -73 l21 -41 -41 37
c-58 52 -93 68 -155 68 -42 0 -63 -6 -98 -29 -45 -29 -93 -76 -122 -121 -26
-38 -20 -5 9 53 51 100 105 152 193 183 52 19 129 17 176 -5z m433 3 c24 -4
32 -10 32 -25 0 -20 -3 -21 -115 -14 l-115 7 0 -26 c0 -26 0 -26 84 -26 111 0
146 -7 146 -31 0 -17 -8 -19 -64 -19 -34 0 -91 3 -125 6 l-61 7 0 69 0 69 93
-6 c50 -3 107 -8 125 -11z m-4831 -71 c-3 -10 -5 -2 -5 17 0 19 2 27 5 18 2
-10 2 -26 0 -35z m3717 -130 c-4 -89 -11 -151 -18 -155 -6 -4 -22 -8 -35 -8
-24 0 -24 0 -18 83 4 45 7 115 7 155 l0 72 35 0 36 0 -7 -147z m2366 86 c0
-24 -3 -29 -12 -21 -7 5 -50 13 -95 17 -61 5 -83 11 -83 21 0 11 20 14 95 14
l95 0 0 -31z m-1753 -60 c156 -150 148 -560 -13 -709 -75 -69 -132 -78 -206
-31 -80 51 -128 181 -128 350 0 143 49 297 116 365 74 74 169 84 231 25z
m1753 -14 l0 -24 -87 6 c-80 5 -102 13 -103 36 0 4 43 7 95 7 94 0 95 0 95
-25z m-3064 -132 c-7 -53 -12 -61 -27 -46 -16 16 -1 93 18 93 13 0 15 -8 9
-47z m115 -5 c8 -32 -3 -51 -27 -46 -23 4 -31 43 -13 64 16 20 31 13 40 -18z
m789 -46 c0 -5 -13 -33 -30 -64 -23 -43 -32 -76 -40 -149 -5 -52 -13 -95 -19
-97 -5 -2 -1 -31 10 -64 10 -34 16 -64 14 -66 -3 -3 -19 25 -36 62 -30 63 -31
73 -27 150 4 52 13 100 26 129 22 50 11 65 -21 29 -37 -41 -70 -182 -71 -310
-1 -28 -2 -52 -4 -52 -2 0 -15 25 -29 56 -22 49 -25 66 -20 119 3 35 15 89 26
121 11 33 18 61 16 63 -10 9 -34 -23 -56 -72 -21 -46 -23 -68 -24 -189 0 -75
-3 -134 -7 -130 -4 4 -16 31 -27 60 -26 66 -27 149 -1 222 22 64 19 80 -5 24
-31 -74 -54 -219 -45 -281 5 -26 6 -50 5 -51 -8 -8 -38 51 -50 100 -13 46 -12
61 1 118 8 36 26 86 39 113 30 56 19 61 -25 11 -38 -44 -48 -68 -65 -164 -7
-41 -16 -82 -20 -91 -3 -9 0 -42 9 -73 19 -76 -3 -60 -34 24 -30 81 -25 156
17 241 18 35 31 65 29 66 -7 8 -49 -34 -71 -71 -46 -79 -71 -262 -45 -330 15
-39 -6 -23 -29 22 -48 97 -46 197 7 305 16 31 25 57 21 57 -14 0 -62 -65 -80
-108 -21 -49 -44 -211 -34 -243 5 -15 4 -19 -4 -15 -6 4 -11 23 -11 43 0 27
-3 34 -15 29 -52 -20 -4 225 55 279 10 9 76 31 146 49 131 34 371 98 454 121
57 16 70 17 70 7z m1450 -23 c283 -10 558 -19 610 -20 l95 -1 -128 -24 c-70
-13 -225 -49 -345 -80 -119 -31 -318 -83 -442 -116 -215 -56 -233 -59 -405
-69 -98 -5 -185 -7 -192 -5 -10 4 -13 46 -13 174 l0 169 153 -4 c83 -2 384
-13 667 -24z m-2542 -268 c27 -14 47 -35 66 -73 16 -29 30 -54 30 -55 1 -1 42
7 91 17 50 11 93 19 98 20 4 0 7 -15 7 -34 0 -30 -4 -35 -30 -41 -16 -4 -30
-11 -30 -15 0 -15 42 -124 51 -134 16 -18 9 -24 -37 -31 -40 -6 -129 -26 -176
-41 -16 -5 -18 3 -18 78 0 81 -23 198 -50 248 -7 14 -24 37 -38 53 -30 32 -16
35 36 8z m-132 -47 c65 -31 104 -135 104 -278 0 -159 -43 -282 -114 -325 -46
-29 -69 -26 -111 10 -59 52 -93 214 -75 351 19 136 55 208 125 246 27 15 31
15 71 -4z m-337 -116 c77 -71 103 -336 47 -470 -57 -135 -164 -152 -220 -36
-51 107 -56 249 -14 386 36 119 126 177 187 120z m-347 -105 c73 -79 95 -229
56 -393 -33 -138 -127 -208 -200 -150 -14 10 -36 43 -49 72 -20 46 -24 69 -24
168 0 137 23 212 87 285 49 55 89 61 130 18z m4732 0 c-3 -16 -12 -53 -19 -83
-7 -30 -16 -67 -19 -82 -6 -28 -20 -34 -44 -19 -11 6 -9 26 9 102 12 52 23 97
26 102 2 4 15 7 29 7 21 0 24 -3 18 -27z m-5339 -108 c-66 -19 -154 -45 -195
-60 -83 -28 -84 -20 0 15 60 25 263 79 295 79 11 0 -34 -15 -100 -34z m163
-30 c-3 -3 -50 -19 -104 -34 -55 -16 -112 -34 -129 -41 -48 -19 -438 -130
-455 -130 -50 2 239 111 413 157 139 36 289 62 275 48z m1531 -9 c-7 -7 -211
-48 -216 -43 -2 3 22 11 54 17 32 7 72 16 88 20 32 9 81 13 74 6z m-1544 -93
c-11 -3 -108 -32 -215 -65 -191 -58 -453 -128 -474 -128 -28 2 94 54 229 99
139 46 380 99 450 99 20 0 23 -2 10 -5z m-45 -114 c-41 -11 -151 -42 -245 -69
-93 -27 -219 -60 -280 -73 -60 -14 -119 -28 -130 -31 -11 -4 21 13 70 37 155
75 464 152 620 155 34 0 28 -3 -35 -19z m5134 -86 c-8 -27 -17 -57 -20 -69 -4
-16 -11 -20 -31 -16 -21 4 -24 9 -19 33 12 63 34 99 60 99 l25 0 -15 -47z
m-5058 8 c-3 -4 -23 -11 -43 -14 -21 -4 -114 -27 -208 -53 -199 -54 -466 -115
-480 -111 -19 7 205 87 337 121 73 19 176 39 228 45 151 17 155 18 163 20 5 0
6 -3 3 -8z m-1228 -17 c57 -39 89 -173 72 -296 -18 -124 -79 -215 -129 -189
-45 24 -82 143 -82 267 -1 104 15 160 56 201 37 37 51 40 83 17z m-220 -132
c22 -48 26 -71 26 -147 0 -120 -23 -196 -75 -248 -32 -33 -43 -38 -66 -33 -72
17 -108 115 -101 275 5 110 22 165 65 203 58 53 111 36 151 -50z m1507 71
c-11 -2 -146 -35 -300 -73 -273 -68 -453 -105 -463 -95 -3 2 1 7 9 9 208 69
412 120 609 151 78 12 192 19 145 8z m-964 -74 c19 -6 40 -13 48 -15 8 -3 12
-6 10 -9 -3 -2 -32 4 -64 15 -33 10 -53 19 -44 19 9 1 31 -4 50 -10z m-873
-33 c44 -50 57 -98 55 -201 -1 -65 -7 -106 -23 -147 -21 -56 -67 -108 -95
-108 -28 0 -74 52 -95 108 -42 111 -23 274 41 347 41 47 76 47 117 1z m883
-22 c39 -9 68 -18 65 -21 -7 -8 -135 18 -142 28 -7 12 -4 12 77 -7z m19 -65
c20 -5 44 -15 55 -23 21 -16 24 -17 -130 29 l-50 14 45 -5 c25 -3 61 -10 80
-15z m5869 -8 c11 -7 12 -15 3 -38 -6 -15 -16 -40 -21 -55 -10 -25 -13 -27
-36 -16 -30 14 -31 16 -3 73 22 46 32 52 57 36z m-5949 -30 c19 -6 55 -15 79
-21 23 -6 41 -13 39 -16 -6 -5 -177 32 -186 40 -8 9 29 7 68 -3z m40 -66 l65
-14 -69 5 c-73 6 -136 23 -86 23 14 0 54 -6 90 -14z m-14 -66 c4 -7 -11 -9
-52 -4 -77 10 -81 15 -11 15 31 0 59 -5 63 -11z m5788 -135 c20 -8 20 -12 -5
-68 -18 -43 -22 -45 -42 -35 -12 7 -24 13 -26 15 -2 2 5 23 15 48 19 46 28 52
58 40z m-2101 -171 c3 -5 -25 -45 -62 -90 -36 -45 -108 -134 -160 -197 l-94
-116 -921 -2 c-506 -2 -923 -2 -925 -1 -2 1 15 30 37 65 23 35 58 92 79 127
21 35 47 70 58 77 20 13 118 21 730 59 871 54 1212 77 1247 84 4 0 9 -2 11 -6z
m1989 -90 c8 -4 -19 -63 -45 -97 -11 -15 -17 -17 -35 -7 -29 15 -28 24 8 76
29 42 39 46 72 28z m-191 -263 c25 -14 24 -23 -7 -70 -28 -43 -40 -47 -67 -27
-15 11 -14 16 14 60 35 52 33 51 60 37z m-198 -288 c15 -17 13 -22 -29 -75
-44 -57 -45 -57 -69 -41 -14 9 -25 19 -25 22 0 11 86 111 96 112 6 0 18 -8 27
-18z m-235 -275 l22 -23 -53 -52 -52 -51 -25 19 c-24 18 -24 19 -5 42 39 47
79 88 85 88 4 0 16 -10 28 -23z m-247 -260 c16 -22 15 -24 -48 -76 -65 -53
-65 -53 -84 -33 -10 12 -20 25 -21 30 -4 13 113 111 126 106 6 -3 18 -15 27
-27z m-303 -236 l21 -29 -71 -47 -71 -47 -18 23 c-10 13 -18 27 -16 31 2 9
119 98 128 98 3 0 15 -13 27 -29z m-328 -211 c7 -17 11 -32 9 -34 -14 -11
-132 -76 -138 -76 -14 0 -43 52 -34 60 15 15 128 79 139 80 6 0 17 -14 24 -30z
m-356 -175 c9 -13 16 -27 16 -30 0 -5 -114 -58 -148 -69 -15 -5 -22 1 -32 24
-7 17 -10 34 -6 37 6 6 133 60 147 62 4 1 14 -10 23 -24z m-376 -137 c7 -18
12 -35 12 -38 -1 -6 -129 -50 -146 -50 -6 0 -18 14 -25 32 -11 27 -11 32 2 37
7 3 41 15 74 27 33 11 62 22 65 23 3 0 11 -14 18 -31z m-374 -100 c7 -18 12
-36 10 -39 -2 -4 -38 -15 -80 -24 -84 -20 -97 -15 -92 35 3 21 12 26 68 41 36
9 68 18 72 18 5 1 14 -14 22 -31z m-375 -75 c6 -20 9 -38 8 -39 -6 -5 -158
-19 -162 -15 -3 2 -5 21 -5 42 0 37 1 38 43 42 108 9 105 10 116 -30z"/>
<path d="M6040 6704 c-12 -31 -13 -155 -1 -136 4 8 7 24 5 38 -1 13 2 24 6 24
5 0 11 -17 13 -37 2 -21 4 -3 5 40 1 50 -2 76 -8 72 -5 -3 -10 -2 -10 4 0 5 6
12 13 14 9 4 9 6 -1 6 -7 1 -17 -11 -22 -25z m7 -51 c-3 -10 -5 -4 -5 12 0 17
2 24 5 18 2 -7 2 -21 0 -30z"/>
<path d="M4412 5715 c0 -16 2 -22 5 -12 2 9 2 23 0 30 -3 6 -5 -1 -5 -18z"/>
<path d="M3201 4758 c0 -66 3 -108 9 -108 11 0 11 66 0 155 -6 55 -7 50 -9
-47z"/>
<path d="M2843 4805 c0 -22 2 -30 4 -17 2 12 2 30 0 40 -3 9 -5 -1 -4 -23z"/>
<path d="M7321 5682 c0 -338 2 -391 16 -396 8 -3 67 -6 131 -6 127 0 439 -15
540 -26 l62 -6 0 394 0 394 -277 13 c-153 7 -322 15 -375 18 l-98 5 1 -390z
m404 282 c138 -9 252 -18 254 -20 15 -14 -35 -15 -241 -5 -278 14 -344 21
-326 32 18 12 27 11 313 -7z m35 -90 c113 -9 210 -21 215 -26 7 -7 -18 -8 -80
-4 -82 6 -438 25 -493 26 -13 0 -20 4 -17 10 9 14 140 12 375 -6z m-52 -51
c-10 -2 -28 -2 -40 0 -13 2 -5 4 17 4 22 1 32 -1 23 -4z m129 -42 c73 -4 136
-11 140 -14 17 -17 -559 7 -586 24 -17 11 176 6 446 -10z m-244 -38 c-7 -2
-21 -2 -30 0 -10 3 -4 5 12 5 17 0 24 -2 18 -5z m110 -10 c-7 -2 -21 -2 -30 0
-10 3 -4 5 12 5 17 0 24 -2 18 -5z m47 -33 c112 -6 209 -15 214 -20 6 -6 -27
-8 -90 -5 -54 3 -182 7 -283 10 -106 2 -189 9 -195 15 -13 13 83 13 354 0z m3
-57 c-13 -2 -35 -2 -50 0 -16 2 -5 4 22 4 28 0 40 -2 28 -4z m175 -10 c-21 -2
-55 -2 -75 0 -21 2 -4 4 37 4 41 0 58 -2 38 -4z m-51 -31 c50 -4 95 -11 100
-16 4 -5 -20 -6 -57 -2 -36 3 -159 8 -275 12 -115 4 -219 11 -230 16 -21 9
296 2 462 -10z m-50 -59 c-20 -2 -52 -2 -70 0 -17 2 0 4 38 4 39 0 53 -2 32
-4z m-112 -18 c72 -8 158 -15 193 -15 38 0 62 -4 62 -11 0 -8 -24 -9 -77 -5
-43 3 -132 8 -198 11 -236 11 -308 17 -294 26 21 13 168 10 314 -6z m8 -62
c-7 -2 -19 -2 -25 0 -7 3 -2 5 12 5 14 0 19 -2 13 -5z m125 -29 c72 -4 132
-11 132 -15 0 -11 -20 -11 -320 1 -152 7 -248 15 -255 21 -10 11 90 10 443 -7z
m77 -94 c32 -6 -47 -8 -220 -6 -195 2 -276 6 -290 15 -16 10 27 11 220 6 132
-4 263 -10 290 -15z"/>
<path d="M7773 5233 c32 -2 81 -2 110 0 29 2 3 3 -58 3 -60 0 -84 -1 -52 -3z"/>
<path d="M8006 5228 c3 -4 21 -8 40 -8 22 0 33 4 29 10 -4 6 -22 10 -40 8 -19
-1 -31 -6 -29 -10z"/>
<path d="M6465 5281 c-45 -28 -71 -60 -100 -124 -77 -167 -45 -413 64 -496 19
-14 31 -20 26 -12 -6 11 -4 13 9 8 69 -27 115 -7 164 71 44 69 64 136 69 237
13 229 -107 394 -232 316z m87 -43 c18 -16 31 -48 18 -48 -5 0 -12 5 -16 11
-3 6 -21 9 -40 7 -29 -3 -31 -2 -21 12 25 32 36 36 59 18z m6 -151 c62 -66 53
-207 -15 -267 -43 -38 -65 -38 -97 0 -49 59 -55 151 -15 232 31 62 88 77 127
35z m-117 -414 c13 -16 12 -17 -3 -4 -10 7 -18 15 -18 17 0 8 8 3 21 -13z"/>
<path d="M6497 5020 c-35 -28 -67 -82 -67 -113 0 -33 46 -87 74 -87 67 0 110
146 59 203 -21 22 -34 22 -66 -3z"/>
<path d="M7801 4994 c0 -11 3 -14 6 -6 3 7 2 16 -1 19 -3 4 -6 -2 -5 -13z"/>
<path d="M4911 4683 c-49 -49 -74 -128 -74 -234 -1 -65 4 -86 29 -135 l29 -59
50 0 c45 0 51 3 72 34 33 49 53 125 53 202 0 132 -32 210 -93 225 -23 5 -34 0
-66 -33z m96 -110 c15 -22 14 -23 -30 -42 -49 -21 -64 -51 -47 -95 7 -19 17
-26 37 -26 25 0 26 -1 11 -16 -12 -13 -20 -14 -36 -5 -22 12 -43 68 -37 98 13
63 18 76 36 94 24 24 47 22 66 -8z"/>
<path d="M4562 4585 c-89 -75 -104 -301 -26 -395 15 -17 35 -30 49 -30 35 0
80 43 105 102 19 45 22 65 18 147 -7 167 -69 241 -146 176z m86 -107 c22 -22
14 -45 -18 -52 -37 -7 -66 -60 -56 -101 6 -23 11 -27 36 -23 32 5 41 -6 14
-16 -30 -12 -53 4 -64 44 -24 90 39 197 88 148z"/>
<path d="M4225 4501 c-42 -25 -62 -59 -81 -133 -20 -79 -15 -183 13 -230 10
-18 36 -41 57 -51 35 -17 40 -17 63 -2 14 9 36 41 50 71 20 44 25 71 25 142 1
170 -49 251 -127 203z m69 -127 c10 -27 7 -34 -18 -34 -28 0 -66 -42 -66 -72
0 -36 19 -60 43 -52 19 6 20 5 8 -10 -20 -24 -39 -20 -56 14 -27 52 -11 148
27 163 26 11 56 6 62 -9z"/>
<path d="M2598 4033 c-9 -10 -23 -33 -33 -52 -39 -76 6 -286 60 -286 28 0 74
81 81 141 16 129 -55 257 -108 197z m47 -93 c4 -6 -7 -25 -24 -42 l-31 -32 0
30 c0 43 37 73 55 44z"/>
<path d="M2308 3963 c-15 -16 -34 -48 -43 -72 -39 -113 7 -271 79 -271 56 0
106 149 86 258 -19 103 -70 139 -122 85z m66 -79 c25 -10 19 -27 -24 -62 l-40
-33 0 29 c0 15 9 38 20 50 23 25 22 24 44 16z"/>
<path d="M2018 3896 c-46 -35 -67 -149 -43 -233 20 -68 39 -93 72 -93 51 0 93
76 93 167 -1 127 -62 205 -122 159z m82 -117 c0 -13 -8 -23 -20 -26 -11 -3
-23 -16 -26 -29 -8 -30 -24 -21 -24 12 0 39 18 64 45 64 19 0 25 -5 25 -21z"/>
<path d="M1812 6162 c-35 -93 -35 -91 11 -109 23 -10 44 -17 46 -16 11 4 42
106 35 113 -5 5 -25 16 -45 24 -37 15 -37 15 -47 -12z"/>
<path d="M8443 6172 c-24 -9 -43 -22 -43 -30 0 -14 40 -112 46 -112 10 0 84
43 84 49 0 19 -32 111 -38 110 -4 -1 -26 -9 -49 -17z"/>
<path d="M8532 5920 c-18 -4 -35 -10 -38 -13 -3 -3 -2 -31 1 -62 l8 -57 44 6
c25 3 48 8 52 11 11 6 -12 118 -24 121 -6 1 -25 -2 -43 -6z"/>
<path d="M1726 5908 c-15 -48 -24 -104 -18 -110 4 -4 26 -10 49 -14 l42 -6 7
38 c3 22 11 47 15 56 10 20 -6 31 -59 43 -23 5 -33 3 -36 -7z"/>
<path d="M8568 5653 c-30 -5 -33 -16 -21 -87 l6 -38 45 6 c25 3 47 8 50 10 2
2 1 29 -3 60 -8 60 -7 60 -77 49z"/>
<path d="M1664 5594 c-3 -30 -4 -57 -1 -61 3 -3 26 -8 50 -10 l44 -5 7 57 c3
32 5 59 4 60 -2 1 -24 5 -50 8 l-47 6 -7 -55z"/>
<path d="M1630 5305 l0 -65 49 0 49 0 4 58 c2 31 4 57 3 58 0 1 -24 4 -52 7
l-53 6 0 -64z"/>
<path d="M8619 4510 c-17 -27 -34 -50 -37 -50 -4 0 -18 -18 -32 -41 -14 -22
-33 -45 -42 -50 -10 -5 -18 -14 -18 -20 0 -19 54 31 79 74 35 58 38 30 4 -35
-38 -72 -39 -75 -19 -59 23 20 56 85 61 122 2 17 15 46 29 64 28 37 31 45 16
45 -6 0 -24 -22 -41 -50z"/>
<path d="M8588 4536 c-7 -7 -20 -24 -28 -36 -8 -12 -27 -38 -42 -58 -16 -19
-28 -41 -28 -48 0 -21 8 -17 24 14 8 15 25 38 38 52 37 39 70 90 59 90 -5 0
-16 -6 -23 -14z"/>
<path d="M8523 4513 c-9 -16 -27 -41 -40 -56 -45 -56 -22 -47 27 10 27 32 50
61 50 66 0 16 -21 5 -37 -20z"/>
<path d="M8491 4518 c-6 -7 -24 -30 -42 -50 -17 -21 -28 -38 -23 -38 9 0 84
81 84 92 0 12 -8 10 -19 -4z"/>
<path d="M8412 4509 c-18 -6 -30 -14 -26 -20 3 -6 -3 -20 -13 -32 -27 -29 -36
-47 -26 -47 5 0 22 20 37 45 16 25 33 45 37 45 13 0 11 -14 -3 -28 -6 -6 -10
-14 -7 -16 3 -3 17 10 32 29 29 37 25 40 -31 24z"/>
<path d="M8343 4489 c-13 -5 -23 -13 -23 -20 0 -6 -10 -19 -22 -29 -13 -10
-20 -21 -17 -24 3 -3 25 12 48 35 46 42 50 52 14 38z"/>
<path d="M8277 4474 c-4 -4 -17 -8 -29 -9 -37 -4 -38 -4 -38 -16 0 -8 5 -7 15
1 22 18 31 4 12 -18 -19 -21 -22 -32 -8 -32 6 0 18 13 27 29 10 16 27 34 38
40 15 7 17 10 5 10 -9 1 -19 -2 -22 -5z"/>
<path d="M8158 4448 c-19 -7 -28 -16 -27 -31 0 -22 0 -22 10 1 5 13 13 21 18
17 5 -3 12 -1 16 5 4 6 11 8 16 5 5 -4 9 -1 9 4 0 13 -6 13 -42 -1z"/>
<path d="M8068 4423 c6 -2 18 -2 25 0 6 3 1 5 -13 5 -14 0 -19 -2 -12 -5z"/>
<path d="M8187 4423 c-4 -3 -7 -11 -7 -17 0 -6 5 -5 12 2 6 6 9 14 7 17 -3 3
-9 2 -12 -2z"/>
<path d="M8380 4397 c-29 -43 -31 -47 -21 -47 11 0 45 59 39 65 -2 2 -10 -6
-18 -18z"/>
<path d="M6532 4380 c0 -14 2 -19 5 -12 2 6 2 18 0 25 -3 6 -5 1 -5 -13z"/>
<path d="M6502 4365 c0 -16 2 -22 5 -12 2 9 2 23 0 30 -3 6 -5 -1 -5 -18z"/>
<path d="M6561 4374 c0 -11 3 -14 6 -6 3 7 2 16 -1 19 -3 4 -6 -2 -5 -13z"/>
<path d="M8310 4380 c-12 -7 -12 -12 -3 -21 10 -10 14 -9 19 5 8 22 2 27 -16
16z"/>
<path d="M8450 4361 c-6 -12 -7 -21 -1 -21 10 0 24 30 17 37 -2 3 -9 -5 -16
-16z"/>
<path d="M8270 4354 c0 -8 5 -12 10 -9 6 3 10 10 10 16 0 5 -4 9 -10 9 -5 0
-10 -7 -10 -16z"/>
<path d="M8400 4351 c-6 -12 -7 -21 -1 -21 10 0 24 30 17 37 -2 3 -9 -5 -16
-16z"/>
<path d="M6461 4344 c0 -11 3 -14 6 -6 3 7 2 16 -1 19 -3 4 -6 -2 -5 -13z"/>
<path d="M8220 4344 c0 -8 5 -12 10 -9 6 3 10 10 10 16 0 5 -4 9 -10 9 -5 0
-10 -7 -10 -16z"/>
<path d="M8164 4329 c-19 -22 -19 -22 4 -10 12 6 22 16 22 21 0 15 -5 12 -26
-11z"/>
<path d="M8105 4331 c-3 -5 -1 -12 5 -16 5 -3 10 1 10 9 0 18 -6 21 -15 7z"/>
<path d="M8312 4308 c-7 -7 -12 -19 -12 -27 0 -11 5 -8 16 7 18 25 15 39 -4
20z"/>
<path d="M8457 4304 c-4 -4 -7 -14 -7 -23 0 -11 3 -12 11 -4 6 6 10 16 7 23
-2 6 -7 8 -11 4z"/>
<path d="M8506 4301 c-4 -7 -5 -15 -2 -18 9 -9 19 4 14 18 -4 11 -6 11 -12 0z"/>
<path d="M8350 4280 c-6 -11 -8 -20 -6 -20 3 0 10 9 16 20 6 11 8 20 6 20 -3
0 -10 -9 -16 -20z"/>
<path d="M8393 4285 c-9 -25 4 -29 17 -6 7 15 7 21 0 21 -6 0 -13 -7 -17 -15z"/>
<path d="M8246 4274 c-18 -18 -20 -24 -6 -24 5 0 14 9 20 20 13 24 7 26 -14 4z"/>
<path d="M8657 4253 c-18 -21 -33 -73 -21 -73 11 0 49 78 42 85 -3 3 -12 -3
-21 -12z"/>
<path d="M8105 4250 c-3 -5 -1 -10 4 -10 6 0 11 5 11 10 0 6 -2 10 -4 10 -3 0
-8 -4 -11 -10z"/>
<path d="M8145 4250 c-3 -5 -1 -10 4 -10 6 0 11 5 11 10 0 6 -2 10 -4 10 -3 0
-8 -4 -11 -10z"/>
<path d="M8436 4245 c-11 -8 -17 -17 -14 -20 2 -3 13 4 23 15 21 23 18 25 -9
5z"/>
<path d="M8497 4254 c-4 -4 -7 -14 -7 -23 0 -11 3 -12 11 -4 6 6 10 16 7 23
-2 6 -7 8 -11 4z"/>
<path d="M5872 4210 c0 -14 2 -19 5 -12 2 6 2 18 0 25 -3 6 -5 1 -5 -13z"/>
<path d="M8536 4199 c-3 -17 -6 -39 -6 -48 1 -14 2 -14 9 -1 13 23 21 80 12
80 -5 0 -11 -14 -15 -31z"/>
<path d="M8307 4214 c-4 -4 -7 -14 -7 -23 0 -11 3 -12 11 -4 6 6 10 16 7 23
-2 6 -7 8 -11 4z"/>
<path d="M8345 4199 c-4 -6 -5 -12 -2 -15 2 -3 7 2 10 11 7 17 1 20 -8 4z"/>
<path d="M8457 4203 c-4 -3 -7 -11 -7 -17 0 -6 5 -5 12 2 6 6 9 14 7 17 -3 3
-9 2 -12 -2z"/>
<path d="M8240 4185 c-8 -9 -8 -15 -2 -15 12 0 26 19 19 26 -2 2 -10 -2 -17
-11z"/>
<path d="M8176 4181 c-4 -7 -5 -15 -2 -18 9 -9 19 4 14 18 -4 11 -6 11 -12 0z"/>
<path d="M8106 4164 c-9 -22 3 -32 14 -14 12 19 12 30 1 30 -5 0 -12 -7 -15
-16z"/>
<path d="M8491 4164 c0 -11 3 -14 6 -6 3 7 2 16 -1 19 -3 4 -6 -2 -5 -13z"/>
<path d="M8000 4160 c0 -5 5 -10 10 -10 6 0 10 5 10 10 0 6 -4 10 -10 10 -5 0
-10 -4 -10 -10z"/>
<path d="M7965 4150 c3 -5 8 -10 11 -10 2 0 4 5 4 10 0 6 -5 10 -11 10 -5 0
-7 -4 -4 -10z"/>
<path d="M8566 4136 c-10 -15 -24 -49 -32 -75 -7 -26 -23 -58 -34 -71 -11 -13
-17 -26 -14 -29 4 -3 9 0 11 7 3 6 10 12 17 12 11 0 46 90 46 120 0 7 7 18 16
25 9 6 15 18 12 25 -2 8 -10 3 -22 -14z"/>
<path d="M8616 4144 c-4 -9 -4 -19 -2 -21 8 -8 26 8 26 23 0 19 -16 18 -24 -2z"/>
<path d="M8460 4134 c0 -8 5 -12 10 -9 6 3 10 10 10 16 0 5 -4 9 -10 9 -5 0
-10 -7 -10 -16z"/>
<path d="M8385 4129 c-4 -6 -5 -12 -2 -15 7 -7 37 7 37 17 0 13 -27 11 -35 -2z"/>
<path d="M8300 4114 c0 -8 5 -12 10 -9 6 3 10 10 10 16 0 5 -4 9 -10 9 -5 0
-10 -7 -10 -16z"/>
<path d="M8347 4123 c-4 -3 -7 -11 -7 -17 0 -6 5 -5 12 2 6 6 9 14 7 17 -3 3
-9 2 -12 -2z"/>
<path d="M8190 4105 c-8 -9 -8 -15 -2 -15 12 0 26 19 19 26 -2 2 -10 -2 -17
-11z"/>
<path d="M8243 4105 c-9 -25 4 -29 17 -6 7 15 7 21 0 21 -6 0 -13 -7 -17 -15z"/>
<path d="M8145 4090 c-3 -5 -1 -10 4 -10 6 0 11 5 11 10 0 6 -2 10 -4 10 -3 0
-8 -4 -11 -10z"/>
<path d="M8446 4091 c-4 -7 -5 -15 -2 -18 9 -9 19 4 14 18 -4 11 -6 11 -12 0z"/>
<path d="M8485 4064 c-19 -45 -19 -63 -1 -44 13 14 30 80 21 80 -3 0 -12 -16
-20 -36z"/>
<path d="M8615 4090 c-3 -5 -12 -7 -20 -3 -9 3 -15 -1 -15 -10 0 -20 31 -31
42 -15 8 14 11 38 4 38 -3 0 -7 -4 -11 -10z"/>
<path d="M8095 4080 c-3 -5 1 -10 9 -10 9 0 16 5 16 10 0 6 -4 10 -9 10 -6 0
-13 -4 -16 -10z"/>
<path d="M8390 4060 c-6 -11 -9 -26 -7 -33 3 -7 10 1 16 17 14 35 7 47 -9 16z"/>
<path d="M8340 4045 c0 -8 2 -15 4 -15 2 0 6 7 10 15 3 8 1 15 -4 15 -6 0 -10
-7 -10 -15z"/>
<path d="M8300 4039 c0 -5 5 -7 10 -4 6 3 10 8 10 11 0 2 -4 4 -10 4 -5 0 -10
-5 -10 -11z"/>
<path d="M8426 4034 c-4 -10 -1 -14 6 -12 15 5 23 28 10 28 -5 0 -13 -7 -16
-16z"/>
<path d="M8245 4029 c-4 -6 -5 -13 -2 -16 7 -7 27 6 27 18 0 12 -17 12 -25 -2z"/>
<path d="M8566 4008 c-18 -26 -20 -38 -6 -38 5 0 16 14 25 30 18 35 4 41 -19
8z"/>
<path d="M8145 4010 c-3 -5 -1 -10 4 -10 6 0 11 5 11 10 0 6 -2 10 -4 10 -3 0
-8 -4 -11 -10z"/>
<path d="M8190 4009 c0 -5 5 -7 10 -4 6 3 10 8 10 11 0 2 -4 4 -10 4 -5 0 -10
-5 -10 -11z"/>
<path d="M8446 3975 c-3 -8 -1 -15 4 -15 6 0 10 7 10 15 0 8 -2 15 -4 15 -2 0
-6 -7 -10 -15z"/>
<path d="M8375 3970 c-3 -5 -1 -10 4 -10 6 0 11 5 11 10 0 6 -2 10 -4 10 -3 0
-8 -4 -11 -10z"/>
<path d="M8410 3964 c0 -8 5 -12 10 -9 6 3 10 10 10 16 0 5 -4 9 -10 9 -5 0
-10 -7 -10 -16z"/>
<path d="M8300 3960 c0 -5 5 -10 10 -10 6 0 10 5 10 10 0 6 -4 10 -10 10 -5 0
-10 -4 -10 -10z"/>
<path d="M8245 3950 c-3 -5 -2 -10 4 -10 5 0 13 5 16 10 3 6 2 10 -4 10 -5 0
-13 -4 -16 -10z"/>
<path d="M8145 3940 c-3 -5 -1 -10 4 -10 6 0 11 5 11 10 0 6 -2 10 -4 10 -3 0
-8 -4 -11 -10z"/>
<path d="M8090 3929 c0 -5 5 -7 10 -4 6 3 10 8 10 11 0 2 -4 4 -10 4 -5 0 -10
-5 -10 -11z"/>
<path d="M2918 2605 c-2 -3 -3 -18 0 -35 l4 -30 109 0 109 0 0 35 0 35 -108 0
c-60 0 -111 -2 -114 -5z"/>
<path d="M3258 2605 c-2 -3 -3 -18 0 -35 l4 -30 615 0 614 0 -3 33 -3 32 -611
3 c-336 1 -613 0 -616 -3z"/>
<path d="M4590 2575 l0 -35 229 0 229 0 -1 33 -2 32 -227 3 -228 2 0 -35z"/>
<path d="M5160 2575 l0 -35 195 0 195 0 0 35 0 35 -195 0 -195 0 0 -35z"/>
<path d="M5670 2575 l0 -35 740 0 740 0 0 35 0 35 -740 0 -740 0 0 -35z"/>
<path d="M3544 2343 c-168 -3 -172 -4 -178 -26 -13 -48 -17 -47 189 -47 l195
0 0 40 c0 32 -3 40 -17 38 -10 -1 -95 -4 -189 -5z"/>
<path d="M6484 2342 l-192 -2 -4 -35 -4 -35 218 0 218 0 0 35 c0 19 -4 35 -9
35 -5 0 -15 1 -23 3 -7 1 -99 1 -204 -1z"/>
<path d="M3880 2305 l0 -35 215 0 215 0 0 35 0 35 -215 0 -215 0 0 -35z"/>
<path d="M4440 2305 l0 -35 125 0 c117 0 125 1 125 19 0 11 3 26 6 35 5 14
-10 16 -125 16 l-131 0 0 -35z"/>
<path d="M4820 2305 l0 -35 265 0 265 0 0 35 0 35 -265 0 -265 0 0 -35z"/>
<path d="M5480 2305 l0 -35 335 0 335 0 0 35 0 35 -335 0 -335 0 0 -35z"/>
<path d="M3990 2035 l0 -35 95 0 95 0 0 35 0 35 -95 0 -95 0 0 -35z"/>
<path d="M4309 2068 c0 -2 -2 -18 -3 -35 l-4 -33 93 0 93 0 4 35 4 35 -93 0
c-51 0 -93 -1 -94 -2z"/>
<path d="M4620 2035 l0 -35 120 0 120 0 0 35 0 35 -120 0 -120 0 0 -35z"/>
<path d="M4980 2035 l0 -35 215 0 215 0 0 35 0 35 -215 0 -215 0 0 -35z"/>
<path d="M5540 2035 l0 -35 335 0 335 0 0 35 0 35 -335 0 -335 0 0 -35z"/>
</g>
</svg>
